<mxfile host="65bd71144e">
    <diagram id="PZB9GkpaW6D6pWBX6i8n" name="TopView">
        <mxGraphModel dx="2627" dy="1091" grid="1" gridSize="10" guides="1" tooltips="1" connect="1" arrows="1" fold="1" page="1" pageScale="1" pageWidth="827" pageHeight="1169" math="0" shadow="0">
            <root>
                <mxCell id="0"/>
                <mxCell id="1" parent="0"/>
                <mxCell id="Jbf9xt8RHUW5a88N6L6l-1" value="" style="shape=image;verticalLabelPosition=bottom;labelBackgroundColor=default;verticalAlign=top;aspect=fixed;imageAspect=0;image=data:image/png,iVBORw0KGgoAAAANSUhEUgAAAoAAAAMgCAYAAACzptN5AAAAAXNSR0IArs4c6QAAAARnQU1BAACxjwv8YQUAAAAJcEhZcwAAFiUAABYlAUlSJPAAAP+lSURBVHhe7N0HuHxVeS7wABYsiBRFsaGChSiKKCKCgtgwiCUqihV7cg0aS7BrVGyRcGOLPWINIlVA6b336r0CVkiCjSIioDD3+S2e79x9NvucMzP/mf/e+8z3Ps96zpxd19qz9lrvvF9ZfzVIJBKJRCKRSMwU/qq+IZFIJBKJRCKxvJEEMJFIJBKJRGLGkAQwkUgkEolEYsaQBDCRSCQSiURixpAEMJFIJBKJRGLGkAQwkUgkEolEYsaQBDCRSCQSiURixpAEMJFIJBKJRGLGkAQwkUgkEolEYsaQBDCRSCQSiURixpAEMJFIJBKJRGLGkAQwkUgkEolEYsaQBDCRSCQSiURixpAEMJFIJBKJRGLGkAQwkUgkEolEYsaQBDCRSCQSiURixpAEMJFIJBKJRGLGkAQwkUgkEolEYsaQBDCRSCQSiURixpAEMJFIJBKJRGLGkAQwkUgkEolEYsaQBDCRSCQSiURixpAEMJFIJBKJRGLGkAQwkUgkEolEYsaQBDCRSCQSiURixpAEMJFIJBKJRGLGkAQwkUgkEolEYsaQBDCRSCQSiURixpAEMJHoIf77v/978PGPf3zw/ve/f/CBD3xg8MMf/nBwzTXX1A9bEs750Y9+NPjgBz9YimteeeWV9cOWRNQnrqM+iUQikegukgAmEj3C4YcfPnj6058+WGWVVQZ/9Vd/Na+svfbag/33379+SiNuuummwQEHHDC4xz3u0XgdJO7aa6+tn3YbIIvPe97zBquuuuptrrP99tsPDjvssPopiUQikegAkgAmEj3B8ccfP7j97W9fyNW2225b1L/99ttvsOeeew7e/va3D+52t7uVfc9//vPrp94GH/7wh+eI2tve9raiIiq77bbb3Hb/LwYE8f73v3859klPetKcGqk85SlPKdvvete7jqVMJhKJRGK6SAKYSPQEW2+9dSFV++yzT31Xwf/8z/8Mtthii3LMMcccU99dcMsttwwOOuigwRprrDFYbbXVigpYB9Vu8803L+TtuOOOq+8uuOqqqwbPfe5zy7122GGHwY033jhvv//f+973lv3Pfvaz5+1LJBKJRPtIAphI9AAIHTJFWVsMCNvtbne7QhabcMMNN8wphYuZi13HMVtttdVtyB387//9v8v+7bbbrlxzIdjvOH6GiUQikegOkgAmEh3Hn/70p8E222xTiBTitRiuv/76wR3ucIdy7CGHHFLfXYIz+Ovx/eMHuBCQunXXXbdc5/LLL5+3T334IQ5Tn3/7t38rx+26665FfUwkEolEN5AEMJHoOH73u98V0nanO91pcMUVV9R3zwMCKPgC6fqnf/qn+u4S3GHfO97xjkUJmX3vfOc7S7DJxz72sXn73IP5GNFcqj7/9V//Nbjzne9cAkt+//vf13cnEolEoiUkAUwkOg7E6S53uUspf/jDH+q7b4NPfepTheRJy1IF5Q45ROo+8YlPzNvXhAgU2X333edtpyIKRqEiLhXgYb96r7766oU4JhKJRKIbSAKYSHQcVQWQorYYKHfvete7CnF75jOfOY90jaIkQkQEI43V68R2CuFiKiK4J7KoHHroofXdiUQikWgJSQATiY4D+Xra0542lM8d37373Oc+5Viq229/+9u5faEkMsleffXV885rQih9gkqq1wkz8oc+9KF5xzdhKZN0IpFIJNpBEsBEogeIqFvBF4shoneVtdZaqyhwgSoBrG5fCEzGUsFQDKvHBwFcKk9ggLl5lOMTiUQiMX0kAUwkegBLrQmkQKT23Xff+u4CUb2bbbbZ4IEPfGBJ9YLsrQgBXOj4UQngqMcnEolEYvpIAphI9AT//M//PKfuScKMFCJpijx7cu7d8Y53HPzN3/xNMd2ut9568yJvFyJ0CyEVwEQikVi+SAKYSPQEEjJL3rzOOuvMEcF6OfHEEwef/vSny2fBGtUgjXF8AKV6WREfQCTyWc96Vjk+fQATiUSiO0gCmEj0DJZ8++hHP1qicKO85z3vmVttI9K31BW3UaKJIaJ969HEGQWcSCQS/UcSwERiGaGawBlJrAKJQ+bs++QnPzlvXxOCSNbzCUZ08D3vec+h8wAqmQcwkUgkuoMkgIlED4A8DbOSxmJLuMGwK4HAu9/97kbT7Sgrgfz6178uJmeks2pGTiQSiUS7SALYEkzUf/nLX+qbE4lGCAARBYxQLYbDDz+8mHm33Xbb4jNYBzOs/dS7xdYC/s1vflOOQQAPPvjgeftGyUsYgStPetKTUgFMDI2bb765jJGJRGJ6SALYEr74xS8OLrnkkvrmRKIRC/n11fGWt7ylHLfnnnvWdxWYVNdYY41yzAEHHFDfPYcgbk9+8pPruwpc3/6nPvWpg2uvvba+uwCJjICVo446qr47kVgQl1566eALX/hCfXMikZggkgC2hH/9138d/PjHP65vTiQaIfCDHx2z60EHHVTfXYDQMbcqCwV5MPseeOCBxYQrZcwvfvGL+iGDX/7yl3M5BxciblddddXg2c9+djnmve99b313AbIa6l8iMQr+z//5P4M99tijvjmRSEwQSQBbwr/927+VQS6RGBZB3MKHTzBG5AC0QojtfO0WU/YCjpHe5e53v3u5Ft9AxTrCVhBxrR133LF+2jxQE4MEykEY11CiPoJFjj322PqpicSi+L//9/8u6V6QSCRWDEkAW0ISwMQ4QAIjyKNemGMjFcwwcK0ge9ViFZH3v//9Q/lgOWaHHXa4zTXGqU8iEUgCmEhMH0kAW0ISwMS4kMRZMIfcf5EDcNwce3Et5lpF6hjm5lHB5OzcuM649UkkIAlgIjF9JAFsCZMggPy5/vCHP9Q3JxKJRCswJg2zzOBSSAKYSEwfSQBbwjgEkL+X9V8l5uVntc022xRTXSKRSHQBgoPuc5/7FB9QY5SxKtasHgVJABOJ6SMJYEtYjABaPaFO9rbffvsSmbnmmmvO87N63/veVz89kUgkWoFxK9IMRTFmGbuMYREkFAFMC60kkwQwkZg+kgC2hE9/+tODCy+8sKzWwOeKQz4yJwpz/fXXbyR7TaW+3FcikUi0BcntI/fjUsUYd+9737uMeUihMdBYKNm5FFl+JCcSiekhCWBL+OxnPzv4yU9+MnjjG984ePCDHzwU2Wsq1nY1UGbJkiVL2+VjH/tYyUNZH6eGKXe9613LWLj55psPTjvttMHnP//5+rCZSCQmiCSALcFgKdu95bhEUPrVW43GROyk6GhK01Etb3rTm4opOUuWLFnaLojbUj9mpRkyrt3rXvca7LbbbnPR5xKQGwuvvPLKVAATiZWAJIAtweC21EogoumUxYjh29/+9vppiUQi0QpkJViK6F1xxRVlXJOCaCGkD2AiMX0kAWwJCKBfzOMgiOG+++47OOSQQ+q7E4lEohVcf/31g913372sXT0M0VsISQATiekjCWBLWBECmEgkEssZSQATiekjCWBLSAKYSCQSzUgCmEhMH0kAW0ISwEQikWhGEsBEYvpIAtgSkgAmEolEM5IAJhLTRxLAlpAEMJFIJJqRBDCRmD6SALaEJICJRCLRjCSAicT0kQSwJSQBTCQSiWYkAUwkpo8kgC0hCWAikUg0IwlgIjF9JAFsCUkAE4lEohlJABOJ6SMJYEtIAphIJBLNSAKYSEwfSQBbQhLARCKRaEYSwERi+kgC2BKSACYSiUQzkgAmEtNHEsCWkAQwkUgkmpEEMJGYPpIAtoQkgIlEItGMJICJxPSRBLAlJAFMJBKJZiQBTCSmjySALSEJYCKRSDQjCWAiMX0kAWwJSQATiUSiGUkAE4npIwlgS0gCmEgkEs1IAphITB9JAFtCEsBEIpFoRhLARGL6SALYEpIAJhKJRDOSACYS00cSwJaQBDCRSCSakQQwkZg+kgC2hCSAiUQi0YwkgInE9JEEsCUkAUwkEolmJAFMJKaPJIAtIQlgIpFINCMJYCIxfSQBbAlJABOJRKIZSQATiekjCWBLSAKYSCQSzUgCmEhMH0kAW0ISwEQikWhGEsBEYvpIAtgSkgAmEolEM5IAJhLTRxLAlpAEMJFIJJqRBDCRmD6SALaEJICJRCLRjCSAicT0kQSwJSQBTCQSiWYkAUwkpo8kgC0hCWAikUg0IwlgIjF9JAFsCUkAE4lEohlJABOJ6SMJYEtIAphIJBLNSAKYSEwfSQBbQhLARCKRaEYSwERi+kgC2BKSACYSiUQzkgAmEtNHEsCWkAQwkUgkmpEEMJGYPpIAtoQkgIlEItGMJICJxPSRBLAlJAFMJBKJZiQBTCSmjySALSEJYCKRSDQjCWAiMX0kAWwJSQATiUSiGUkAE4npIwlgS0gCmEgkEs1IAphITB9JAFtCEsBEIpFoRhLARGL6SALYEpIAJhKJRDOSACYS00cSwJaQBDCRSCSakQQwkZg+kgC2hCSAiUQi0YwkgInE9JEEsCUkAUwkEolmJAFMJKaPJIAtIQlgIpFINCMJYCIxfSQBbAlJABOJRKIZSQATiekjCWBLSAKYSCQSzUgCmEhMH0kAW0ISwEQikWhGEsBEYvpIAtgSkgAmEolEM5IAJhLTRxLAlpAEMJFIJJqRBDCRmD6SALaEJICJRCLRjCSAicT0kQSwJSQBTCQSiWYkAUwkpo8kgC0hCWAikUg0IwlgIjF9JAFsCUkAE4lEohlJABOJ6SMJYEtIAphIJBLNSAKYSEwfSQBbQhLARCKRaEYSwERi+kgC2BKSACYSiUQzkgAmEtNHEsCWkAQwkUgkmpEEMJGYPpIAtoQkgIlEItGMJICJxPSRBLAlJAFMJBKJZiQBTCSmjySALSEJYCKRSDQjCWAiMX0kAWwJSQATiUSiGUkAE4npIwlgS0gCmEgkEs1IAphITB9JAFtCEsBEIpFoRhLARGL6SALYEpIAJhKJRDOSACYS00cSwJaQBDCRSCSakQQwkZg+kgC2hCSAiUQi0YwkgInE9JEEsCUkAUwkEolmJAFMJKaPJIAtIQlgIpFINCMJYCIxfSQBbAlJABOJRKIZSQATiekjCWBLSAKYSCQSzUgCmEhMH0kAW0ISwEQikWhGEsBEYvpIAtgSkgAmEolEM5IAJhLTRxLAlpAEMJFIJJqRBDCRmD6SALaEJICJRCLRjCSAicT0kQSwJSQBTCQSiWYkAUwkpo8kgC0hCWAikUg0IwlgIjF9JAFsCUkAE4lEohlJABOJ6SMJYEtIAphIJBLNSAKYSEwfSQBbQhLARCKRaEYSwERi+kgC2BKSACYSiUQzkgAmEtNHEsCWkAQwkUgkmpEEMJGYPpIAtoQkgIlEItGMJICJxPSRBLAlJAFMJBKJZiQBTCSmjySALSEJYCKRSDQjCWAiMX0kAWwJSQATiUSiGUkAE4npIwlgS0gCmEgkEs1IAphITB9JAFtCEsBEl3DzzTcPbrjhhvrmRKIVJAFMJKaPJIAtIQlgoku49NJLB1/4whfqmxOJVpAEMJGYPpIAtoQkgIkuQV/cY4896psTiVaQBDCRmD6SALaEJICJLiEn3ESXkP0xkZg+kgC2hCSAiS4hJ9xEl5D9MZGYPpIAtoQkgIkuISfcRJeQ/TGRmD6SALaEJICJLiEn3ESXkP0xkZg+kgC2hCSAiS4hJ9xEl5D9MZGYPpIAtoQkgIkuISfcRJeQ/TGRmD6SALaEJICJLiEn3ESXkP0xkZg+kgC2hCSAiS4hJ9xEl5D9MZGYPpIAtoQkgIku4eKLLx587GMfq29OJFpBEsBEYvpIAtgSkgAmuoTf/va3g1NOOaW+OZFoBUkAE4npIwlgS0gCmEgkEs1IAphITB9JAFtCEsBEl0ABPPXUU+ubE4lWkAQwkZg+kgC2hCSAiS4hfQATXUISwERi+kgC2BKSACa6hCSAiS4hCWAiMX0kAWwJSQATXcLvfve7wemnn17fnEi0giSAicT0kQSwJSQBTCQSiWYkAUwkpo8kgC0hCWCiS7j00ksHX/jCF+qbE4lWkAQwkZg+kgC2hCSAiS5BX9xjjz3qmxOJVpAEMJGYPpIAtoQkgIkuISfcRJeQ/TGRmD6SALaEJICJLuG//uu/0gSc6AySACYS00cSwJaQBDDRFq677roywSqHHHJI6Yvvfe97B89//vPLZ9ti/2WXXVY/PZGYOpIAJhLTRxLAlpAEMLEygfSdf/75g3/9138txeSqHHzwwYOf/vSng6OOOmrw/ve/v3z+0Y9+NLdf+cQnPjE48MADBz/5yU/ql00kpoIkgInE9JEEsCUkAUysDNxyyy2Do48+evClL31p8M1vfnNwxRVX1A8Z3HDDDYPzzjtv8MlPfnLwxz/+sb578Pvf/35w8sknD77yla8Mvve97w2uvPLK+iGJxESRLgmJxPSRBLAlLCcCiGT8z//8Tym/+MUvBp/73OcGX//617NMsOy1117l7/ve977BBz/4waHLNttsM3j4wx8++Md//MfBnnvuOfj4xz8++MhHPjK3/13vetdg/fXXH6y55pqDO9/5zoO11157sP3228/t/+d//ueyQsinPvWpwb/8y78MXvSiFw3ud7/7Df7pn/7pNvdaqKhztQ1ZJlc++9nPDn7+85+Xd+83v/lNeR/322+/wXe+851Svv3tbw+++MUvDv793/998OlPf7qMO30oVZeELN0vxhY/IOvb6wWp/9Of/lSfQhItIQlgS/Ay9IkABskz2bz97W8f/K//9b/myjOe8YzBgx/84FI22GCDweMe97jB3//932eZYHnDG94weNnLXja4053uNPirv/qrXhV1VndtqLcry4qVzTffvLxz3r2HPvShg9e+9rXlfXzqU59ayg477FBM+ieeeOLg17/+dVnxhbrG1H/JJZeUMaiLRZ3f/e5332Z7lm4WfsN+ZNa31ws3kr/85S/16SXREpIAtoSuE8AgfEx+VZIXk8zf/d3fzZX//M//LJOK8t///d/FzPizn/0sywTLkUceOfjABz4wOPfccwd3u9vdCplCtJ/5zGeW7+CVr3zlYKuttho88IEPHLz0pS8dvOQlLxm84hWvGLz+9a8fPPrRjx7suOOOgze96U3Fz+91r3vdbUjaQmWTTTYpiuGHP/zhwate9apyrec973nlGu7x5je/ebDpppsOHvawh5X9FEWkQ93cT31+/OMfl/seccQRt2lXlhUr3jXvXJC6t73tbYO3vOUtc8W76ztU/uEf/mHw1re+dXDAAQcMrrrqqvor3yloG3Uz0Q/ogxTpRL+QBLAldJEA8u065phjyqT+9Kc/vRA+f6skL/2/2oGJnlkM8UL+Tj311EL6DLoXX3xxIVdMZpI5C/YQtPGZz3ymmGzf8573FBPuLrvsMnjKU55STLgbbrhhOd61lBe/+MWDLbfccu5/52222WaFVDoOqWQKRgT1D2TPr379gbr0oAc9aPDVr3611HWfffYpdbO6iOPvf//7FxJ5+eWX15uVWAmg/CGHyJ93ufpu+y698117rzMIpF8gFHAduf766+u7Eh1GEsCW0BUCaOAX5UnVo9Zst912ZZLgO4Tw3XzzzfVTEi2AIsKXjrrGn+vaa6+d5yR/xhlnDHbeeec5Zeecc84pJIy5fqeddiokDJFjpnEd/mBMiFtssUUpj3rUo4opMf5/whOeUCZg/RRJoCRR/+55z3sWX58nPvGJZT9zjntSJw866KCiBMDnP//5EnnsXne5y10Gu+++eyEhifbhnfZue8e960zF3n1jAB/RLpDBJID9gh8XLAa//e1v67sSHUYSwJbQNgH85S9/WUx0fIgQBRO8CdrEkOge5ONDvHxP1LxrrrlmzkTGPEyF+4//+I9ithexS+2jACJg1D3krAl8wkT5XnTRRUU99Nm2q6++un5ouTYTr+sJ6GBSRELPPvvsEnDwhz/8oaiAyCllEpFANJkl/cigCCa6B6TdDwzjgbHAmODHgYCutpAEsF+g9COAqQD2C0kAW0JbBNAkbXB/yEMeUv6alP/85z/XD0t0DCZoROod73hHIV0XXHBBIYTMv0gZ0qZPidSlvlH87n73u5fvGXk0MFPqRIoicoie/xX/uy4/QaTNNiQu9il+2UeKGPeh6jEjM0XzM+Sw75ryCaqDtDIRDe7a6p4KYPdhLDAm+KERY0QbRDAJYH8gqpc7AQJ46KGH1ncnOowkgC1hZRPAG2+8sag2zIBMPaJ5E/0BEvaCF7ygmGn58CF497jHPQbrrLPO4L73vW8JwrjDHe4wuNe97lWI2e1ud7tC0iJwx9811lhjsO6665a0MPYx50b0tsF79dVXH9z73vcu/9vnGL59zncvaWIcJwglgkTce6ONNhrc9a53LXWLY9dbb72SUkZdH/CABwz+9m//ds48nOgHED8m4iCCrAYrC0kA+wM/PiM7gfRQif4gCWBLWJkEUBTma17zmrkw/UQ/cdJJJ5W8fMz0ooH5bv3gBz8oqp3AC07YZ555ZiGAVDkDswCAiNBmpjVAuw51kN+O7RJERyQvU45tFDsEUODGt771rWIeRuJ22223ktJFEMgd73jHwWqrrVYCRt74xjcWP0DmYAoScyIfM3X70Ic+VEzUiX5CHzB28AHVh1ZGGo8kgP0BdxQ/9hBAPqSJ/iAJYEtYGQSQH9f+++9fTHK5jNfygGXcmGepMQIrgFKz9957Dw477LCi8G688cYl+W8TBGbwFaz3h+9///uDZz/72fO2meiZdE844YRCJr/xjW+U7fwKBYlU08VQ/xBIRBFELCOTzEP8ABP9BbMwEujHg4Thf/M3f1P6D0V3Wn6dSQD7A/1grbXWKuOAtFTpB9gfJAFsCdMmgBQixM+qAInlA6lXqH7UO6Z8EzMiyM/Ptkc84hGFsPnuw3+vWhA5Kh1VTm4+vnsIHcVPfr/Y5u873/nO4jbAb1BgCYXPNZBPvn9UIcrfy1/+8sHWW29d+pyVP/gl6t8CUaQP+vKXv1xvRqIH8EPDDwv9yw8PiaMpytTmZz3rWYPHPvaxg6997WvF19P3bV3p+g+LcZEEsD+g+q2yyipzbiQZCdwfJAFsCdMigKH6ibrMF3H5gRojATOfm/vc5z7FZ4+/Hj87gy8ljk8ek4y/zMHh5xeFUuecqoK3UOEvGCu8uF/4FD7ykY8sqWMkfEYE+Ae6rnQi7s13kL8hs7HAo0R/EMTPj4Dvfve7jRHhfkiY+EWgn3XWWeUHiEjzj370oyX6fEXHniSA/YEffTFeUAKb+kuim0gC2BKmQQCpM4hfqn7LG5QWE7RJ1yRNBUQK+f1RaI4//viyNqdJmjmGKbde6mDKazLVxvGRD9Jn13Rt5t5jjz22mIAknw7ToLrxKxT165p8hBL9gATiCxE/Pywlja5v09dEgAcozBRoK46MiySA/YAVo2QhCALItzhTifUHSQBbwqQJIFMbU40VIxLLF4gY4oXoSQ0jzQpCRo2LKE37BGZIDC2JM5OuQZpJlx9XfGb29df/zMmSgDftk8ZF8dm15P9DON2jmjRYxKhjbrjhhrnJW9JqpuFEt4HsIe5NxA/8qDTBP+YxjynkrjrJ+0z5c25ACiFjEoI4DpIA9gO+5/XXX3+OADIFWzEo0Q8kAWwJkySA/HCe9rSn5VJbMwCqGn8sRFC+PwRMZLDkzAE+e0y3BmSRvBL7IneihKWS8dnazkifv/7n08V/sGkfsodM+uxaUr+4tvQgyGYAIWWKBkmqEVKKIB+xRHeBwLEcLKTYIYZM+sz8THyIv+/f9oDgIrngvvKVr8w794c//GHJV6lPjoIkgP2AHwtUv6rbCF/hRD+QBLAlTIIAUlqQABN11QSTWL6QABqhYnphXmUGRt6qk7GoYGla+GjpZwI5pO+QpFWAhs8x2fvrf9G+u+66a+M+BIGZ12fXOu6444qyJ/ijmk9SxK8fIiZ9qWP0bz9KENYms3OiffhejSFhOUDU/KCM/kT5M8Fvu+22ZXLn4+k7Ncnz9fR9+675/xmD/MhA/vWFgGUJJS8fJQ9kEsB+oBoBHIXlwPiU6D6SALaEFSWAfnkx50ndkT5WswOTtcmRuuazBN+SP1d/AOhX1XWChwH1zvVGgVQzckxW8YY3vKHkAFQfRJVSqa+LIE10D9wJLrzwwvKZmiyFEFJHtRPlvdVWW5WlBxFD7gbVsUZwTywBJhAIrBZjTOIyEOtSg3sgdMMSgySA/UA1AjiKwLQUJPqBJIAtYUUIoCi9j3zkI8X0F8tzJWYDHO6pfpQ3Ss3hhx9eTG/6RGCcyZPKF2sLD4umPkw5QgDUwX7gM6bOiW7hRz/6UfHRC1ImzyMzP3Ovz8ggpRfpoypb55nahwgq1OAjjjiibLfiy7777luuwydVmiHkMAije4gOpkAPg3H6cGLlg09wlfwpmQqmP0gC2BKaJs9h4aWzNFP1F3Zi+cOgqt/4df2rX/2qTMBvectbium2CpMnojgMTMz8CiVupigz7w4LCl9dAUREpZ5BLpAHELWsJLoD31OVoIFAjli/ebPNNiv+fKLDpfKxktCXvvSl8p0y/77nPe8pyqCgH8nHpQgy+TMFAwuF9YSZAwPInx8Zw7gDJAHsByiATMCWh5SaymduAqkA9gNJAFvCuASQ6iPdRtX5PjEbYPYN0y6fPeQLcZMAugpqnklcjjaTNQf9hRBqDb89CaGRQORyMUhGjTy4dr0f8kuVD1BKInWQt9APlaYUM4n2gKhJKF6FfvLSl7605Hak9EngvdNOO5UAEeqdyf51r3tdGX/8APX9+qFBAWTyFXC06qqrzpFAZuMddthhXmCIa1ETl0ISwH4gUkKdfvrp5QeEz8jfsKb+RLtIAtgSxiGABlLmvvx1NVtAqvjbUV1e+MIXlr5jYuW/xTl/m222KYFAfO/sk5iVM/4aa6xRVJk4p6kgcVSdHXfcsUzecsBRe+rHRZFqyPq/riuZtEHfdqlhnvSkJ5UUEBJAm7yRBwRVfahEyGs1OCDRDvhlMsvXiZgcfwJ95HBE6nx/fkRYJpCSxzSsL1GdpfwREa6/IIvIpL+UIH0j0r8g//om9RAowXXi2YQkgP0CH+JRXUgS7SMJYEsYlQAyxRh8k/zNHpjMBFFY61d+Psof05tf3ciaJdwodxQZferoo48uZPGkk04qEcIGZ7/Mm4plvSg9/kr3YoLmr1c/LgrSwO9QKhCkAGlwT/dGDBAGq4acd955xUfVsaecckpRF6WEGcb8l5guKMmCPKrfhe/NGtF8OH13UgKdeOKJZZx65StfWfw6+Z1GQnDBR0gago/g6T/M/gKJBIRQAyMvIBJo7HI+VZAKuFQ/SALYL+T31U8kAWwJoxBAofZUGhNwYnbh+99kk03K5IlwmViZf+s+gNJuPOUpTykmO5GcfEYd11Ss5XuHO9yhpHSRI/CJT3xiMQPWj4uCaMZ1rf/rXlXwLaMUUfoo1upMDaICJrqBuk+mHxYUOj6lvj9qs8mcKVdfkFJoIcLm+6UEShWDMFIPkX3KMoU4XAT8cKUAO9616+pjHUko+oX8vvqJJIAtYRQCWE3VkJhd8KujrplEKYLf+973iv+epM2hzMjnxk+LUhhReaI5meyaCrMxJc9Ev+WWWxZix5xbPy4KMhDXffvb317uVU1ATuWxTjDVL4JAXv3qV5dl6hLdQDUqGzkXwMFHUxoYPl2UXKZghE2fWIqsWQ7QjxBqIDMg5Y/ZmDsAt4CAMQy5PPnkk5c0Ayeh6Bfy++onkgC2hGEJoOS91VQNidkFAijCjvIXeftEcVqRI1ZaEGlJHQRKDFMcP72l4Dpx3mIQ1MHh/9GPfnT5n2p00UUXze2nEMoFKAqUmRFEg1IaE+2DkoekyeFH+bvd7W5XyLw1gAHZ22233cr/fkT4YVDFTTfdVMz+9byOFD6mX1HE+oTv3I8Rq4eEKdgYZjzTb5fKU5mEol/I76ufSALYEoYhgEy/1L9M9JwA/UGErYkVCaSw8eey7FsoOgZi/n+nnXZaIV0md5O47YsVZMB59e31wldsl112KUqkNX6dE/2YCsknUWDAGWecUcyMtiEDVMVE++BLzDcz1vaN8rKXvax8v8gdX1Djk7/W8w0gj9Rix1sTmMm3CpHBliSUHkYaGcFLfoQ4PtYXlrfUcfHjYCGoSxKK/iC/r34iCWBLGIYAIn9VdSUx26DOMLnyswKmPOZgJtbIt2aC1bek56DkPOc5zymmOIPzYgWRE6lb314vlnVz3TjWvSLNjL/8/9SJyqS+fMCYjgWaJNqH70hKFz8OnvzkJ5eo3fvf//7FRzP6AV9QJtyHPvShRfELIHTPfOYzS6LfTTfdtBxfBV9T/oCWELQvTMfIoNVFwo/QcobMxYshCUW/kN9XP5EEsCUsRQApMmn6TVTB7Ms/S4oOyhonfSqMHH58tRZy1B8GVMWlzHJLQX+1dJh6IIpUSkmm1XkY83Ji5UE6HyZb/SZStAB/zlgHWBAHpbCKM888s5A5KmI1KE3Qj9REAoT8cH384x9f1EafXYcK6MesfsvXUJoivoALIQlFv5DfVz+RBLAlLEYATcZMJ2n6TVSBAMYyXMzB/PGY2+C5z33uXALecaDPVYnAOHjCE55QTIgCQPh6gboiEdVkwIn2IQgjTL9SvISfniAefQmYakWH1yHReD2fo/P4okohI5BI0A+/VPewQoTVYaSLoShKB+QHgr5bDSCqIglFv5DfVz+RBLAlLEYAOV9bizNxKxAdqoEJRSDEyizMWCY8n/31/zD7plHk9WPaRahEaVoaLgiWCMunPvWpZRWPOH6Y+tnGZ4/J1pJflJ2m4xYrvheO/1aQ8D25nkleEYAiF6C/9TosVr/qvpVVFqvDYvuGKZ6RZ6MvdwX8OZmBqbYUuVD++PFZcUgOSelchoHAH7kprQ2sH8UPE9dfZZVVBuuss07JEwgCRRA/Zub6KjaBJBT9Qn5f/UQSwJawEAE0sfDBqfrezBpMlgYURFh6CROS6FfpKh784Aev1MLXjQ+Tz/76f5h90yj3u9/9ykTKN4sfFsVF8fmv//qvi9Ky5pprlrQvjh+mfq5JpbFqSKzwYVv9uIWK+/P7c57AEN+RlUAEpjD9KdQf9a7XYbH6VfetrLJYHRbbN0zxXPRhfVmf1rf1caSwLXAv4SPqu/PjAQlECvlrCvKgDAomWgwSQhvLBBr5IUKF5vMpKMlKInwMb3/728+ZkpmA/YjhGuD+EkR7DnUkoegX8vvqJ5IAtoQmAmhAZCap+93MCkS0mhxFupo85KhjTqIk8ReiRlBdVmZh6qK0+eyv/4fZN43C30/eP+Zfy25RaZBlQSEUY0oTokUVdPww9TvuuOOKOid9DBXQ5CyvW/24pqIeTH+UP2lh3J9zv35tQhBQIF0Ik7B61+uwWP2q+1ZWWawOi+0bpgiyoOB6Hvq0vm0FFz543D08x5UJUblW5EDOgvxLHr7zzjuXMch6v0zBfljw5eSTLJKbG4LvWQ5K76oclN5L/3tPqYDUQIFJiKXrCgoJ1FchcZ60QnUkoegX8vvqJ5IAtoQmAoj4+eW9Is78fYQJ8sMf/nBRivgdUQfqCqhts77WZHW9TQl7TeAiM5ERiXx95nRPlRvWf9Tkfuqpp5ZJXXDJWWedVbYNC4M+xc+ydMcff3wx94LAlFhtIr+7W82ekaon4PtiMkUGfWfM776HaUPOPuMPn03mWcmareRx17vetSiB1oWm/lln2g8CKp36UfkQQom+bUP2mXXju7ccHPPvdtttN5deJsy+gfpawEzi7lkliZCEol/I76ufSALYEuoEkPoncs4gOktAPkQVUgwoCAshB5jbPgMki4ICiAMSKM2HCV1fqjvqNwGpFACAhCOAInkRtmHg3ib5Qw45pBDHqItr8QELElqv9yyi/r7Xoe/78eMH4Le//e367olBP0FG5Wv03SF7lv/zmRrJnM98/6hHPaqsDWzljnvd617FZA3GqX333bekkqEKOkaAD0JINfQuhxsBYluN9HWuHy3cXKrQb6jIsZoNZJ/pF/L76ieSALaE+oRgEPSLvDoILncIHKAyHHXUUUuSlRxgmp+BFRtiFYequsKxHwlkzl0MP/7xj+eWAWM65v/FHLwY+H0x9ZnoRftSsuQktI6s61jpAQkMNNV71lB/35sQEbKCL6YRNe078R37kcnNgq/eNttsU77HVVddtSiAonO9kwjZK1/5ykLqEDmqn/yPzL0CNxBApI+y68eba5599tnF31HfQyyZvZm3A/qa4+sWDsQQCa0mnc4+0y/k99VPJAFsCdUJgT+OdAwG31kB/zVO50tNioEcYBZ+Bn48UOGAKugYROwjH/lImcRFdy6UT5ICKKI4FEBuCIspgHK7UYNM+sjm0UcfXXy6+AMC5a++bvVC9Z4lDEMAA0y0/PAmSQJ9v8hXpF3hhygoheIoUMP3GeZ73yESKIJXcmeg5vIz5ffHdxER5ON5/vnnl74lx58AF6QwlGFmY6QwYHxbKLG9/sH/MFYMyT7TL+T31U8kAWwJ1QmBzxXTixQeswAqhBUFqolkl0IOMAs/A8obBS5Ut3POOacQbETuhBNOKBM2QtFEBPU9wQnMchJBi/oU3FAH531Lum200UaFWCIpCAPVJiZtSiQVsn6Pheo9SxiFAILvZVIkkNm3Sv7CRG/dZn6HFD59AAQVUQKtEWxVD4QOcasq9PJFWuElYNk/vn+KNYYFFrlu1a9vob4RkIcyVpGB7DP9Qn5f/UQSwJZQnRD8YhaBF0tqLVcY/EWE8lEbNeoxB5jFnwEFziQfShwSR5njp2VSNRk//elPL6SCaQ4JoBLywWT25XrAt4spj0qDCCjOE9XJLwxRcH2qIVLAXzDguOr/VSxW71nBqAQQkEAqOT+7cRE/DqrkTz9B4JlimXW5YIAUMHz++CCKDJa65hWveEWJBuYmEERfYIgVQZBAZFDaKuRvoeAh5G+hvhGwhKHgkTADZ5/pF/L76ieSALaEmBBMvCZYk+tyByUCCbFaxKjIAWbpZ0BF4WRfVV5MvCbsiED1v2jrWANW7sCtt966LNeGbMhv94hHPKKkk2HC4wsmTUeogkzM7hH/I5eIZpigm7BUvWcB4xBAoMxS4vxwGgcIfURjB/nTT8B2PxCAP64xKHyQEUNm3Hvc4x4lryQfQOQQLPem/2yyySaDtdZaq9QP0awDYaQ6L0X+AszL1rpWh+wz/UJ+X/1EEsCWYEIwKfvVLHKOL9VyB9OhAX6pgI8m5AAz3DMw6VJRlJiUbXMecyL/PL5fUrdQYSnPUntw3qfyKfzC9EdKLSJI9UP8+H1VJ3OmZmbjqp9XE4ap93LHuAQQkDgkfdQAMcpb/Biok7+qKueHmaAeBBCR5zYg5yRlUJ7ASOniBwFiKG/kHe94x9JX+IM6tg59xg+FYckf+GFoLKROUplnvc/0CfmO9xNJAFuCCcEgZ6Dk+7KQ+WS5gH8jklFPATEscoAZ7RmY+C3Jhggyr4EkxCZvq3NQYpE85mAkDyGMv/K76Zcmf75gFB8rPARxF80pCpSyWPUFWwij1Hu5YkUIINcJKtso6WGqBC/cA5rIn33//u//Xn4MCPLQB/xIAy4p+oJIbz8Aggh6j9dbb73BS17yksodb4VgEaof8hf3GxbONRY6zzgx632mT8h3vJ9IAtgSTAjMZ9Ik7LLLLiP/uu8TtI15R56zcZEDzOjPwISKACKCJmXpWoBy8/rXv76YAPlvxcQeRQQo3y6pQe5yl7vMXc/9ET99tx7puxhGrfdyxIoQQPD9CcIZZpyoE7zFyF91nx8E/P2Yex1nnx8NAeZikb+UYYphQOCHaGB+obvvvnvJKznOD1ptk5/QPaiAs95n+oR8x/uJJIAtwYTAyR4piiSryxXaSTWgeI4L+dFmfYAZd5ANIshXj2rH72/99dcvwR9Wd6gTQD5f7kMNpAIKIhAEgBCMQvwC49Z7OWFFCSBCxATbFKFdxWIEb6l9lD6BIUzOEjlL89MUtStdkH4k36N2IX7KueeeW8jgioC/6Rvf+MYyZsx6n+kT8h3vJ5IAtgRmF47dHO7rS0QtN5hsTF7V5MCjgHIlOfGsDzArOsgy6SEhlh/zVznvvPMKGdxhhx0Gm2222eC+971vedYIN/VHZKj7VpWgUbGi9V4OQJQ8B325ngh5GPjuqLXM7wthKYI3zD4mfabgxXJBcinQH6IPrSjpq8KPRMEl/BCNkYl+IN/xfiIJYEsQUWedTATQr93lDAoSv6JxzEIgDQbn9FmfEKY1yH7/+98vSqC+WF+TdRKYVr37BATQDyB9eVwyzY1ioWwBzPnDELxh9kXKmDYgNZEgJfkoKYyJfiDf8X4iCWBL4NBtwfVh/Xr6jNe+9rVlRYpxwe8MMZl1Akht8SwmDVHCEvdSAMeJ0F4KGdF5KwEUbev7W2qpvYUgubegjDoiITcsFu3bdfIH1ETj4oc+9KHS3kQ/kASwn0gC2BIkfxaJKQfgcoZAFysOiCIdF3ySmCIFJswyECkO8iI2J1mk8eCLKh3M6aeffpv9K1p8d1TgWcbnPve5ovTry+Ou+MMMvMcee9zGD9D1pOORlod/3mIEb7F9bZO/AKVToIlnlegHkgD2E0kAW4KXRcoDa68uZ5hU+PTUVzmhekr1UCcLTQV5tEoFlaq+b5YK5cgarpMuIi+lGZEeRnRwff+KFhO65f/q7ZmlIocioq0vy5tY399U6il2/JhC0i3LJzgj8jzyl5Pj8QlPeMKcebm6Msti5I/Jlam1K+QP1N3YKNAk0Q8kAewnkgC2BKqYiMtpmNy6BGavDTbYYF5OML6A0k286lWvKibwpcqWW25Z1g62OH193ywV/l8UQCk4JllEXW666aaDNddcs9ynvn9Fy7vf/e4S3VlvzywViZyle9KXX/ziF99mf1N5/OMfP/jOd74z994gct4lRFBkd+QGjNU2RHVTAqVhCcV9MfIH1gQeJ7J7mhAoY2x8+9vfXt+V6CiSAPYTSQBbgknRIBeLny9XIIBSwMQEFI7wFAsTls9LFf6Db37zm8u6pPV9WVa8+B4Qyx133LF8L/X9WVa87LzzzmWC1Jc/9rGP3WZ/U2E2tkSbdCxArfMuGTNE4krnwyTMVCpy9/jjjy+Ej08gLEX+/C94pCnVS5uQ8sbY+M53vrO+K9FRJAHsJ5IAtgSmMYOcwW45w6QltYh2MmmZkEb1gTIJ8iNjRkxMB4g6IpiYDkT9c4PQl0c1tzKJWomDydf6zdQ/7gAUQrkaKeOiZqvgXsEfMFIvNZG/6v9dQhDAt771rfVdiY4iCWA/kQSwJcjFdte73rX8Sl/OMBFZMsqkZxIcdfIDZi0mrVmPAp4mcgCfLkQBe9f15XESQlPqmHpf9KIXlR9QomXPOuuswXbbbVdcKeqwqkcQPO9OX8gfUDj5o1bN34luI8ePfiIJYEtg1tl+++3nHLmXK0Q+WlrKGrTjkt0kgNNHDuDTxYoSQEDaHvawh5W0PfDnP/+5kEJKXx3eO5HXf/d3f1cSzge6Tv5AgJh6c0tI9AM5fvQTSQBbAodwfm3LHRTAtdZaa3DppZfWdw0Ny5BlHsDpIgfw6SLyAOrL4+YB9GNx7bXXnsv5F6gHksVqHo4TSCF6HqrJoruOf/iHfygR6Yl+IMePfiIJYEsQ5edX7nIG/z/pL6wwEarFOJA+Q6oL/oOJ6SAH8OkCAfRjSF/2XowD+f/4/QkO4RNYheXl+BdakxfJFAlspSHvjXGGAn/YYYfNO6fLmIXxcTkhx49+IglgS1juAxzncxGl/JT4AK4IAaRkmMxyaajpIQfw6QIBFI2rLy+2zu5ioABaD5iPHAJYXbZP6hRBE895znMGz3/+88t3ydwbpE/uwD5huY+Pyw05fvQTSQBbwnIe4GI5Kj5PnNVFAVfzAI4K0anHHnvs4Fvf+lZ9V2JC4DOGsCemA356fPaodOOuBex9ut/97ldMyYAA1tduPvnkk8sxkkJL8O0HWB+xnMfH5YgkgP1EEsCWsFwHuCB/Ee1rsjIhjUMApYNw/gc/+MHBC1/4wpIMWv7ET37yk2Wbz/763+dp7OND9fGPf7xsk5dMYuNh9r3vfe8rxPX9739/+d/gqExrnzqoizpFe9RHvZr21dsqGfTTnva0xn0+L3TeKPvqz2ix51fdV2/rYs9h3H1Nz2ix51fd19TWuGbs82ytiCIBOlI2Tv7PIIDVYKo6CZRk/bjjjisrDEk11TflL7Bcx8fliiSA/UQSwJawHAc4JK++pqgJiElK7rJhwD+K0/rrXve6wXrrrVcS3woikRcsiuWwpNDx2V8+htPaZ/tWW21Vtik+D7Pv9re//eClL33p4A53uEP53z5lWvvi/uq0UN2q+5raOu199WfUVMemff4f9jmMu6/pGdXrttC+prbGNav7omy44YaDe93rXoPXvva1hSRGrr6lwATsXbJMXBV1ErgcsBzHx+WMJID9RBLAlrDcBrhzzz23cU1Rk9tjH/vY26xrWofjqCom6dVWW23w6le/uqgYtlNR5ASzbBXlhALCZOmzv/73eRr7rJIQ25izOdsPs4/DPqd/f/2PHCvT2hd1jzqph/qoV9O+eltPP/30uVQ99X0+L3TeKPvqz2ix51fd5++wz2HcfU3PaLHnV93X1Na4Zuyz+sePf/zjsnLHmWeeWfzzmGiR0Xvc4x5FTVyKCKq3d6n+jsFyI4HLbXxc7kgC2E8kAWwJy2mA45D+iU98opHkNa0FXMWNN95YTHMSv5oMd9tttzJpVsE3zT1ypYrp4Wc/+1lGWU8RIncRQX35sssum9vOZCti9453vGNZ1eNtb3tbeSea4L3wLi1EFJcTCVxO4+MsIAlgP5EEsCUslwGOkkGpWwixFnDTpHXTTTeVZayYxSh8JsMmZCLo6SMH8OliqUTQ+r4cfZtuumkJ4BDVW8di71JguZDA5TI+zgpy/OgnkgC2hOUwwA2zqsBCkxaVY8sttxxsvvnmt8lpVkcmgp4+cgCfLoZNBI34Pe5xjyvvRZ0ELvQu1bEcSOByGB9nCTl+9BNJAFtC3we4YcgfNE1ayJ+EtvyZ6qsYNCETQU8fOYBPF6Mkgkb8EMA6CWx6lxZC30lg38fHWUOOH/1EEsCW0OcBbljyBzFphQ/g9ddfP9hmm22KylFXOBZCJoKePnIAny5GTQTdRAKZkIclgNBnEtjn8XEWkeNHP5EEsCX0dYAbhfxBEMBIXvuiF72o+PyNsjIIB3r3TRPw9JAD+HQRPoD6smjgYYD4Ucr9YPrjH/9YgkhGIYDQVxLY1/FxVpHjRz+RBLAl9HGAG5X8QRBAk9kRRxwxeMhDHjI46qij6octigwCmT5yAJ8ulgoCWQjyZ/rB9J73vGdw8803j0wAoY8ksI/j4ywjx49+IglgS+jbADcO+QMEcKONNio505izxmlzKoDTh+XJ5KpLTAfjKIABaWLWXHPNkmtz4403HpkAQt9IYN/Gx1lHEsB+IglgS+jTADcu+QMEULCH/GfrrLNOMWONin322Wdw5JFHDr70pS/VdyUmAMTi/PPPL8mgmRoTkwfiJzG0vvyrX/2qvntJbLHFFoPXv/71gyc+8YkL5tRcCn0igX0aHxNJAPuKJIAtoS8D3IqQPzDpPfShDx088IEPHDzvec8rSpPBYpRi0qSCWMO1vi/LihcBNt///vfLsn177733bfZnWfHChHvMMceUvnzqqafeZv9ixTsjAp77BBPwUlHEi6EvJLAv42PiVuinSQD7hySALaEPAxy/uxUhf/D73/9+bm3UD33oQ8UUZqAYpbzqVa8avPGNbxy88IUvvM2+LCteqFMf+chHyjq5zOz1/VlWvFjD1xrX+rIfMvX9SxX5A1dfffXBne50p/JOrQgQQD/suow+jI+J/48kgP1EEsCW0PUBjiq077771jePDJOViQsJHBfnnXdeMVF+9atfre9KTAjWl0UEE9MB94Xrrruu9OU///nP9d1DwTJxfkiN40ZRh9V7lkrA3ia6Pj4m5iMJYD+RBLAldH2A++QnPzlUvrKlwAR897vfffD1r399cMstt9R3L4lLL720mM+YwHIt4OkhB/DpQg5LSaDf+973Dg4++OASFDUq3v72txcCuKIKIFj72frdXUXXx8fEfOT40U8kAWwJXR/gmGpHSVexEExWq6666uDDH/5wfVcjrr322mJ6dn+FSfIlL3nJYNdddy05BG2jVE2ibon/jxzAJ49qX2YC/tSnPlX6sHfBD5pR+zKz7VprrTX49a9/Xd81Mrr+fXd9fEzMR9f7U6IZSQBbQtcHuEkRwFAABRksBomhBSDwj/re975X7s35Hb7xjW8UB/rdd9+9bBe1+pnPfGbJdVUTwyMH8MmhqS/7bNnDvfbaq6SDYQ4etS/LCSgQZNwo4Cq6/n13fXxMzEfX+1OiGUkAW0LXB7hJEUBpYExaV111VX3XHOQ1Y44S6du0QojJUTBK3QR80UUXDf7lX/5lcOihh87bnhgdOYBPBgv1ZYof4qcv67d1DNOXR1kLeCl0/fvu+viYmI+u96dEM5IAtoSuD3CTJICLTVr2mxwXUzWOP/74UhzXBOSw61GNXUcO4CuOxfqy9+kXv/hF6cexLGITFuvLS71Lo6Dr33fXx8fEfHS9PyWakQSwJXR9gFsZBJCPFL8oEaiLQbTi0UcfvWiUKlNbl6Mauw6rUwj8SYyHpfqy90meRX10oWMCC/Xlxd6lUdH1Cbvr42NiPrrenxLNSALYEro+wK0MAshBXjqKpbCUAggmYM71/iZGh+TCxx57bH1zYkgs1ZeHVQBhob682Ls0Kro+YXd9fEzMR9f7U6IZSQBbQtcHuGkTQJOboA6O7UuB35TktUutBWwSXsh8llgc0oIIUEiMjmH6svfJuzBMsAc09eWF3qVx0PUJu+vjY2I+ut6fEs1IAtgSuj7ATZsAmuDkQ4Obb755cMMNN8zbX8UXvvCFcvxSBNBEzIz529/+tr4rsQR813vssUd9c2IIVPvyQvA+CQLRlxd6r6rvQVNfXuhdGgddn7C7Pj4m5qPr/SnRjCSALaHrA9ykCWCdlO25555zvlBMY/UI3yq+8pWvlAl2KQIIrsufLTEacgAfH6J3L7vssvrmefBspUTSlxdKsF5/D/i8VvuynJpJABNdRNf7U6IZSQBbQtcHuEkRQL5lD3zgAwcXXnhh+SxC0ioIH//4xwcnnXRSmfSkvvinf/qnYoakkpjobrzxxvIZgTTBWpaOerIUrLhwwQUX1DcnlkAO4OOBauddiZyVC0GuP8d89KMfLSuCxHugr+vnP//5z2/zHnhHzj777HKs90DOwA022KDsW1F0/fvu+viYmI+u96dEM5IAtoSuD3Bf/OIXl4xWHAbWPb3nPe85uPe97z142MMeNvjABz5Q/KDufOc7Dx73uMcN/v7v/76YunbZZZfBP/7jPw6e9rSnDdZee+3Bq1/96sFb3/rWwV//9V+X8/0vRcZSMJHmmsGjIwfw8YCYDfPDZJ999inLwG2zzTaDDTfccPChD32ovAf6uj7/pje9afCv//qvg5e97GWDd7zjHWWbd8S2f/7nfy7vwQ477DB40IMeVBJKryioiH4sdRVdHx8T85HjRz+RBLAldGWA43OE7FExrLhx3HHHlc9/+7d/W9bg9Tn2ScXCRBXHVItt9jnGsbGdc/zGG29cJjb/f+1rXysTmTVNFdtPOOGEwVve8paiktzrXvcq27fccsvBxz72scF//ud/lsnQxPfKV77yNveNe8c93/e+9w2e+9znLllf+/hu+Vvft1BblOozioIATGJSbhPLYQCv9+UjjjhicPjhhzd+h4v1jWp/WqjEMd4Ry7whc4tdVz9/ylOeUo790pe+VPwt4z3Q56WQ8W54B6z5G++BY2z3Hjz1qU8d3OEOdygqYr0+Tf0y6tnUl5FRP6rq53SlL3dlfEwMh+UwfswikgC2hK4McH/5y1+KaYq5l28SM63PJja5yHyOfdQOx8Yx1WLbpZdeWo5xbGxn7nrkIx9ZVD6qgxVBXvva1w6e8IQnFGUDCTvnnHPKpGaSeuc73znYbLPNBq973evm1jx985vfXCZPpuD6fePecU/XMIEuVV/7KJz+1vct1Bal+oyi/OQnPynPsc9YDgN4vS8zlepzTd/hYn2j2p8WKnHMIYccMnj3u99drrXYdfVvP3K89/IB2u89eMxjHlP6PLLqhxAi+YMf/KBs23zzzQevec1ryjtzyy23lPvc7na3G5x66qm3qU9Tv4x6NvXlH/3oR4MPfvCDtzmnK325K+NjYjgsh/FjFpEEsCV0fYDjgL6Qs/oo4OP0qEc9avAf//EfhcB95zvfGbzoRS8a/M3f/M3cMSZqqkjAREcpsZyWYmktCsgwpl0TqcktMRpyAB8PonXlp6zn7KtDAJP3SV/2w0e/9h7o64Ff/epX88yyXCIo8d4ZJuRvfetbZV3tpuUSRwU/Q2pjV9H18TExHzl+9BNJAFtC1wc45iCKwIqC8rD11lsPdtppp0L6qHOUB+Ynk58Jj5n4hS98YZmQmMKQOGYrz+g5z3nO4FWvetXgBS94weDb3/52/fK3wTARmYnbIgfw8TFM5DkzLrOvvny/+92v+L4yw1LAna/vi3R//etfXz7r/y95yUsGb3zjG8uxz3rWs4prwyqrrDL43e9+V7/8yOj699318TExH13vT4lmJAFsCV0f4CZFAKW+4PS+/vrrF7MvUxj1gfmLKeuUU04phJCZl/np9NNPL/dmWhM5fKc73amcb/KjhCwGZjKT6VIRmYnbIgfw8UEtXyrynHr3hje8YbDRRhsV3z5uDxdddFFRtc8444zS9/nf+YHks33eEe+Da4fP7N3udreiqq8ouv59d318TMxH1/tTohlJAFtC1we4SRFAqyNwaGfOou6Z7IAZjApIsXv6059eFA7KB/8naknA/sc+9rGD5z3veWWN1MVAhWGO64IPU9+AlC+21F5iYVjZQ9/1A2QhMPl63/m3vv/975/brq/r83z/nvnMZ5Z3AaGkdjMXB0QDSxFzn/vcp/gErii6PmF3fXxMzEfX+1OiGUkAW0LXB7hJEEBEjMr3gAc8oJAzyaD5ORksRPgy7z75yU8ukZuiJO9///sXn6d3vetd5RhKHnOXZ/X4xz++DDALkTuTr0mYctIGrrvuukKg5G1T92FKtE8uRMTY0l/S2NhmX/34aZbDDjusBP7Ut0+zTKr91DT9aRLK2DiIvrfQEm/6rCAoplxFfaN93CD0eT+SXMN7QPGW8Fm/pwYqnonjvUsnn3zygu/BsHCtLk/YXR8fE/PR9f6UaEYSwJbQ9QFuEgRQWg4K3rrrrluS2nKER5IMFK94xStKqhcmXgvfv/zlLy+TIB+nZzzjGeUYdeAjuN122xXTmcjghVJUIH7OWUyFmSbUVY43fl7qMUxBWtZbb70S6Rk54PQL25jK68dPs0Q6k/r2aZZq+5nuBUV4J0Ztv2dOGZNjsi0gfwstpec9oHZLZ6Qvf+QjHyn9Rd31dX1ePkDvilRHSJ50L9tvv305Jt4DiqB3yd+F3oNh0fUJu+vjY2I+ut6fEs1IAtgSuj7ATYIAwh//+MeyEojAjOqk9fWvf72og3yeFP5RlslCCuQrC1hpgX+gyXC//fab216FlRJMkJNYImscqOMWW2xRIpVHAWIg2e9ee+1VVFA+Xz7f5S53WeEJflR4hsMkNJ4kov2+b2ZPCpigCNtGbb8k4XxM24IfHvxWDzjggPqugr333ruQbO88c3tA2/04ivY/+9nPniPE+kIV1FH5MK0gsqLo+oTd9fExMR9d70+JZiQBbAldH+AmRQAFgTzkIQ8ZbLXVVsWXL8idCc6gIfIR+eP7ZJJk7mIu4zsITGEc36lDTUEgzGnI3yRWLRkXSAt1BxEcBUyWHPv5RwqEkS/RqicI0CQiPUdBGwN4tN+7sOuuuxYF9b73vW9RhUdtPwLGh066oTaBAPohEP038M1vfrO00eo397jHPeb6Ct8/efqOPPLI0n59wA8h27yDoG1UUTkDmYfl7ltRtPF9j4Kuj4+J+eh6f0o0IwlgS+j6ADcpAigNzBOf+MSS5uXFL35xMX9xfDfhIX8mbOSHaYvyYb+cZxRCEZLMxCKAEcTqUnBMvhQTRDISRrcBRIUvY1XVGRYI0KqrrjrYbbfdyvNh+mMGluzXEnorE9TTla0A8mO7/e1vX34A+JFA3XrpS186WG211UYmgCCfpCUHx/kuJgkkUKAHIhg5+/y4sUoNEy+FF8nTx6mGkj5zjUBguUYgi37U+GHhGDkyqegSQ/sxxJd2RdH1Cbvr42NiPrrenxLNSALYEro+wE2SAFI9mHEtayWSEdGj8ol+5AwvAIEfoBUSKISihU2gnhFlbeeddy6TpPPUi7+cCVOamLbBL5F/1zhAAPl+RYqPKBRApnBtXahQjuSKQxAUJsT6MaMUOen4ANa3j1LUIeqjbupYP6ZatBEZinYjw/zh1lprrbEIICBWXAraBgUQAYzvEbGTCkZuP8FOiK4cfwj/P/zDP5QgKeq3NYK9E+eff355nvpXKKR+KCDMSQATXUPX+1OiGUkAW0LXBziT1qQIoIXsTYYIm9UQRD2aAPkHUoH4NlE8qF62mSylfaHkSBdD/aMicvJXJ+axLkBb+GyZ7C1BR9mk1gy7UgMCiAA9/OEPLxO8/rDtttuWAIDTTjtt3hJd9YIkeGYI9dve9rZyfCyDNk6xeoqI1Pr2YYt7q4O6ICrqtlR9HH/HO96xuAd8//vfHzziEY8oJtBRTeBHHXVUefZIJ79CpKorfUR0uLYi2Mifvoz4UQnVU3J0ddb3+ckifT5L9WJ/vAfMvp7RmmuuORHFu+sTdtfHx8R8dL0/JZqRBLAldH2AmyQB5PtnArz++uvLNuRg4403LjnRTNwIk7xn++67b4mSfNjDHlYm8wAS+NSnPnVBB/u2QJm01jE/RPVXZ2ZtpmtEdikgB1QvCqJAgJNOOqlESlPDbrzxxvrh8+C+CAHF9PDDDy/q0oqkBuFDuSImYD5tvktqruAF6q50JYvhpptuKm2l+AIi+KY3vamogMMGOiDe1WcvUIjpFHlqKyK8CXJY+gEjECSA7PlxpM/7/pC++nvgmADi6HlNIt1N1yfsro+Pifnoen9KNCMJYEvo+gA3KQIoCGSDDTYoKhfVL9Y05Tcn7QvTLiVIagv3pJCI+KUkxXJwyKIo2wgcabtQ/pBYy9NRbSxlJ5CDmsVJn4JpIq+fVy9y3/F3owIxA4oEZr40yVsBon589bxx77lQWdE8gMy+zJ2+q9VXX734s1EnzzrrrNscG0U7IgiECfTRj350UYeR4sXaXz2//hykE0KIEUBuAr6r+nltFP17l112Ke1Tx3gP9HV93g8Aq+LU3wP+gIi+CHF+koJkvFMrCnXq8oTd9fExMR9d70+JZiQBbAldH+AmRQD5KyF61AvqjoAPgR4mbX6AcqdRB02MlCD73vrWt5bCJOkZMYNZI1UksEGmzeK5qC8zJUWHOmlC59+IzCE0m2yySdlWP7deECZqF4XU+fqEgBfXWCwPnucy7j0XKiuaB1AQi+9XkIL6CGSR444vZ/3YKNrvWAQYoRboIJWLZ7JY+6Ms9BwoqvqR70i7fGf1c1d20b/V11rAyHq8B/q5v3IANr0HfGMdK4G0/uYZUdVXFF2fsLs+Pibmo+v9KdGMJIAtoesD3KQIoMmKMrOYSVPwB3VvIZx33nnFzMrBvwswOfP1C1jmS4oaqhezsMl8mLQ0EQWL9FH+qD1IADLDPLoYxr3nQljRPIBWeBGVTXVjuqTMUbgWg/ZrK6IjCplLgEhx5HGp9gcWew76i6CKLoC6y9VBP14ownup98A7JC3SJPJddn3C7vr4mJiPrvenRDOSALaErg9wkySAS01aVELmr4UgmpT/H/+4tuGZMP1Wc/5pG0JIbaJq8uUbJicgXy4qlfxuCAyVU1AJc+ZSQRDj3nMhrOgAzt+OXyLCRamS3kdalsWg/czFlELEh6uAJf9GyQO42HPwlzK50BJtKxPeJ++CvrxQfZZ6D4Z5l4bFin7f00bXx8fEfHS9PyWakQSwJXR9gFuZBHApUKY49neBAFL/+GTVIWhBtKaI5mERiZDlhkOA+L1pq23DEKBx7rkQJjWAq4s6DRPEEe2n2oF1oZmRh21/YLHnIKCCGbVteJ8QYt/vuO/VJN6lwKS+72mh6+NjYj663p8SzUgC2BK6PsAlAbwtRJhO0qSI5KyxxholxQ0/R/1hxx13HDkNyiTQxgCujdLgaDNlTH48aWA8k0m233fWtIrMykQSwNHQ9fExMR9d70+JZiQBbAldH+C6RAC7YALmt4WoLGS+Gwdyu4nsRG5FwLo+H0BBISvyvMZBGwN4tN8KL4961KMK8ZX2hEl8ku3/xS9+UVbhkHanLQxjAl4Kk3iXAm1836Og6+NjYj663p8SzUgC2BK6PsB1iQDyLTvhhBNKgEFbkG9PkMYkEUvBSZdyn/vcp5g++cBNar3XUdDGAF5tv/VxrXeLDK+zzjoTb78l19pcJ9j7hIjqy+O2bRLvUqCN73sUdH18TMxH1/tTohlJAFtC1we4LhFA5OvQQw8tqULagFx/UncMG5k6LER1CnzgA/iUpzxl8KQnPamYPy2FNul7LYU2BnD57Jh9BdVsvfXWJcWJCOJpmMCttuE5+y7bgPfJO6Avj7tKySTepUAb3/co6Pr4mJiPrvenRDOSALaErg9wXSKAxx9/fCltKYDMkuNO2scdd9zc2sX8v6pF0l9qH+KHAPF/23LLLQf3u9/9yj7HnH322fVLTgWCKFb280XyNt9885I+RkJwq2LIC8kcPon1butA/lx/RaKlx0UogPqxd2IcTOJdCnR9wu76+JiYj673p0QzkgC2hK4PcF0igNYRtlZtGwqgewsiGHdZMfnwmB/PPffcwTHHHFPaEUUOu3ve855l6ThJrq2UYsUHqz3IoeeYM888s0S3eo6CCH7yk58U5QwhtT3+yuPns5UvEB1kA6mzHq/B2dJsruVzdXuUppVAHOPaPjvXNWKfa8i3554Rgeueivurh33qqs7yBOoDjosi6hnZ1c7Xve51xfdPGhfbTj311HnHOvdPf/pT/fGOBN+hNoo2HmapvknC++Q70p88m3EwiXcp0PUJu+vjY2I+ut6fEs1IAtgSuj7AdYkAUuAOPPDAVoJApH2xnNm48ByvueaaMjg+61nPKgmfrYLyjne8o1w71D/7kCB5AK17bGkwASG77rpr6SuUMuvDWiWCaihtjBUiEEyrrFg2TDoV26y+gUhaTs91PDfXFQjhs2vG9ijOkzOvuo0K6VifnWvFjdjn2pbzk3vPaihvectbSj20wbVdz2oeG220UVFAHatdlrzTHu1XTyt/aLtjH/CAB5RnYU1g+xzjWOc4dxIR2Mgkf8ulchROGhEFrC9b9m4cTOJdCnR9wu76+JiYj673p0QzkgC2hK4PcF0igG2mgRG1SQkbFxH9uddeexVyhLgJRrB9/fXXL+QH0ZGr7sgjjyz7pCyJ9X39rzztaU8rytivf/3rwSMe8YhiNkVkjjrqqJIIGeFDxiyDRq1Dun74wx8W9U30K4Jlu8/S2SAhgjCiWFfXMdVtvn959JyDBNt/1VVXFfXMtd/1rneVe/Ld89dqF+qC2KqHe1MzYe+9957XfvstESgJdARnCIBB/ERD22ftXPuc41zXX1FQJxHblW0GDgKYaWCGQ9fHx8R8dL0/JZqRBLAldH2A6xIBbFMBXNHnEBM/05/1XBGr2M7nDVkSXYwEIkmnnXZaITz2Ud0CFDckT+CIfa6FEFLt9CX7Nt544xJEYVURBYG0tBr1D9Hy2bq7jqdEInBR3vCGNxSVrbrNMY6l/DnXfomaqXSuTb20tq1ADnkMHUsFfPjDH17qYV1bfo1Mt/X2Uwij/SeffPLg2muvLcfus88+RdVEcpFBQDpd++tf//rc8xgXJirkeWUjFcDR0PXxMTEfXe9PiWYkAWwJXR/gVpT4BCYxafGVa8sHcEWfQ0z82vDmN7+5+Mt5Fky6TKeAFCFWVMIAgvS4xz1ubnUL51ozV3QwUzBy5nzEkfkVIaMmMhsjfIih61G7fH7Na15T7sn/TeFvt+mmm84V5JFaV93mGMdus802pS5UO0TTQC8q++Uvf3kxzyJUYQa2Leoh6vbpT396qT/V0bF8BPkOCnaxZFxA0MeDHvSgOd8812Me5jtojVzX/trXvjZ3/Lhoa6IKH0D9IH0Al0bXx8fEfHS9PyWakQSwJXR9gFtR4hOYxKQlMKCtPIBMwMyu40KAB9KGMFHZrPpBufOX+mX7+eefX4gVs63nZTD98pe/XFQ35lXmTwSQCkgNcx4SgUwhFQqS5C+CKbiiSiaZVpE7awy7FhLyl7/8ZV6RnNj969sd6xznytPHbO3+vgsmWgSUT+NXvvKVcm9kV+CHumgLFY+i5xj1R0K1aYsttij308ecc84555SUOOrB5E4FdYxjnUNZRCJXFOqmb69suCcyry9nHsCl0fXxMTEfXe9PiWYkAWwJXR/gukQA21wJREAD4vbud7+7FFGk1Dl//U+Jk8KEuZbZFCHabbfdyjb/b7vttsVM+rKXvawUplKKGRUMieL399znPnew+uqrF9OqQimjoCG9/OiYU60OgkxRyPjbAWJJIUO2qvje975XgkLUk2pIvbvTne5UEk0zs+60006Dj33sY/MKcsbUW9/uWOc4t16YcEUuU+6cDwhqkFJpXpA/baDeUQcRyYsuuqgQVgRQEmhkmGn69re/fTEfa7t0LY5BCD0bCubOO+9c3hv3iu+i+r34DuL/6nbXs8/z811q18pG+ILmSiDDoevjY2I+ut6fEs1IAtgSuj7AdYkAthkEgkQhO3e4wx0Gd73rXeeIVJUE2e6zBMYUK5Gv/OIEMljiDElkthUJy+wZpmxEDpmRCsb5jmd6pbQhnkCxYkpliuVD5zvZZJNNSlAGRcy1BEdQ0ECgxt3vfvfbkLVpF4SNUvqSl7ykmJ21k98hM64AF/Wn6CHD2gT6mPY6xzNCAC0N55kiSsA0TGmMZNEIrYAYbZQ0O57dYsVqI9X/q6bnlYVwBcggkOHQ9fExMR9d70+JZiQBbAldH+CSAN4K9za48UFEcihavjepXZhIA0yWTLIUOioTBZDZEhmUBxDRu/DCC+clOKZMIT985u52t7sN1lxzzcFqq61WFMSqCdc1fRevf/3ri3ooHYr0LP7yy4vIWdvWXXfdcj1kC9kJM2qQQtf3lxJXJ0r1ssoqq8z7i/wy0yJ1cW2Kpmsjbs9//vMLSVMXz4lyGQTtdre7XVFxq/n3HKOtSKugFccolEjqYLX9zOTaSfEUSIEICkJBFqmOonvrJmxE89vf/nZRWH0nRx99dPmO2vIlTQI4PLo+Pibmo+v9KdGMJIAtoesDXBLAW5cPE1yBaAmSQE6QGUqe9CTMmtQ3/m/Mk1Q7JMRKFlUiRbGiBCKQztEez5ePHzXv3ve+dzF9MoPy1UOoECLHUML4EfK7QwARQ9fzLARYxD2obZQygzDTq7rYztz5hz/8oSSipiAySyNorkWNo4YpglBcI/5XF6RWvZlRg9DyX7M9ru1eFD/EMMhlFG2ghD70oQ8tfo/aof3apG0II/OydDbubT1g51kL2P2r7ZfjkKmYGdm94h7M246zH5l2/Sjq5R6OQ0R9T75LZusVTSo9KpIAjoauj4+J+eh6f0o0IwlgS+j6ANclAthWGhgqEpXOKhl81SLlyl3ucpei6p1yyinlGTHHCnKwUgZTrP1IFrJBpUKgpESJaGbLuzkPaRSggXAhKZQ1xA0ZouY5Rjn22GMH3//+98t2vnDImpVCKGjMxtRDSprAkUiVEqbrMHcK0HAOAuke/A/VJ0AtQ5ACchHyT2R+9lnb+CZKQxPkMq7tur4jRA3Zsw/JQtiqSqM6aUu0yzPznJBrZm9EkKlcuhn7qu2n5CG48hIilaKEBcb4rJ77779/iRT2nUTxHSGYnqu6eUaIOyWxqt6uDAQBzDQww6Hr42NiPrrenxLNSALYEro+wHWJALaZBob/Gt+0IDFrr712+cssSvHabLPNitnVtrXWWqvkr+MLiNhIx+IzokQNQyBdL4gWRVAfQLIcJ+0KU7Fl4SLpsfx41DpqH1JIyUNiJG52HefzJZRnj5k0cty5jzrF6hkCMexDlOTaQ4iQqkCdALoesugYpluf9VmqqPtVr+26F1xwQSFnobipl2eB4FL2kFQEloqoTXEekzES5zi+lO6BGAfZp146xzbkkILpOSHCzL8U0zBRK76TaontAkn8RUgnsaLIqPA+ZRqY4dH18TExH13vT4lmJAFsCV0f4LpEAI8//vhS2kgDQ+2SBiWiSZlCKUj+KpQq6qD9/kaEqu0UKWoWMzJFTBQwMofciQK2aoZBU549JBIJZCp1XSTlxBNPLClRmGGlQnFfhIgZESiPlLlvfOMb5X/5BH1v4N4ID7WQmdb99De+cHwC7WcyjWhZJItpOf5HWC07hzipszqJcEZetDGu7Z6+FylOrr/++mKKVU9EJ9LAHHzwwYXsIm2IIAWMLx9zuefk+TDtItqWg/McHe8YfdA56sBkrg3qQY30N74HxDBM1dWCfMd27fJdthUFzP9QP/ZcxsEk3qVA1yfsro+Pifnoen9KNCMJYEvo+gDXJQJIfZIvrw0FcFJ5AJmRBSMwR1Ku/OXXd8QRRxTlTjAHRYyPnTQpSCKCJsUKPzcECTESEEENUy8EEsGRQ5BfHoKKtN1yyy3lXkgaIicvINWNeVY6GdtF3y4VQauO/BHd33nqi8wJ0ohrM2erx0JmTUSOLx7zqzYyjyOgrh15ABE9ZJZvn7ZTK7XHMY51jnQ03ABWFG3mAfQO6MuXXnppffdQmMS7FOj6hN318TExH13vT4lmJAFsCV0f4LpEANtMBL2izyF8vyhigjCYbuW3q64EIoqVmhZKHtiHePHds19fQaKQO4qWOp166qmFiEmxgvh5TggXiKy1z19wPDIqEpapmr8gMyt1UEESHRv/M/MipkgnfzrL1KkD37kIAolrG/gXekYxKVg7mPromtqP3PEJDLhndSUQCqgoY8cyL3t2sWbwiqCtiUo/yETQw6Pr42NiPrrenxLNSALYEro+wK0o8QlMYtJqMxE00rkizyEIIJ86ZstQE5mWpU5hjhREEWsBI2LaKzDCtgB1L6J/q0SR2VRUMh9JiPx59SAQpmQKIz8/6Wb49lWvw0QcpmWwj1qFuB1++OGFMCKp1113XamzaweBVSeqXRO0X7CKtiOT0X4mWSlyPIf6WsC2USsdD1Q7/o99XwvYu5CJoIdD18fHxHx0vT8lmpEEsCV0fYDrEgGkOAleqBKUlQFqFyI1rs8WMOVStUTx8nVD8FxP3jom3qc85SlF0aOmiXb95je/WcgWVc851CImUhG1Ak74sYkkRYY8D+ZRSaqlTUH2IsDByhdIWvyPhCJ/BmmJkZll/c+HT6FMInbxv2fO7M6UTDlEYBFS5uwIAnEPJmBETV9BDuN8SmVAG9xX2pkzzzyz/O/75NOnnRGMQvFjZkZ0mXwd41mpm2eHKK8oEFDP6c9//nN911QRBNBzZeYeB5N4lwJdn7C7Pj4m5qPr/SnRjCSALaHrA1yXCCACwHS2sk3AiJvgDUEPnsc4RfoX5A6R4nPHz83zEOwg+hUZ4xO41VZblWO33HLLkkCZAuYY+QEphXzxkEBBExEAITAi0qz4y2QcZlV+ebarO0JGWaO4RYJouQoFnIhqVqiCglDif58tYxfHUudE4SJvAjtsRz7dV6CIFC0bbrhhMS+7lueG2PHbRFS1P3ICUjc9C+sKi+DVdvWUBoZpXL5F+0QPe1aemeP5Htaf76jFiiPqhqyuTLg3E7C+HCuhjIpJvEuBrk/YXR8fE/PR9f6UaEYSwJbQ9QHOhNUVAggc56knKxsUI2vrehbjFOoe/0XmUqZO16PG+f6RGmqXdClIFwKFxAmWQLCQKaZfKiEzrNQufAIVCiCiGAEbTMH85JhS5eoTcYuYIXJxzCSK+9SXVvO/FUEQP/9TJBFGpFBeRM8BMWVORiKRV2lyBJYIJNFm5Daui3BSOx1LYfTM+CFSP+vPd9Tiu1yRoJ5x4X1aKFBmWEzqXYKuT9hdHx8T89H1/pRoRhLAltD1Aa5rBLCvAwxzrQAH5taq8oMQSv1CjaJwUccQQYmjpX1B/uSxixyE/qe8BZhfES2lSs6QPxAwctxxxxXy6TymYL54CxXKIjNyfXu1bL/99nOrd1Dp5O5Tb8EbyBtzrpQtFL1YHznqw+yqDUEYkTv9ggqpzUiupeZE/TKNI4AUP2lvgIrZhu/epDCJ92lS7xJ0/X3q+viYmI+u96dEM5IAtoSuD3CTmLBgUpNWXwcYz5Hix4+O+sQEKZ1J5NKT1Ji5k+lTzkBmXeZeamBdfbNahvWEPQt5+5Clqhq3xhprFB9DARkIk2euhF/eYqXuA9hUKHDIpLq6n4TVyCqzsroxVyNxzLwIoELBUx8rltTbE4VvINUTQWQq9hxinwAT92HSXtk+oJPEJN6nSb1L0PX3qevjY2I+ut6fEs1IAtgSuj7ATWLCgklNWn0dYDxHCqAEyUFqKHtvfetbC/HhR8c3r0qIqGsUML5/dbJEFfMcKGZ8BJEjihkTLOIoiML+UQtTNXWvvr1aqIoIKlM8ta9ar+pqHFG0zXnqVt+nT1gZxAonsQawQhFEIgV9MGlXV/PQtr5iEu/TpN4l6Pr71PXxMTEfXe9PiWYkAWwJXR/gJjFhwaQmrb4OMEEAkRc+eUykfOX4uQn4oIwhPVVyJBhik002KT6CTLxMxQgWpS1UMP6AlpqTSFqhLlIEx0V9KbgmaEcsUUeZo2YijYJS1NnavFY7YapVb+0E6WTUXRu0xT6kD8lVquqgZ+F/eQLtQ2oVpJA/ZF8xifdpUu8SdP196vr4mJiPrvenRDOSALaErg9wk5iwYFKTVl8HmCCAAh+s+Sths2TNTMBW1aAMxrJt/OkQJMmaTzvttGLm5WcnQIJ/nkhe50uPwvQaUb+K6yNKki2fd9555XmNUqxUQgWsb68WaWH4CvqM/PkrZx8l8973vncJPBHcwZQcvonWB/a9yXHIh5B/oDappzYKEpFfMCKOfbZCiGfjGXlWnpF72NdXTOJ9mtS7BL67Lr9PXR8fE/PR9f6UaEYSwJbQ9QFuEhMWTGrS6usAEwRQEATfNiZPJltkBuHiO7f11lsXk6r+wCwqsTPFUH495lNBF44RNcsEK3CE2RjpQgxd03rCfAD50iFQdfPtUoV/n/vWt1eL68of6HP8tSyd9DWUTWZpBDB8+Ch46qrOyCrFkvLJz0/bBMIghcza1Mf73ve+pZ18AZmbmck9K5HSim19xSTep0m9S9D196nr42NiPrrenxLNSALYEro+wE1iwoJJTVp9HWAiCEROPD5tiJ1Ez9oiaILJlIoW6wIz5VLwEDtk7mtf+1ox+yJVCJaEzJZEY17lJ0dtc47jmGHHxTXXXFMST48DSZ+RNySOSiliGJlE5NRVnZmHKXraKiDmda97XSG9FEX1B+SP6ok8Mo8jjp6VZ+N9cV5fMYn3aVLvEnT9fer6+JiYj673p0QzkgC2hK4PcJOYsGBSk1ZfB5gggEgQAnj11VeX7dLD8HdD9BAj/m1Mu/L7UcaQO4pbwDFMyJ7nL37xixIoQjmzmsa73vWuEgzCT876wHImWkO3bsJdrDDHIm/17YsV95CTUOSxfIMvfOELi5KoTlQ+ARySH6uz9lI9o/2eizZaEo5f4Q033FBMw47hK0lVjLQvyKn3ZRJLwbWFSbxPk3qXwPfX5fep6+NjYj663p8SzUgC2BK6PsBNYsKCSU1afR1gggB+97vfLSoYwuRZUL+YRJk1pVaR149KaPk5S7/xpxM4gUABkscX0DNAriI/IJIl7YrPom6phYgj9ZD6Nmyh2r3gBS+4zfbFinvw0UPgIu+fyGXk1Gd1VFdRw5Q9ZA95te4wX0Bt9Cwsy4YYWhHlrLPOKkogU7Jn5FkgmvwkqZx9xSTep0m9S9D196nr42NiPrrenxLNSALYEro+wE1iwoJJTVp9HWCCAFLXfN9IXCQ/5gfHzMnXDcER4IEgaitzp/VwRfYyl4q0RaAAwZMCJtLFIJZBAJExQRPOpZgNW5hm+fPVty9WKH3WBZajz73VYddddy2+iuomqEWbELyDDjqokEA5BLWJ2vfpT396cMkllwx++tOflnyB/Bp/9KMfFUKLEHtGjnUO9XQSawG3hUm8T5N6l6Dr71PXx8fEfHS9PyWakQSwJXR9gJvEhAWTmrT6OsB4jp4BBZAaJqiDadPzELkbwRECOKhi2kgxY0q1iockypZ8Q6pinV9mY0EXon4Ff8QKG/wCL7roornVPxCrYctRRx018jmOP/744wcXX3xxqYs6VOukjs961rNKnfkXIqXWDlZHqp41kgWTMA9LJ0MxZApHJpFdx7g2k3AQ2r5iEu/TpN4l6Pr71PXxMTEfXe9PiWYkAWwJXR/gJjFhwaQmrb4OMJ7jb3/727IUm0AO0cCf//znyz4BEIJA5LxDnhBB/YKq9s1vfrMcIz8f3z9qGBUMYYqcefLlURERyyCACJN1c92P+XjYYtm4Uc+Ri/Ckk04qa9wGART8wawtQjnqSV2kYCKD0rnEkngIHZO1Z8LHkR8hX0bn2AaenTWFRQszg/cVk3ifJvUuQdffp66Pj4n56Hp/SjQjCWBL6PoAN4kJCyY1afV1gGHm/OMf/1jIDv82hCZA5eN3Zy1dqpfcfsyqlL4ggOB8ahiTqmPWWWedQpIEfTAF+xsmYOZY5z/zmc8sZuS6395ChfI2yjmOQ8oQtaoJuF4ndVVnUcLM29oSEDUsTyASK5XN2muvXRRSKmF11Q/neHaST/cVk3ifJvUuQdffp66Pj4n56Hp/SjQjCWBL6PoAN4kJCyY1afV1gKHmUcqYMJk8I62L54tAhUrGJ45p9xGPeER5XlK+OAaBRLb40gmOoIaFukZ1c3xcQyDGD37wg+Jrh0xJr3LIIYcMVQRkjHIOn0bH82GUtJkJO+qhTqEIUikFi6g730Tt1yZt017+kFY82W677YrZWGEKRgir7ZfuRmSwZ/enP/2p/pg7j0m8T5N6l6Dr71PXx8fEfHS9PyWakQSwJXR9gJvEhAWTmrT6OsAI2DjxxBOLKkcFFOQg4MGzRZ74922wwQYletZqGMylyI5gCscoxx577GC//fYrx1IBmUqDbFUL4iRhciythnQxOw9TkLBRzmGSdrxE1u4ZUcn1QglUZ4EdSKO2RLu0lfLI/4+Po1VQpIbRPiS22n7PjgmYT6RI6b5hEu/TpN4l6Pr71PXxMTEfXe9PiWYkAWwJXR/gJjFhwaQmrb4OMJ7jtddeW9Q/PnDUwFhz13JqVsrg2yedC3XPPmQxkiM7F1FEskTD8q8LckXxkyom0sAIluBXiDxS1wRSOH6Yog6jnOM4eQj59rmne6sDIsunMdLCKI63jXkXsdMmYOaW+kb+QJHOVETPCZkMH8A//OEP5Ry+hSKD+4pJvE+Tepeg6+9T18fHxHx0vT8lmpEEsCV0fYCbxIQFk5q0+jrAeI7VKGBkTqqWiAJG6sL/jRLI980SccgO5VCaFD50jkOOAJFElpzjc9UkLMeelUSoiL///e+HLmecccbI51Dwzj333MEVV1wxF4msLurE908dmblBGhjLuokMFjQiv5/2MAtrMzJp/WD+gBRAap9j9EHnODejgCfzLkHX36euj4+J+eh6f0o0IwlgS+j6ADeJCQsmNWn1dYDxHOUBZMJl6qSESXjM1EoBpPrJASiXn/QvVvG48MILS2AF0iNARKqYl7/85YUU3XTTTSWNzIYbblhy7W2yySZlH/IlECN87JhSv/Od7wxdJHSun0OhE/AR//tsW+wTsOI7sT0UP3VBWNXN964uVvJAAB2vjnL7eQ7ae8EFFwwuu+yyuTyA/An9RYIlgnasczwLJLqvmMT7NKl3Cbr+PnV9fEzMR9f7U6IZSQBbQtcHuElMWDCpSauvA0wQQOSFmZXSJqJXzj9k6bOf/WxZhYMv3De+8Y258ywHh/iJnL3qqquKqVUKFTn0+N9RxRCuVVZZZS4ClxkWqdS3mIxFGQ9bmFnr5whgYYqO//fee++i2MU+CqY2+VuNRFYnnymAiC6VEGm1zNv5559f2o8ARl5D+N3vflfWRkYGn/GMZwze8IY3lHY6Fkl0H0Szr5jE+zSpdwm6/j51fXxMzEfX+1OiGUkAW0LXB7hJTFgwqUmrrwNMEEBrASNxv/71r8t2Ub0CL5hLkTYEEMGyri7VbOONNy7EKmA/gkYZRB6rUbdREED59PQrgRr89BYrEjnztfOXado51W2KvINxvM+2xbl89xBH9wwfwGqhClr5RN5DbVGi/a5B6WNGPvnkk4tf4KMf/ejiA8kUvv766xeiCfIG8mtME/Bk3iXo+vvU9fExMR9d70+JZiQBbAldH+AmMWHBpCatvg4w4QNoGTMmVgTP/0y9kkDzfRMYQgUU7cq0+uUvf7mYP62e4Vjr50oTQxlDACWGFlnbRLgEVVDb6ubcekFIpVTxTBE0fymStvlfzj2qZZh8w+zr+j77K4BF+3yuBn1EUUf1sNKHQBGBHtH+Aw44oJiEtdP5QPFzjHO1cf/99y/HUk1dJ4Jn+ohJvE+Tepeg6+9T18fHxHx0vT8lmpEEsCV0fYCbxIQFk5q0+jrAeI6SPzOZUvyoW56HZMkIEl+5xzzmMUUpk+duyy23LOleRPbazwfOORQ2KpjnwKTKd7BOuJAwvoaHH3548aHz/TUVZtUzzzyznCOQhDlZihbKX5iTFcQrAjGaClXysMMOK0StSZFUR3VVZz6OAkSi/fe4xz0G97nPfYq5mKJJRZQsmk+jc312jGOd49lZqaSvmMT7NKl3Cbr+PnV9fEzMR9f7U6IZSQBbQtcHuElMWDCpSauvA0wogFQ1pk4mUCZhPm3MnHzkEB65+wR28PuL5dCsiCFi9sorrxycdtppxTQM55xzTlEO64QLedtrr72KYkhFXAhUOGlVnIOIIoBI2I477jgXzbvqqquW/x27EChyloTju1gljlGklRHcAepu2TjtV3/m5k033bSofiKcEeAgfoiv9DaSQzvfOZa3k1Oxr5jE+zSpdwm6/j51fXxMzEfX+1OiGUkAW0LXB7hJTFgwqUmrrwNM+AAyrcYauCD1CdIkkTLSRemzggYiRomzRJy0KH/+85/L8dKuMO0GBGPUCZc0MBQ7RJOPXn3t3ij8/eKcRz7ykWUN4fq1ojDJ1s+Pop5S1bhnEMdq4TMYEOwS7be0m3WPKZ/Mztps5RMqpwhi9RH9LG2OPIDR/j5+/4FJvE+Tepeg6+9T18fHxHx0vT8lmpEEsCV0fYCbxIQFk5q0+jrABAG0nJmIWgEfBx54YMl3F0RJ9Cvljyom0lfCZISIeVSqFIog3z+EirrnWQgoqRMuiiFyx18OqdLHmgp/wvq5CxXqXP38KNRLBM49m4JARP2qqzrLMaj9Utn4HimMjmHy3nnnnctycczRQXztkxCaL2K0H4nuKybxPk3qXYKuv09dHx8T89H1/pRoRhLAltD1AY7JLiI2VwQULKtD3HjjjfVdI4F61McgAAEQVCzmy0iPgixFCpUm4mSSFyAiPyCVLLYjS6997WvLQPvMZz7zNudRFJEkEcZIlbQpTcW5zM1y60URdewa1gRGIG0TpSvwpH5+FPfg2yixdZMJ2H3UVZ2lfanuk+aFuoiM8vWL7fz9qKJIJZ9HpDb2IZF9hR8AK/o+TepdAu8TUtpVdH18TMxHEsB+IglgS+j6AMeEKEqzrvqMWig7THoCAur7RikiTilO9e0ru/B3M9gNWwRj8KMT5FAlQHz+Ys1exVJwfPEEhQgC4RtnfVymYaZdefaQQuohNJmAKWeAcC5GlkUdM8EeccQRcwXhcw15+ASI2MYHUD7ChYDUSPIMVaIWJUzA6kwpRHa1UXvC/89fwSBWDnGOY7RD0Ift1euFojhq8Z3Vv8eVXfRdfbi+fZQyqXdJ8W53eWk9dezy+JiYD+9ZEsD+IQlgS+j6AHf00UcXM6M6rkhh0jTpS+tR3zdKoTYJFKhvX9nFpGmgG7ZY/cOSZ8y7VLZtt912sM022xRfN/sQING7+gNVTFDGj370o+LHRwGjsCF78u1RAKl7/O+og3Xyh2BYReTII48sxLNOhIIMWYmEyVki5igRjOKe2mgb8686L0R63QNRdE/kNEy3UdRRXdU51EufrTriPgI7RAkzh1OcPQt+kOuuu24x+3pGnpVnps5SxtSf7zBFe+rf48ouTPJIdn37KGVS75KCTB911FH1174z6Pr4mJiPJID9RBLAljArA9ykzFZ9NQEzj1q+TZ4/UbGib5lZmYApZFRAyaD5+lHJEEXBD4JE3vrWtxbSIBpWVCxfQSTK5I0MVckWBZG/HLOeBMrIZZ0IBRlCrETbuq7inszOruM86/fa7hjHLkR6Hete7sn0TL10DddCBpEedVVnBI5J2LrH2iQvIHXRvTwX5l3PxT5qov8RTOd6ZqKepZ3pK7pmAu46ZmV8XC5IAthPJAFsCbMywE3Kcb2vA0wEgUh2zOcPsZOiRVsQOkrXD37wg8Gf/vSnEiShnHfeeYUUMfk5VvQvkmYlEAmckQkmUrn3mHLlDLQ/sBRZFr1bNQFTHJFQ5O2ss86aZwJezExYJzXInbpQqJh5KXnqoc7ILDN4tJ+PHxKLCGqz9jMVa6t68Bl0jGOd431xv76ia0EgXcesjI/LBX0dn2cdSQBbwqwMcJOatPo6wAQBRIIQwKuvvrpsFxxyv/vdr6hiVEJESg4/y51RxgRiVPPeIU+IleeJSFDJBEswESNezMeXXHJJeU6SM1Pm/C/pc5hsrT4iIpcpkTmdAkmZtBybayFe1DY+gvZR8FxX/a+44orbXMc9kEfb3Et/RlJdj7JJBZTHUJ21lxoY7fdctNGScNov12GsYiL6V1LsSHvDz9D7kkvBTeZd6gNmZXxcLujr+DzrSALYEmZlgJvUpNXXASYIoGXVrIbxs5/9rDwL6hcVjjJmmbirrrqqJIv+y1/+UvLqMYcy+/KhA+lTkDbPgHkUueIPJm0KP72qfxzTqXV6kTsm1dgusIdJlekW2aMgMilWTcmKbXe+853LZ0mZBWsw1VavIxCBXyYSGNv56qmLOglWUEf+j/bxYUT2EMfLL7+8kEtt9CyYNm2nFsoRKDKY+qhNngUSy5/wa1/7Wv3x9gZJAEfDrIyPywV9HZ9nHUkAW8KsDHCTmrT6OsAEAbTUmu8biaP8IVWCH6hxjrE6hsALBFFbmTt32mmnEgUsXYqAHGQxgLzx0aOaIVxVU+21115bFEeokiZK2g9/+MOipCF37s1vUP69IH/8+CiPCJdcfWHSRUCr17H8G9N1RAED0zJyaa1gbZQaJmBdYyRQYIk2IXkCPyiHP/3pTwfHHXdcIYs/+clPyn7t8Yx8dg71FFHuK5IAjoZZGR+XC/o6Ps86kgC2hFkZ4CY1afV1gDHxewYUQMEdkjwzbXoeAkFEviJ4TJ6bbbZZaaOAEMraCSecUAiRtDBSwgQJO/7444u6RmWTzsNqHoI2BGIoTMiRo4+PYXU71Y06iOwJ8BCNG/5/ims6h7lW6hnpWUQM16+PFCpIa2znhyiKl+rIB5ApF7EDRBWhZbq+6KKLiqqH8DE1Mw/zeUQKRQlTH6mFjrn44otLahjnpgl4Mu9SHzAr4+NyQV/H51lHEsCWMCsD3KQmrb4OMCb+3/72t4MPfehDhSBRyZh6QQAEsiTCdZNNNin+c/oF4vbNb36zHCOgA9GihvHHY9YVUYus8bNzDaoic/JBBx1UilUzKIauweQb26l9ViKxzfmijg8//PCSwiUIoJQ0Bx98cFH3EC9Jmt2bSbZ6HQohv0T+e7HdMdK9UCrvfe97l+upqyAOCh6iSXWMJeEQOsTRM9Fu9/HXebaBZ8fczARdVSH7hiSAo2FWxsflgr6Oz7OOJIAtYVYGuElNWn0dYJg5+bUhOyJsEZoAlY8iSIl79KMfXQpFj6oWBBCcTw1jVkUiYxUQCp28gVQ112F6VSh01EZKI/IY2+Xfo+whfs6nOtrubxBAZttY6cN1RfIidQhYXIeJGImkFLpXbGf+dY46qZvrWUlEnSV1Zt7WlgCfv3333beYwi19hyxSLl0Daay237NDPPuKJICjYVbGx+WCvo7Ps44kgC1hVga4SU1afR1gqHmiapkwmTz55FG9EAKkCkmSww9RYgZlQvW8ECLHIJD8AZlGpUbhG0dNcx4zq+N9RpwOOeSQUph5ETfnOza2UwaRLSbn6jkSSFcVQKRsv/32KwqgdDOCMUQHx3W0AbFE6qhzsT2uo07q5rM+LmhE3SW0dq42qZv2IrXuQcWkhD7oQQ8qfogim6vtF/iCqHp2Usb0DUkAR8OsjI/LBX0dn2cdSQBbwqwMcJOatPo6wFDLTjzxxKLqUQGlTTn77LMLGZDnTi5AwRzIFNInhQqywzfPMcqxxx5bCJmADCqZv0HYoojcRagU17ONTx3/wNhuVQ0+h7Hur7V+bfc3rsNvDxmlMiKmlLz111+/BGPEddTTd+p49Y7tTRHFUWf3EAijLdEubZXcmXIYfoxM2vwbBYxU2+/ZMQHziRQp3TckARwNszI+Lhf0dXyedSQBbAmzMsBNatLq6wBDdQPmV4ofNTCSNCM7zKj83QR58Ae0D1mUHBlE9CKK/AMFifDh4y+IXDHX2oagbbDBBsXHTmFydT3nIJixnZLHzBwE0D7kS5BJlQAyJ1P86gTQNWxH9lzH8nF8D+P66uBY96Ykup66qrNIXtdF7LQJmLkFhwhK0XbPQqSv+4YPoHWNneO+iyWl7jqSAI6GWRkflwv6Oj7POpIAtoRZGeAmNWm1PcAIlhCdayKvFj5wiBaCxzzpb3U/syV/NkEZSA4yJ3BC3jsBHUyfEiIjP4I6HIvoKCJopUnhI4hAMaWC7YjaWmutVUywSCDFrurrZxURPnOuvZAPIIVwt912K/6CQQBFATtHLkHkTxBI1QdQnRE/fZcSKPAjro8EPuYxjyn3llpGHal3gNBqv9yFkkPLb8gkTiHVZucijxRBKW6ofY5Bmpzj3IwCnsy71AfMyvi4XND2+JwYD0kAW8KsDHCTmrTGHWBuueWWuRUyFJ9FoVa3LVVOOeWUYlaVfiXMklGkakF6mFf5uR199NHz9iNSjkH6KF2OYRKlnIX6pV3MwiKFrbLBZEw5FGnLJ04aFqQt8gDefPPNRWHjP0dFQ56cG+AjJ+8eVHPn2X7UUUeVc5A9PoDuhXgFAXTdI488svgOygNILeQzSJUEK4Iw3Vq1BKl1bACRQxTdUyAIhTLMtQigABfbqIkUPYTaM73ssssKqZUSholXGhgBMkixY52DAEql01ckARwNszI+LheMOz4n2kUSwJYwKwPcpCatcQaY6667rgQmICbOVShY6lPdtlRhtpXWxGoddYhspUxR9Bzz+9//ft5+Oe5+97vfzSWCPuOMM0pEL9VQYIhrI2vOE/AQoCxS2lzffZEthM1zcA1EjVpHQaS0MbvqU4o2I6SUONeobhdcYRUOZE/wBRWw7reHpMZKIFRG/ntUyOq6vIgrtU7ASVwfUVUXiqEgEMTt9NNPL3UO9fH8888v7bdqSJBKQALDXG4FFClv1NWxF1xwQSGkIpP7iiSAo2FWxsflgnHG50T7SALYEmZlgJvUpDXOAOOezKrhcwZSilCnqtuWgnM23HDDxjaoF9MvpavpGBN/rAWMxFnzF0TEImDVtYARIIRJ+hbKG9+5ALKFNCFBn/3sZ0ugRJW08e+TPFlhZhbI4X78AWM7Xzo+f/Y5J0gYnz5kzTZmX+obohzJpkX1IpgUOmZo1+fPJ3+gz3F9dajWyfnaos7UTImvo/1Mz4ila5588sllyTcRwtRSy89RJSPvH8VWUEyagCfzLvUBszI+LheMMz4n2kcSwJYwKwPcpCatcQaYpns3bVsKi52jXnztrr/++sZjTPzOZxblW4fg+Z+pF4FCxiiAzLoHHHBAMc9S2pAp2x1LXaTUiZJFgiSSRpBWWWWVObIlhQqTcuTpo8zVfQCZbiVi5rfnHCZWKV/0RQqfbZRFxwpGQeD48iF/zMwRtOH6FDqmYcqe421XhyoBpIiqqzojo46P9msrk7B2OpepXioZZmHnSjNjuTnHUjy1I4Jn+ogkgKNhVsbH5YJxxudE+0gC2BJmZYCb1KQ1zgDTdO+mbUthsXOGIYCSP8sHSPETKes4KiSlS847wRTMowgU86moXOlT7OcD5xw5+SI1jHvyxauu4St5cvgsWu+Xsse/j5oX/ohMwo6lVPrLr84KHpQ5JuMggFYBieXioiBwcR2pbKSqUQ499NByT7576uhY6iXfRcTVPudQABHCaL/gEilkkFgmadfnFxkqIp9LxzjWOZ5d1c+xb0gCOBpmZXxcLhhnfE60jySALWFWBrhJTVrjDDBN927athQWO2cYAuh8ShhTJxMokzCfNioewoe8ifJFCvnRUeaC1ImYvfLKKwennXbaPB9BwSbhp6cw3YqqBX5zVER+hczFAQRKihV+fc6JlUCQT/WwjSnYNupclQBWyRe/RGogVRPJA2Qw6iM4xT2OOOKIuXPU/aSTTirtP+ecc4ppWk5Cy79pu4I0Ir+IIT9AiqfgGOcIxKE89hVJAEfDrIyPywXjjM+J9pEEsCXMygA3qUlrnAGm6d5N25bCYucMQwARPn6CsQYuCKZAtihbkiCL8EV+qGFy4L3gBS8oJtg///nP5Xhkjj9dgMJXJWhRQO485My5VbMpv8PqsbESiNVBQnmjANrGVFw9loIZ0A7maebja665pmyrmqMFnlAD+S0GENFoP59Kap/oadHN2owIykuIiKoDMig9jbaA9o/6/XcJSQBHw6yMj8sF44zPifaRBLAlzMoAN6lJa5wBpuneTduWwmLnDEsALWcmFYrAjgMPPLCQriBMyM/b3va28hfxEmDBLIxU8YmjCAoQ4cN3+eWXFyKBZNXJnwhcvnn85ZqigOsRv4gnFZD6xjxrG9LJNBw+gVEok3Ed0cTUOQWBc0/3jmOZrV1HNLG6qjN1UvsFdvgepZhxLMKHiPKH1H5rDFMpoz2ebbQfie4rkgCOhlkZH5cLxhmfE+0jCWBLmJUBblKT1jgDTNO9m7YthcXOGYYASgNTVd8QHKuACNSoEqcoroMQ8ZujksV2ZA451G98dh1JoPnLMR/zmUP6gkwhk9LEOF6xKoeI3nXWWWfumvwMRUpXVwNpKgJB4joIG4KquJd2uLc6qIv7qBtlz/HqXCesEUSClDo3tjP/UkXVnZk8yKBCNe0rkgCOhlkZH5cLxhmfE+0jCWBLmJUBblKT1jgDDPOk9WkFTATGqc9i5wxLAJEXZlGrWkitYik15Mz/SKCADqZPQSHIGAKHdFHT5NTj44doUdJE0krEzEeQ/57rSOnimnDTTTfNJU2upk6RwsU1JKIOUuXa7lv1J2wqon0DnqsoXkrmDTfcULbx51MHdRHQoa3Sv4jglVKGshftd8/w//MX6eMzyCSOQFoJxHWQW8dG+6sm5b4hCeBomJXxcblgnPE50T6SALaEWRngJjVpjTPAICiIlSCKwDj1WeycOgEU8VuFRND82Jg+mWY/9alPFTLF5Gt5OXn05MNj3rSsGxVNlK2AEVG/fO+oh3L4Mes6T4oU6hriKD0L3znmXEQK+Tr44IML4XQNK5Goo+L6UsDwr6sTPCocM2/kAwxyiFT6jGjGdQ477LAS9KFeIobf/OY3l3urg7rIK8gEjMSpK/9GdUcCo/3aJrDj3HPPLeZw16IsUgZdwxJy2upY+yiC6tBXJAEcDbMyPi4XjDM+J9pHEsCWMCsD3KQmrXEGGGZW5KW6Osc49VnsnCCAllmTrkTqlSBKCgJGsfN9y/lndQs+dsiMfZQv2yVERhBFxwp+QOAQJ8fytRMVy3zrGMoYssVHULoY5E1EMbKLULpurDIi8bPnpriOFDAUvyB56623XqkD30QErGoe5qcXCaclrI7ruH747Ukzg7S5tzqoizo5V33VVZ2ZhV0j2u+7sdqJpeMQRoTScczFiC3CHO23aooieXRfkQRwNMzK+LhcMM74nGgfSQBbwqwMcJOatMYZYJAT5IUJNjBOfRY7JwjgjTfeWMyX0qUEUVIQMESMPxuShdhJ0WIfpUuAAxUNgRQkoZx33nmFFPHnc6zoX8SQ2sekKwiDikehQyTDXCz/HlAcpWmpRwHH8nIIGmLHZEuhZBa+6KKLSpoVpE19+fchhq7tWAEogaYoYPdWB9enQjqX+Vpd1YHKR9GL9iOqIo8RQW3WfoqttvrOBJA4prr8nECaviIJ4GiYlfFxuWCc8TnRPpIAtoRZGeAmNWmNM8CsTALIBExdi7QlAcu8WZOYz5zv++qrry7bES/58qpLwfHrQ/AQNWpYNe8d8oQQycHnM+WOPx21kE8f0y31To69Y445plyjbgJGRl2DuTmieqmjzKyWqkPGKHXStKgr8610Mo5lgq2bgJHCo446qphx11133VIHRFCd+DkK5qDiyWWIBCKr0X6ESBstIaf9zPRWBEEAKYCikyPtDZKprrkU3ML9cLlhVsbH5YJxxudE+0gC2BJmZYCb1KQ1zgCzsglg0zGRBkZQBl85BM4x1C+58BAkJOuqq64qyaKtKWxdXIRLhOzPf/7zch0mUefwh0Maw1SLLEWksEAO5I6fHXLl3ky1gjEUuQP5AVr5g9LnOvLzMbsia4ieazDtKggj5c6xTLBxHeSPasinT30QuAgiUZeIbGYWdg+BK8gfsidxtLQwfBhdw7OgVNqOJCKf2s1XUXs9C4mtRURbK7ivSAI4GmZlfFwuGGd8TrSPJIAtYVYGuElNWuMMMF0igPvss0/5vgVGMBUjN8gVomWVDModgoYgMsfut99+RYHjVyhdCrMqEgieA7VRxDAfO8RSOylwyBgC6NwggJQzBVlzLUof1RABdU8EUDQuEoi8WQUEaYsADsfy3YvrUP6QvyoBjOARwR1MwerGTC2PIfM4M7dAFjkHmYaZeLXb8/vpT386OO6448o9LSknNc373ve+8owc6xwmdES5r0gCOBpmZXxcLhhnfE60jySALWFWBrhJTVrjDDBdIYDOpwAyjSJblD5Ej08ghYzax+SJzDHHUvH4xTHhIkTSwiBVyBrwD4x0KqJrY2k3Zlfk8YQTTih+c4JPpH5BsBTmWoSNkoaIUgMpbBQ99xNkwQTMZGvZNkQyjuWPWL+O/ccff/zg4osvLnVRh2qdpHPhtwh8BgWmSF2DCKknwudZMPVaB5nyh1yKhKYWqofnK32Mc9MEvHA/XG6YlfFxuWCc8TnRPpIAtoRZGeAmNWmNM8B0hQBKDSM4RCCHZd6QHqDEUdkESjCdCrzgu0dRE/wA6u4YwRhUMNHC2qRI4ExFRCyDACJj0qsgUmeddVYhgMzICt9ApI0ZlwkWqbNdnj7qGkLK3MunLwhg/VjFOsT2+T4ch6gFAXzOc55TiGSsLKKoCwUTGUR2I1WONkr34hlRB91H+wWdqHe0H1EVLRwKaB+RBHA0zMr4uFwwzvicaB9JAFvCrAxwk5q0xhlgukAAmTn5tVGvELJqnkD1Q2wQPCqb6FxpT5BEUbwB5/ODYxq1RFv4/0mOTC3zN0zAlkyjFFLUqInIZd13D/EUrMGsazuCJZUL5U4+PwEqCF7TsQpCp858BNXVPcMEXK+TuqozszfVU1sC2sjUq+3IIbM2k7Xzqqt+OMez85z7iiSAo2FWxsflgnHG50T7SALYEmZlgJvUpDXOANMFAiiRs7QqTJhMnkyqTLwIAfIXKpkgC6QtcvpRCx2DQEp/gpBJsYKshbpGdaPYxTXk9wtfO1G5zqcaHnLIIaUgaggdgijBM7XOdsofs3KsusFci+g1HatoAwKILIoqlniauTfqoU6hCFIpY03iMD9rk7ppr7ZS/Oznk4hIym/INF5tP/LKTO7ZSRnTNyQBHA2zMj4uF4wzPifaRxLAljArA9ykJq1xBpguEECpXCSHRqSogFb5OPvsswsZQJ7kAqSOIVNMwEgShU0whWMUZlJBIXwBqYALLdsmgAORRLr8z6zs+siksuWWWxY1D6EToetatvP7CwKHfKkHc2zTsQqyRuVzvHQ07tm0prFCCXQudVMgjLZEu7STAvjCF76wJLaWqFqKG4QQia2237NjAuYTKVK6b0gCOBpmZXxcLhhnfE60jySALWFWBrhJTVrjDDBdIIAm/muvvbaof8yc1MBIzkxhkwiaGVWQB/OvfciioAxwLqKIZImG5V8X5IriZ4UQ5Mr/giVcE3mk2PmLVDlHEQGsDi94wQtKdLF72s68y1TsWOqi8xCwpmMFZ+i7FEOKHN8+93RvdbD2sgjf6mojzrNNAIzrahMwAcv9hwBqu2chWGa11VYrzwTkVXSO9iCLfUUSwNEwK+PjcsE443OifSQBbAmzMsBNatIaZ4DpCgF0fkQBI3OCPOS9E3zB/03OPuSHcsf3DdFRpEa55JJLig8d8odEAmJGsaPMMSNL36KdzK5y7FlJhP+fujGdSvasnHHGGcW/b++99y4pVpiHJWamUjL7IneUOIEe559/fskR6Fi+gfqqa6i34A1FMIuAkSuuuGIuElld1Invnzr6DAcddFAheaKXBY24h/a4tzZrExVUjkLHUPscgzT537kZBbxwP1xumJXxcblgnPE50T6SALaEWRngJjVpjTPAdIUAygPIhCtoghIWOfhC/dIuZmGRwpdeemkxGfPXk/xYLj0Jml/+8pcXUnTTTTcVf0D3kmuPMkex007+c+Fjx+9OvZDL73znO6UghYI9RA6HydV9KIPIH0XP/fgtugeyKscgnz5ELoJA3vve95bruIe62xaKH0Uw8gDK4cekTfFDAOUXVEfbKXpyBEojc9lllxWyq778EZmARQMjxY51DgKIRPcVSQBHw6yMj8sF44zPifaRBLAlzMoAN6lJa5wBpksEEHmhuFHhRPQy6QoMYRKmvlHXELdArNsrctYqIYiVFCoUNwmYLSOnbZQ3KmKYgBEofUsQBfLmPp6DwpQq8AKxQvT4/iF5/lcX9+OPSI1zLIJHpWMCRkKpgQid60tgjQhqE9Uuon75GVImfXYtkcSnnnpqUROtBkJZ1H7rEEdeQ0ACmb0RT0omUss07dgLLrig3AfR7CuSAI6GWRkflwvGGZ8T7SMJYEuYlQFuUpPWOAPMyiaAS60FjABZ8xcQKebS6lrA1DjJmyVGFoCBzAWQLaSJwockBeGqFgRQEIV+9YxnPKOQRkEb1D0F2eO7R3WkQjrHX/UQ1SvwA9ljHo6EzohXEEA5COXncx3+fEggouie4QNYLeoYyaT5CSKK0X5+gRtttFG5poTXElJTKaNtCG7k/fvNb35TCGGagBfuh8sNszI+LheMMz4n2kcSwJYwKwPcpCatcQaYlUkALXdG8aLomeyjMKvycUOkmE0RPNdj6kWgEDUK4M0331xIosAI/nVImO2O5XdnlQwmWyRIoIh0MXXCxQzLrIxANpmA+dshbEzAlDrnuC7iSukT8IF4uo9rMbsijmECjqAN19EWpmNttK0a9BFFHdVVnZFRx0f7tZVJWDudf8stt5R0MtK8OBch3X///cuxVFPtiOCZPiIJ4GiYlfFxuWCc8TnRPpIAtoRZGeAmNWmNM8BExOzKIIBy01HKLMMW6UuU97znPYPTTjutqF8ibB3jWtKoSI/CV07aFeog8yxiJt2LyF77+cA5h8IWqWEoZghenXAhYXwNDz/88GJC5kuIBEddpKBB9BApxNQ5rq8u++67bzHJCsSI64V5WqQxQla9juASaVwOO+ywQtSqeQCjqKO6Ooc/Y7X9yKF7STtDeUQQtZ/J2rn2OcaxzqFS8pHsK5IAjoZZGR+XC8YZnxPtIwlgS5iVAW5Sk9Y4AwwStOqqq64UAhg+gNWVPkDULf8+5l3LpjGB8gmkCEqCjPBZH1eULyLG1MonDwmyXcTslVdeWUhk+Aiec845hSzVCZf8gNRDkcPMru7L9y7An5AvoiKy2DlIJuIoOGXHHXeci+ZVmIuRaNHLzLzV61ADXUdePoQyVgKpFucLbgF1j/arP9P0pptuWpa403YF8XWea/FrpEQ63zmWt6M89hVJAEfDrIyPywXjjM+J9pEEsCXMygA3qUlrnAFGGhEKV/Xe49RnsXPqBLB+TASBMG3yZQswCyM6lC0RuW9961sLAaKGyYHHHCsa9s9//nM5Hplj2g3wIawTLqlXgM8hgubcqtnU/atmVsX9qG0LJXLmi0fJq67D6zqUQaph5PRrMknz7wsgotF+S7uJgpaoWnSzOiCCngOVkCrqWSKe4VOp/aN+/11CEsDRMCvj43LBOONzon0kAWwJszLATWrSGmeAQTj4t3WBAFrOTJSrwI4DDzyw+OEFUUJ+KGz+ivQVYMEszDwqVQpFkIKIUPEHdE8m0zrhohjyzeMvJ4AjlmDT1xTJnkXWIlxxjtyDSGiob/UiGESwBsWweh3qnILAuWdTEAiztrqqM5Ox9iOSvkfKrGMooNb/5Q8Zq4zE+UipZxvtR1z7iiSAo2FWxsflgnHG50T7SALYEmZlgJvUpDXOANN076ZtS2Gxc4YhgEzQVcXOSheiYqVIaVLeXAch4jdHJYvtyJIUMJ6D6OH6eQigQAvnBplkStXPFESLj12kjRHcwReQ2TnWF6Y6ihJWKHF8+xBAKWOq10FQFfdyT/eu10cd1VWdmZir+yKIRBBKXT10Lc+Gmdyziu1U074iCeBomJXxcblgnPE50T6SALaEWRngJjVpjTPANN27adtSWOycYQkg8kIls6rFmmuuWdbYRcT8jwTKnccXD+mixiFwEiozYVPhpEZBtqiH0GQCRt5ARHIkTa6mTpFPUMJl+xxPvTviiCNKoIgUM7apww9+8INiKlZfwSgihwWzBK655poSxasugl+giQCGCdhx7hXt157w//OXCZrvoXtTBj0DKuVmm21Wjo32S4XTVyQBHA2zMj4uF4wzPifaRxLAljArA9ykJq1xBpimezdtWwqLnTMsARQFLJJWnjsrcjD5itaVU4/Cxry5yy67lEAQUbaiZ0X9WpUD2UPCKIDO59tIHayTP6bZCy+8cHDkkUeWABjXQNzUUbHqhkCPMAEzE4v8pQLyv7MN0XKO4ppImfqpZ1xH5G9EASOQ7omcOr5aJ3VUV3UO9TLar20COyS2Zg7XRqogv0hEUd09I8faR81kUu4rkgCOhlkZH5cLxhmfE+0jCWBLmJUBblKT1jgDTNO9m7YthcXOGZYACuzg48YHT349ZAbJonzJBUgt47vnGMEPFEOBIY7laycVy8Mf/vBCopwrf16VbDGVqof7UfT4zUnjYvk5z02RxNm9wgRsNRDXRv5EJNtGfUMMKYKuSbFDAJl74zrqzQyMcLqXeyKwznUNzwEZRDTVVZ0lnGYSjvYzgSOp8guKFkYoEWT14/vIVzDaz2ytiEjuK5IAjoZZGR+XC8YZnxPtIwlgS5iVAW5Sk9Y4A0zTvZu2LYXFzhmGAAoCkeyYTxtiJ1WLtiB0iBqTK1OqIAnlvPPOK6RIEIdjRf8ihkjQf/7nf5aAEoEb/PNE0zLT2h8Q/NIUBSydCnXRkmqIWpiABaYwN9tWNwEjf/zxFooCjpU9ALlTF0SO2Xbdddct91dnZI6iF+2nKCKxiKA2az+zckQo8xl0jGOd433R7r4iCeBomJXxcblgnPE50T6SALaEWRngJjVpjTPAIF7y3FWXZ6PGUb7qS7YtBilIFmpDEEB+d/WIYwgCiAQhgFdffXXZLj+gFCvVpeD22muv4rNHGaMGVvPeIU+IleeJSPC5W2+99YqJGPFiPpX/L0y0TSZg25lUY4UUqp7kynIKRh4/uQSpldRDKp7VTex37yYTMEJpm3vrz0iq7aKLnS+PoTprLzUw2u+5aKOVRrRfrsNYCo4fILN0pL3hc+h9yaXgJvMu9QGzMj4uF4wzPifaRxLAljArA9ykJq1xBhhJmS1ttvvuuw8+//nPFzIioTLiZJtJuVocw58tiE4UCYwRSUSuDpO6pMty2yFL9WOCAAq8ePOb31ySKHsW1C/qHWXsW9/6VgnQcP+//OUvZV1cPm8iZPnQAQWO6dYzQL6QK+bZWL7N9aom2iYTsO1IlzQzyJ7oWxHAVVOyQsULQkhpFIlcv37VBBzbmY3VRZ0EuqijlUfs48OI7EkJc/nllxfzMGXRs6BU2k4JRACd6xru6Vn88pe/LP6EnnNfkQRwNMzK+LhcMM74nGgfSQBbwqwMcJOatMYZYKwvS/GzWsUFF1ww5yN3yCGHlG2xtFkUx1CqgtBEQRZF40qwXAdz6Pve975CZqRSiajYAHXLecyqSBAShygiN4IfmGHd49RTTy0+etYIRkIt6UZ1swyadCny/iGLAeZf12FaRpbUISA5M8URqqqZ7dS7MAEjccht+P+FDyDlEeGixDFTa1v9+iJ7DzrooKLOBSiHCCclj7qJRAaYjLXfih+eJROv1UE8d21mivbd8POjQiKvnpFjnUM9RZT7iiSAo2FWxsflgnHG50T7SALYEmZlgJvUpNX2AMPUiqDVVUPmTiZYqpqABSSoup8pkw8bAme/4yh9lEC+d2G+RXgEX0h4TOnae++9iwkXUZUWho9e+OGJ5qWuUcpe/OIXlyAOwRz85xTmX+ROnSmB1e3InBx/yJ7kzkiZQIwggK7pHOZaEcFWF6ES1q+PnCqiiGM7P0S5BbWTD6D0NtLOAKK60047FdM1InTRRRcVYs3H7xvf+EZREkUoU0UFxkj5QrH1vfNFdG6agCfzLvUBszI+Lhe0PT4nxkMSwJYwKwPcpCattgeYG264ofi51VVDBI0JkxLIXFk/hrmU2RkBFOGKICKAIAACGaMSInf8AaVFoaDFqhcUTERLzjxEEWkSUYus8bNzDaoi4kSRU5BI9xMIIgI3tlNAkU7bnE99lIpGCpcggIJABIBQLBEvZmL3Rs6q16EQ8ktU99juGOleKJWRWFpdEWAK3rOe9axi2o71krXx/PPPL+1FOKmHyKXzPKdov/Q4SGo1EKVvSAI4GmZlfFwuaHt8ToyHJIAtYVYGuElNWn0dYJA9BBEZO/PMM+fID1C9EBsET/CE5yT5MRJUNXfyL+QHx6xKZYtVQCh08gZS1SiLiJTifKlkBFG4dmwXAIJoIX7Op07a7m8QQGZbJmLFdUXyInXqGddhIkYiKYXuFdsROOeok7q5HtKrzpI9Uz21JaCNzmfOZhJm7qX+OY/vYLX9Z511ViGefUUSwNEwK+PjckFfx+dZRxLAljArA9ykJq2+DjDMsMy7TJhIDfMu5QshqJpemVhF21L1+OQhTY7hJyf9ieAIJIkvHjXNOcysTK4+M/nybVSYeRE35zs2tlMG+R3yKayeI5ijqgBK78IHkQIoCIQv3nOe85y562gDYonUUedie1xHndTNZ32c6VzdJXR2rjapm/Zqq3vGPWJFESS32n6BL4iqZ1f3s+wDkgCOhlkZH5cL+jo+zzqSALaEWRngJjVp9XWAoZadeOKJxVeOD5u0KWeffXYhA/LcCbIQzIFMScuCJPErtFJGmJGPPfbYQshE5zKp+huELcpDHvKQkjtQcT3bRBHzD4ztfAwtvSZS1345/mz3N67Db49qh4BJBE3JQ9Koc3Ed9fSdOl69Y7s61OsVdXaPffbZp7Ql2qWdCC0zuHoihAI+nEeprLbfs2MCZnIXKd03JAEcDbMyPi4X9HV8nnUkAWwJszLATWrS6usAY+IXNUv94wNHDYzkzPz3mFH5uwnyEDxhH7IoJQo4F1FkImYe5sO3ySabFJLEXGsbgiZa2PUV6qHrOQfBjO1UNmsQBwG0j9lWkEmVADInU+PqBNA1bEf2XGfrrbcuvodxfXVwrHtT9VxPXdUZsXNdQSfaBMzigkMQQG1nmkZ8nec5gXyNznHfaiRy35AEcDTMyvi4XNDX8XnWkQSwJczKADepSauvA4yJ3zOQB5BfHjIncELeOwEdAjjk5kMEmX8FTCA6ighaQSWidREoplSwHVHjL8cEiwRS7Kq+flYR4TPn2gv5AFIIpV1RryCAooCdI3gF+RMEUvUBVGfET9+lBAr8iOsjgXIGuvfaa69d6ki9A4QWyZO7UHSv/IZIMYVUm4NAUgH5BIoCdgzS5BznZhTwZN6lPmBWxsflgr6Oz7OOJIAtYVYGuElNWn0dYEz8EkEz4VLb+MIxiVLOQv3SLmZhq3LIicdkzF9PpK1VS6RhQdoiD+DNN99cFDZBIVQ05Mm5AT5y8u5BNZjE9qOOOqqcg+zxAXSvah5A1z3yyCOL76A8gNRCPoNUSbjiiiuK6daqJSKNHRtA5BBF9xQIQqEMcy0CKGWNbdREit6ee+5ZUtr89Kc/HZxwwgklYEZgjBQ37ocUO9Y5CCAS3VckARwNszI+Lhf0dXyedSQBbAmzMsBNatLq6wATBBB5QarOOOOMEtHLPCswhKkTWbPcnICHgOhYSpvIWauEIFsIm+fgGogatY6CSGljdtWnFMEY/P0oca4R2wWHCKSg3CF7AjyogEH+omyxxRYl/5/P/vLPY8qtrsuLuFLpXDOuj6iqC8VQEAjidvrpp5c6h/oo7Yv2WzUkSCVcfPHFxUdQsItzmYLlSHSsBN2encjkviIJ4GiYlfFxuaCv4/OsIwlgS5iVAW5Sk1ZfB5gggFbmQOKs+QuCPRCw6lrAVD+ESfoWyhvfuQCyhTQhQZ/97GeLSlYlbfz7LLWmMDML5HA//oCxnXnWsdYs9jdIGJ++WPqN2dc2BLV6fUTyE5/4RDFDuz5/PvkDfY7rq0P1HHXUFnWmZr7jHe+Yaz/Ts8AQ12Q+1j65BxFAdaBuRt4/ORYRwjQBT+Zd6gNmZXxcLujr+DzrSALYEmZlgJvUpNXXASZ8AJlF+dYheP5n6kWgEDUKILPuAQccUMyzlDZkynbH8hek1EkVgwQxlTLbrrLKKnNki+8ck3Lk6aPM1X0AqX8COyLXHhOrlC/6Ij9D2yINTDU5tOLcCNpwfUmpmYYpe65tuzpUz5EMWl3VGRl1fLRfW5mEEU1mX0ooM7A0L86VZmb//fcvx1I8tSOCZ/qIJICjYVbGx+WCvo7Ps44kgC1hVga4SU1afR1gTPySP8sHSPET6OB58JG7//3vX9beZZJlHkWgmE9F5UqfYj8fOOfIyRepYTwLvngCLYJsyZ9nu/LDH/6wqHj8+5CrSKeChFUJGr86K3hQ5piMgwDahnBVj62mZZHKRl4+5dBDDy33lJ5FHR1LveS7iLja5xwKIEIY7RdcIoUMP0M+kVtttVXxkQzl0T7HONY5nl3Vz7FvSAI4GmZlfFwu6Ov4POtIAtgSZmWAm9Sk1dcBJhRASpi1fZlAmYT5tFHxED7kTZQvUsiPjjIXpE7E7JVXXlmWk6v6CB599NGDO9/5znMEjdk0Vs/gN0dF5FfIXBxAoJhlqYDOiZVAkDv1sI0p2DbqXJUAVskXv0RqIFUTyQNkMOrDfEtlPOKII+bOUfeTTjqptP+cc84ppmk5CZmhpaMJX8OoA99GiqfgGOeccsopRXnsK5IAjoZZGR+XC/o6Ps86kgC2hFkZ4CY1afV1gAkfQKZNvmwBwRSIDmUL8RHhS/mjhMkL+IIXvKCQNcvIATLHny5A2asStCg33nhjedZNBNAqIII3IvHzJAjg5ZdfPrjpppvmHctfkBpIWQyoR7Tf0m6ioPkkMvXKKSh5tf+phFRRfUZ6GnkAQVv6+P0HkgCOhlkZH5cL+jo+zzqSALaEWRngJjVp9XWACQJoOTOpUAR2HHjggYWMBWF60pOeNHjb295W/r7qVa8qARbMwnz8pEqhCAoQETAhN55nwaRaJ3/y54mmZfpFMPnOCdpwjmL9XqTK9+F4foJyCso5GCZg16C26ZvVa7/5zW+euw71URCLgA1+e1RKufriWGZr5JXJWV2dQyHUfoEdvkem3yCL0tjwQfTX/3EdEcX8GKP9SHRfkQRwNMzK+Lhc0NfxedaRBLAlzMoAN6lJq68DjIn/d7/7XSFMQWyYYK0CgoAhOXUi53kJwkDyInJXodIJpGBOlqrFdSSBpp4xH/OZc03+e4JIJImmKOprEejBtzCCQGINXtuZnm1DzKhwiGC1TvbHdaSZQVCZaOUnRCzdWx3URcoY1xG4oq7qLP9h9XoRRML07X7VfUzf2sFMHuZqBantK5IAjoZZGR+XC/o6Ps86kgC2hFkZ4CY1afV1gAkCiLwwi1LK5O9j9uTn5n8kUEAHQsb8yRRMDZTbj5omLx4fP2TrkEMOKSZUiZT53DHfuk740jHfMhXLAYh8OUeEriLdC0LJ7BykCpG0AkkEcCxUBGjEdUT+InCK9slx6N7qoC6UP6Zkq4Rcd911JVBEPaL92sP/Txv9dX+kzz7E0TNAXJFbx0b7pYrpK5IAjoZZGR+XC/o6Ps86kgC2hFkZ4CY1afV1gAkCyB+OvxuzKQLF5Hv44YeXPHp88pg3KXZUNFG2AkZE/Yoeph5aD5eZVv480bsIEjMrsynyxY+Q+mYJN2Zd95FAWXoV34FCdUSuqsQO6aKyibpFOCMfoIKwhb8g03VcRzCH74Jfn6XemJDdWx3UBdFE6JBBdVVndacURvu1jalZQAh/QwojP0j3d1/t94wcq/1M48huX5EEcDTMyvi4XNDX8XnWkQSwJczKADepSauvA0wQQIEdIl+tboEUITPIGnOsXID8+5huHcNPj2KIEDmWqZVS94hHPKIoaZQxZlY+gky6zK8iiqmICKXrxiojlDvPTbFMm+MpdVKrVImgOiBZ1dQySJlAEQqdOsR1XN+qJMzUglEogc5TB3VxD3VTR3VVZ58lvY72I6NWOxEMgnjajuSqh3P5Ckb7pYZREMm+IgngaJiV8XG5oK/j86wjCWBLmJUBblKTVl8HmAgCYTrl04bYidDVFmqZAAcrYFinV5CEct555xUVjRnXsUy6iCG1T1JlPnjy7DGNIpJhLpZ/D0TOitIVQVxNnix3IPMsAofcIWpIJ+UxVD2EjX+fbfqoFT6QNwQ2IJpXkmoJo6+55pqyzb3VQRCHeyC2zNfqqg6CXih60X5Elf8hoifCWDnmmGPmEkHzGXRMdfk5gTR9RRLA0TAr4+NyQV/H51lHEsCWMCsD3DCTllUwbrjhhvrmeejrABME0FJwCODVV19dtn/uc58r+fKqS8HttddeheBRxhCzat475AkhkoLF5/XWW6+Yb6mFEikzncqlx6SKSLkGMyqy59kpTM6eofQtCCWi941vfKOQrK997Wtz6WCYZxFRZMyxCCbzdVznsMMOK1G9H//4xwdHHXXU4Nxzzx2su+66pQ6IoDrxc+RrSMUTJYwEun6033PRRvXTHkSTfyMllAIoDU6kvUEyvS/LfSm4pd6DYd6l5YJZGR+XC/o6Ps86kgC2hFkZ4GLSshrGQpBMGAlZDJZOkxKlbwgCKFBCKhUEzgRO/WL+RJCQrKuuuqoEbfzlL38Z/OpXvyrmWFG0UqgApcw5/OGQRmSPUiaAJCKFBYUgbfzskCv3Zqq1Fq+CtImuZX5FGpl1ETP34qMo/QzTsPNcQ5SuY5E6Jtr6dfj0qQ8CG0mg1SUim5mF1VWCauQPyfNdyx3Ih9E1qJKXXXZZURgRV0QUmUQAtdezkNhaRLR9fYXJ8ZJLLqlvnoel3gO5EJMAJrqIJID9RBLAljArA5xVLJgCL7zwwvLZhE8FQgz9b9ITJcpEiBwhS7Zff/315bPjTHiUrepKGH1BEMB99tmnfN8CIwRMIDfazD/OwHnqqaeWnH2Irme13377FdUNIUPEmFWRQHD8hhtuWAI6mGwRS4SLAoeMIW/ODQJIOVModkhbkDrkDAF0rG2UO0Eo1EPKHGKIoCKLCGD9OlUCGMEj1EOmYHVjpkbaJadm5ubjJ+2L/sDE6/ukDv70pz8tASUIKRIs8ERgiWfkWOdQTxHlvoKaqQ8zn1ffA5/1b0S/6T1wjGO9ByZZzzQJYKJrSALYTyQBbAmzMsAJgBAYIJAAmWHuo+TwQUNe+JoJVojACCTAdoSHQkTxYKpEUJhI+wYkzORNAUSwqGxIjkleZC1iJYjCMxApK+Gx57P33nsXE641dqWFQaqs7wv8AyOdinMirx+z60UXXVSSM/ObO/300wupRLAU5lqEzfURUc9UXfjpMSkLwHANASdIoKALJmLH8kesXwfRPP7440vyaXVRh2qd5BLktwh8BgWmiA5mClXP3XffvdSF2Rch9D2rC3VTcAlyaGIRFezcPpuAkVeEOdZDjvdAX9fn9QF+kPX3gN+jfhLrQXs23qnljlkZH5cLkgD2E0kAW8KsDHBUDImGTXBULoEJfNGk/kAKKSOWEqOQUb0QIiSJz5x8d9QOCpftctz1DQgg87fJnd8dUyfSBQiYpdkoaNQ9ihx/Ou2MVS9M9hQ6fnhUMGQponQ9P4oRYhkEEBmTXoVKd9ZZZ81bCYSJFWljxmWCdT3fBZXP94PoIRjIiqAVefcQQMcigNWVQFzHgC94BFELAig/IeJYTe6sLgg9MkhVDHcAbTRxqKPnQBn1TJxDAYz2+5EggjkU0D7CjxdEzndZfQ9Eaevbnjn/v/p7wN/SsX4wIOaU1SSAia4hCWA/kQSwJczKAEf9kvSYYiTSFfhzMfMJckBW+HnxfaJYUYUe8pCHFCIQCHWsjwSQmRORpV4hZFVfSCoXYoMUSHNC7aT6UN+q5k7n84O7//3vX8h0+P9Jjsxk62+YgCmIlMIddtih5NCjqNV998IE7J6IXpiFEVD3oDohrgv5ACJ06oy8ILTuGSbgep3UVZ2ROyRGWwLaqK6OkZqmuvqIulbb79lZFq6vQAA9Sz8EJMeGeA/0eUS66T1gUg/44YAALuZPu1wwK+PjckESwH4iCWBLmJUBDgHkQ3bAAQeUSRC54OBPdQoICqhO7oiRVSSQJulMED+ko49pQCRyRmCZMAVDMPtRvhAs5C8ID5Mf0kbVk0+PWugYBFK7KW5SrFDDQl2juskNGNewkkj42gmkcD6VT3StgqghIUgXUk6ts50yxawcq24w1yJ6Tccq2oAASh4tMvnggw+eR97UKRRB7aEeqrsfAdoiAtr3LQhGW9SbwkkFpGI6DxlVf8/K/RBCOQn9Hz8k+gTPnprKz88z1Le1R18PhC9kgB8mku1Y74Dn4LmKGF/umJXxcbkgCWA/kQSwJczKAIcA8u8SlYoI8m9iIkQIKVRMwIiRyd9nROeII44oSohnhHhIOMxk3McgACrniSeeWIgU8oMsnX322cUPDnmSC5A6hkzxgUOSkF3Kj2MMrEceeWQxifMFpNBFxG29iL6l6jnG/9RE10cmFSleqHkInQhdx9luBY9QFa0Koh7Mvk3HKvYJznC8VDbu2bSmsaKuAlZ89/IG8hk8//zzi8qF4GkrvzcRz66L/FoOjo8cpctxTNfIE7OwoKE+AnnTXkE/nitizsR+0EEHlUAZfV/f0Cd8tu3AAw8sxxgnmIM9J89UNPByx6yMj8sFSQD7iSSALWFWBjg+gAIYKDwmeUoOPzVkTnSjz8gRtYkCcuaZZ5aJkkoiGpYpETmiFgmk6Bu05dprry0qIP83SlD492mzRNDMqJ6RCV5UruchDx9ID4ME8KHjA4Y8B7minNkmobP/BQnwCUTIBIm4H9OtcxQmXX54FFhBBe5pO+VR+hbXY8pVLypi07FSuSCnFD2kkXLpnrGWMLMlwu9aUU8qFrMw8kjx8mMAqYxVQRyPFHkW2oqEUkc9F8ch/9rEVM2MLFJaupw+gfrt2TF1eyYiggXC+L6Zt/V9fcOz9Nk2+7wDfjAgxZ4JxVQk8XLHrIyPywVJAPuJJIAtYVYGOGksqEcc/ZlDzzjjjLKdqYuas//++xeVieokF52JshrtSxFDfigjffQBjChgChBVB4n1V9v5eQm8QIiQH+ZS0buULsWavtbzRYAQg0iMjJgxuSJHSIGEy0gF86CgGVHAjkceKGwUI8WzZ34VYSzFSiSmNnBTJxEsiqG6Uel8R47lf6mvuoZ9juWPhqCpo5QlEYmsLuqEHKqj79XxgkxEfjPxuo82Ia8In+8dgdRPPAPkkamb/yL1Fyn148E56tpHM7C+6xkgwJTvQPR3Zng/khDreA+qUc+Cf/wwkAYmFcBE15AEsJ9IAtgSZmGAo9KIeDSxUzuY9Di6GywQHZMaEoCIUIdivViTpGMkzhXxaGk0pjPH9035iTyAiC7itummmxYfOYqmAAymbwMnlUeAAHWLyZgaJEhAYAiFj9LmuYgIZSa3XUAAZY4ih3whSogm4oYwI0qeG/KhIB5ICHLI7Oua7oOQuTY/Rdf1nN3DNURgqy9SF0EgSBuFkKKIlNoWih+yHnkAmYldB5j11UUdqY3OdW+kVAAEJVAdqYwUQOTY+4E0urZzmUT7CH3WDxmE1vesT+vb+jg/P32eeV+UM8K80HtALfcuSQ/Ut/dgVMzC+LickASwn0gC2BJmYYCT1sLEJyCBEsXxHzkxUFC9kCEmXsogdYc/mcmeuc8xyBOlCRmIAIi+KT9BACl/iC7CI6JXGxEupmFBF1SdaqJrkcDazORJpUPEBF4gw0gWszjCRXmjIoYJmJKkbyEQznEfREJB2ph7qY2UJEQDyfO/urgff0Tk1D08b/6ZTMCIGDXQ9+n6lDlEUJsoVhH1y8+QMumzOvL55MeHKPpMWdR+ptDIawiCfVzf80F4XZeJ2LFUUP8jmn2E90AgDB9HP3z0af1CH9dGfV4eRu/IYu8BYu5d8rdv78GomIXxcTkhCWA/kQSwJczKACeFB1XJRG51jwDzFnUQYaH6iIj0PARNVE3At9xyS/GJooYJhOgbggCqO1IVEZyIFHNpdS1giliQJT5xnk0A2UIIHIugBcmqFgRQ8ITnKKmz+1FW+Z4pyJ5oX6pjRA/z2XMt5BJBQQxjH3KCeAUBRDyY8l1HUAISiFS6Z/gAVgtyinBqD5KoRPt951KgID2nnXZaUYf5vPEBdT++bpH3j88blbPPiaCRW22g5unTAX1dnw8VdrH3gHlfQM0f/vCHue3LFbMyPi4XJAHsJ5IAtoRZGeCYrhAdhVIlmhP4wRk0RD7KTSdgQZQoExlydM0115TjmLyQC2Sjzz6Agl6ongie/5l6tQlRowDefPPNJTKaEiYCmo+e7Y7ld8cHzrFIovMi0rdaqEbMyggXxYni6p5hAkYqEDYmYEqdwAImRz6YFEcBH3L2IYIUPWZXRC1MwOrm+q7DlMyMq322VYM+olCymD2pVwJLHB/t11Zql3Y6H8ER+KNfOBchZTZ3LFVQOxDEvkIbPU/vge/O9w2+K31e8mdtVOI9CJ9PzybeAwpgJoJOdA1JAPuJJIAtYVYGOFHA1CPkxbq0TGD81KQ2Qf6Y9ZCMyHcmSIGvl8+Oo3hQhJzfVwWQusXMbfLXFoqoqFiTOl85JIx5lFqGmPEHYwa1nx9dLANGQTLQWi2EebZOuJAwRMIKEwgdX0KqknQyyo9+9KMShU1FRMYRMMcgdEinOjALI6tSr8Q6v+qEkNWvQ72zUgWiVs0DGEUd1VWdmaNjGTTttzwgE/Eqq6xSCCe1krKJEDqXKdoxjnWOZ8dHsq/ww4dSqh/f4Q53KM9VH5cGhq9m5PrzY8hn2+zzGekPX1D9IAlgomtIAthPJAFsCbMywFFwNt9885L4GcGhPpnkECJJi5nEEBZExWc+YqJGw79M4QOIpPRRAQoFkArGeZ8JlElYu+S8Q66sj+sZIYXIMp88JMh2y6wh0cyk4SMohYhnWSdccu4hcp4j8syvsJpYmD8hFc/zZk5mkgXnWN+XPyK/TEvzqXMcyxSMvNSvw6/RWsW+l1gJpFqYmylZoO6CPbRf/Zmm3Uvkq7YrzM/IL2IoOEiQivOdY8UYfaCvoMZ6xoi5dnn/KaJ+8OjzvjNKJ7/IeA/sc4xjEWQmceQxVwJJdA1JAPuJJIAtYVYGuFgJhHonLQl/Pj5oCiWDKcz6sgiSz45nirS+LaKBLDEN2k8J6RvCB5CiU83fRglFmihbInIRZOSHGia9imdgshf1C8hcmASBOlcnXFKvgKXGEDTnVkmz+zMrU/1EJIePHfMkguWaCCjwM2s6tnodpko5DoFaV68Pn8EAIhrt5xdK7RMNzCyqzYigFDQIMSUTGdQHwt9N+/s8wSCAFG99GanXt70DfP70D1G93g2kL96D2O9YPwLkhpRGJ1cCSXQNSQD7iSSALWFWBjgTmYme8ieaFZAfPn8COxA7ExqHd2Yy5mCmwyp5cByFqK8mYBM8VdMELrCDidvzCKKE/FDY/PVcBFgwCzOP8omjCCK/ngl/QIMtRahOuCiGfPP4kcndF0uw6WsKf7xYco5/Hn8/2x2LkHnGiJyABNdoOrZ6HQWBc8+mIBAmZXVVZyZj7UckTRT8Dx2D8HEN4Neo/e4tDYx9VhdBnKL9kUC7j4i1gD2T+nsgQIdJGMmrvwdU2YCUMZ5LmoATXUMSwH4iCWBLmJUBLhRAJIEKJJIREWCCFFwQeeKoSXzLTIb2IQrynvGLokBZEq6vQSAm7Kpih+AgA0zhTUuo8fdCiBBf5Dm2I0sIkoFW9HD9PASQyTDIFHLB108/UxAtxJJplo8dfz/b+d0hetQ/QQaIo2s0HVu9juI493Tven3UUV3V2Wof1X0RRCK4paoeMv9SRdWdmTzIoIIw9RV8+ST39p3X3wN9nu8mFbD+Hoge9gNC3/cOeA5JABNdQxLAfiIJYEuYlQHOUmbMeRQiRIN6ZOJn2mKyFOQhrQjneKZQBMA+JlAmML5ijkOK+Kr1DUEAkRfPwBJtzHgib5Ez/yOBUrEwfQoKYQpG4CRUFgRihQ9RuchWJENuMgEzGcONN944t2xeNXWKyGrRt/wJETt+loBkSL/Cx44KCHLXNR1bvY66RD66JgIYKq7jKIXRfu0J/z9/fedSxjCJI5sCSjwbaxk7NtpfrUPfoO/6IeS51N8Dbfad+7/+HtjmWO+BVVKUXAkk0TUkAewnkgC2hFkZ4KSwMGEJ+AgTmELdonIIRED0EAFmUKZR+0SNMnPGcSJN+5j/LAgg06/JHMmyIoe2CrBAfuXDY95k8hMIQgESMCLqV7AMsid9C7VMYuYmEzDyhyjwsxRhLdjANZgNHa+I2GWKZU6NyF7bHctE7ZryD0rVIgq46djqdUQBW+HDPZFTdajWyfUcr86IpT4f7dc2foeihH3n2khZpAzyBTz22GPLM3KsfRRB/aav0HepfEhs/T3Qfv2j6T2oHsc3lBpYzSO4XDEr4+NyQRLAfiIJYEvIAe7/w4RmtYfliCCAIpmZV5lZkSWTOnJG+aL6UMv43VF6BD9QDAWGWCKNr52oWKoYQmiglZevSrb41PGXcz8R1fzm+I9Jr+N4xf2QLKRTShFKlO2ORTCZbKlRCBuy0XRs9ToIp3u5JwIb5lqEFhmMlSzUWbuYeqP9SBDiqR0URoRS+/k/UkS5AET7XUfhF7ecsZzfg1GR42O/kASwn0gC2BJygJsNVJeCQ5qspCEy12BJ6UK+qKNMqXzCFMu9IUV88ZgORf8iUFUTKMLEpCrIg/mVn2RAtO2KRgGL7m06tnod/mrViFR+hOqy4447FnM20htwPDIX7UcskUpEUJu1n6lYW5FIPoOO0X5k2PtCpUzMBnJ87BemRQBlDFAS00ESwJaQA9xsoL4UXKxwIt2H6NrqUnAiQPnsUcaoYdW8d8yCEjeHGZapVN4/JIsyKGBC/rgw0a4sEzBztW3urU87VsJm/nwIXJzDlMuMGe33XLSxGgEbq5hQAPm/Rdob57h2n5eCS4yGHB/7hWkRQK4Rffb97TqSALaEHOBmA1UFkF+jnG4iQKlfUq8wc1p5Q7CMlDgiQX/1q18Vnzc+f3IkAgUO0QszLJMoohTr+tZNtCvTBBzbpZNRF3ViAqZaxj7XR/akhLn88stL7j8RsZ4FpdJ2yqBf+9pNRXRPz8I60sij5NaJ2UCOj/3CtAggVxl+sQLbEpNHEsCWkAPcbCAI4D777FO+byQOyUJuOPqLjjVwnnrqqcU8ao1gQRUCBqhulkETPEKdQxYDVDsqG9IkPYhrBa644oqiliFT1dx5tlMiqXvIXpxDeTz++OOLqify2Eog/Babjq1eR/QwMhdA8BA3aiITMBIZYAJGAgWDiGxm4rU6iKXltFkwCVOv/y2BJ2WKZ+RY51A4EeXEbCDHx35hWgTQj1guIcbQxOSRBLAl5AA3G4il4CiAgjsEOVD6KIHMG5ZZY8410FHQmFwpXcgVE66l1qQIQcwQrACCxASM4FES60u18Z1bbCm46vJuSGQsBSfvoIhVylzTsdXrIGRWrwiI6OYHyKSLnFIKA47daaedio8gknfRRRcV87V6SnxMSaQYIoUioQV8WDHDxMLX0blpAp4d5PjYL0yLAPI3RgCND4nJIwlgS8gBbjaAAFq7lV8cgkMVQwBBAARzKcLExEtpkxZF0t9Q7ihxlEBqGCUwfOqoaXLjUQ0Rx6qPXqhpCKSBs+67V/froyb+x3/8RzGzylU3jA8g/z9JvBHE2C6NjXpqo7pVfQDVV2AL03asZauN1rzVXqYewSbWCUZsY8DXftcVLVwNREksb+T42C8sRAAFd/khOm7hG8xdxJhgnWz/JyaHJIAtIQe42QBFiymWenXWWWfNkR9AchAb5IpPn2TXkh8jZFVzp/OpZqKCETUmVqocPzspVSzT5n/7FE7TlDiBF/z0bEMy+fYxOfNFFOwR5yBYVEhEUgJiASrIHR89x0rWrX6u4XjkT535F1L54vqOsWKIe1D6tC3OcQ+qXzWiTxu1VeJnJmHtF4WsXdVVP5zj2Ulzk5gN5PjYLyxEAI05rAHjFmODEumuJIU35lx//fX1WyXGQBLAlpAD3GxADjymVSZMgyHzLuWLMljN5Rfr7lrpYf311y9qoWMQSIQPIaIAHnLIIYOTTjqpXAvJ0oeQJn6A9imIm5yDzuc7ZxtfPYTLtWy3EkmcwxRNnYtVN/jrIW0USscidFK48P1zvDYggMgiYhfXR1CZqt2T2VZ94xyftcG52uS62qut/AUjKMYqKZ4HNbTafmqkyGDPLlYfSSxf5PjYLyxEALl5UO9WpCCA8qXGikBWE5qF5RBXBpIAtoQc4GYDUrnIpcd8gcgcfPDBg7PPPrsoekykcgEKCkGmrK0rFx+FzUoZjjGwWtmDmRRpQwyZSvnqSbzMPxDZEzhhn2ItXSTKMa5vG1OzpdeYcwVVWHouzqHaxa/sVVZZpdSD2YVK6FhL+QnGiKX55B7kp+d494rrUwrVRZ3U7SEPecjcOeouzYu2aJeinXwZHWP5MySYryEFkMm42n7PjmLKJ1KkdGJ5I8fHfmEhAkipQ9YmWZiGZ2E1nJWBJIAtIQe42QAVS1JlKiD/Nz514d9HYZOChc8c5YzKJiADWZQcGaSHYdIVBcw8HMvk+Wzd4G233baQM6kS7FOobRQ9JIqyZpvzqXZIlkhd5C/OQfjUgwl4vfXWK+dR85iIqYTIqWNjaT7XodDZ99rXvnbu+o5RF3WSokab4hwEkJmZz6I2gUASpBAB1HZ1oFIijxFB7FjnaFM6gs8OcnzsFxYigIluIwlgS8gBbjYQUcBMn3vuuWeJBvZX3rtI4iwhMvLD/MtMShVTjjvuuLI0mATQ0rDwywvwnWMe4Vsosri+UgcitSIrgYgEbjq2ep36SiB8c0Q6i+rlv1NNAyPVDH9ApJE/n/yGzNgUUm12D+ZgZJca6X6OoZY6B3GO4JnE8keOj/1CEsB+IglgS8gBbjYQeQD333//QnKoZJIl83cL9cvAieiIFJYTD+lCeChnAiMkYg7zaIBPHF8YgRFdSwND4eTLV18KDjmk7mkTUocIyz942WWXFbJrPWQmXsQ21jN2rHOcK/dgYjaQ42O/kASwn0gC2BJygJsNVFcCERxxxhlnlJUtRMwKDEG6kCNkTcBDgMLH1w7Zuvrqq4vZl5k00qocffTRhRhSyuppYBZaCg7JQgiRN+dQHm2vLwV32mmnlXObjo3r15eCUyINjDqpG9+92CciWaoXaV+0n5mYqTuABCK9sMUWWxRzMeLpWCqoZycwJTEbyPGxX0gC2E8kAWwJOcDNBoIAxlrAYTJlbhVAUV0LGAGSg88auIiY6NwAPzgBHLG0GvOptYQpY46tL9XWtBQcdU7wB2LJR+8Zz3hG2V5fCo5Z1nUd657VY+P6TUvBIXXq4lx1owDGPn2dGTvaL9HzRhttVFQ/ZNOSb8zkJ5xwQvFPZA4OszOTs6CYTAQ9O8jxsV9IAthPJAFsCTnAzQbCB5C5lIqG4PnfgIl4IVZW/ZDaxHJxSA4Tqrx4In8dy19Qrr/qcmxy4wmy4Bc37FJwfO1E7kq74i8VD+pLwQGCGlG+1WPj+ostBadOrsOUHGDulrMw2i/Ihe8iMspn8IYbbhgceOCBxc/R/aidru9YqqlnV/VnTCxv5PjYLyQB7CeSALaEHOBmA7ESiHyAyJS1fcOvj78dMoY0IVhIDpUOKUIApWdxrHOocEy1AcSIPyG1TsQvf8GAwZhvoGOqg7LzI++gEkEaSCJTLpOsa0qzwh+RjyGlr3psXJ85FsmUqiVgrWJ+jurkOvwIA9TIavulfRHJTGXkwxjtpx66HwLpmGi/c9UpMRvI8bFfSALYTyQBbAk5wM0GQgGkijF1MgcjRoq1bpEd/YAyxk9ObkBRv9XjfLZf0ERgHAKIxMmxJ6hiKQLIxOw4BG0SBFDd6+33md9gKIPaL9jE/S6++OJ5x4lSdt3EbCDHx34hCWA/kQSwJeQANxsIH0AkqxoxC9ddd10hO5Q5n5lFpX8RLFGHYJDqADsOAUSurKYhYfNSBJDaJpJXnr9JEEDPod5+4NunXtH+MAFXzcdQb39ieSPHx35hVAIoRVWifSQBbAk5wM0GqgSwSpZA5C+yI8DDZz5/giqa+kV9gB2HACJoAjes1LEUAURKLb/knEkRwHr7wXug7tF+kcXuJ+N/FfX2J5Y3cnzsF4Z5P2OM4fvMj7gKPtDGgMTKRRLAlpAD3GygzwSQ+VdgRxLAxMpGjo/9wmLvp5WQBHx5r6PEakAB4wufY+ujRyJ849EPf/jDMjYo11xzzbxzEiuOJIAtIQe42UCXCCBTq4HY2r5LEUApXASeCMRIAphY2cjxsV9Y7P00rnin/aCU/gmpq6/la430KkGsF8nhBYJJDXXsscfOOzcxPpIAtoQc4GYDXSKA8vdZok1wx+qrr17uC00E0Oe73/3uJSmzwJE4Nq6fBDAxTeT42C8s9H5KBm/MkU/UeLQYDjjggPLuW1FIons/Oo1ZxgfkcZVVVin7q/lREyuGJIAtIQe42UCXCKBrI2ivfvWrB1tttdXc8m51AshBmwnmVa96VclfaH3g6lJwSQAT00aOj/1C0/tJ5ZP83vuM0C0F4w6/43XWWec2QSJWQ6IeulbVGpFYMSQBbAk5wM0GukQAbRfVi6jJQxjJo+sEUF0kn0YU1YXPYDXRdBLAxLSR42O/0PR+8vNbY401ylKSwwBhjDRQ9fcf5BJNAjhZJAFsCTnAzQa6RAAvueSSsoLHMcccU5Z9s74w1AmgwdcavE3HxvWTACamiRwf+4Wm9zPGNysQDQuWh6b3H8KXMAng5JAEsCXkADcb6BIBDOJ2yCGHDJ761KfOndNEAH/+8583Hlu9ThLAxLSQ42O/0PR+xvj2j//4j/O2L4ZQ+ervPyQBnDySALaEHOBmA0kAb0USwMQoyPGxX2h6P5mAJZPn1/frX/963r6FYKzx/ls+s44kgJNHEsCWkAPcbCAJ4K1IApgYBTk+9gtN7yefPmRtWNImvYtjn/KUpwyuv/76+u4kgFNAEsCWkAPcbCAJ4K1IApgYBTk+9gsLvZ+UP2lgpJLaf//967vn4LgnP/nJ5d03fjQhCeDkkQSwJeQANxsYhgBadYO5ZNYJ4He/+93Bv/zLvyQBTOT42DMs9n4eeOCBJfeo99pKH8aZT37yk2V9b++75M7rrrtu2b/DDjuUsaAJESDy3ve+t74rMSaSALaEHOBmA0sRQMlNRdhaC3Pfffctg9wb3/jGecdBfYBdTgSQk/h1111XCCAC7JkkAZxt5PjYLyz1fiKB8vshcFGogtX/d9xxx8ENN9xQP3UOrAP8CT/2sY/VdyXGRBLAlpAD3GxgKQJoEHzGM55RSJCBzV99o476ALucCKDzfvrTnw522WWXohBYgi4J4Gwjx8d+YZj303j00Y9+tCR0vte97lVMw+utt175/9BDD60ffhvwCzQuNPkHJsZDEsCWsOuuuzZO9Inlhc997nNl0PrKV75SSE4VVC+/fJlDLIP0ohe9aLDBBhsUk3AdzCWf/exn5/7/zW9+M3jMYx4z+PSnPz149rOfPW+lDsd++ctfLgSzeo7t3/zmNweHH3744OlPf/rcOep21FFHlRQMrvmHP/yhkLemY6vXsUpItU2WaGLCUSfXUceA51BvP0gwjfR5H774xS8W8uiZqEMV9fYnljesIPGmN72pvjnRUQxDAKuwsodx0d9Ee5gZAmh900svvbR01FFLqBFxvr9ge/3YxUqEtvv70pe+dPCyl71scPPNN5doqVHq1nT/eh2HKY6t379ax/rxi5X6/ZvqOEyp37+pjsOUpvvX6zhMabp/vY6LFWtZnnTSSYXUUdmq+84444xCdvwQuOyyywY777zz4NGPfnRZN/P888+fd+xhhx1WruUzMnTxxRcPNt544+I/I9P+K1/5ynnHut/JJ588d05spzJ+6UtfKveIcxz71a9+tUy6rnn66aeXBNBNx1avwyQTbbryyisHb3jDG4ojtzq5zmmnnVacu+M51NuvWJnESiP+7rHHHnPLPalD9bhq+4cp9e+o6XscpjT1o/q1hylN92+69jCl3o+brj1MaWpH/drDlKb7N117qVK9zite8YrBS17ykrGfUf3+TXUcpTjHHJJohmc0CgFMdAMzQwD5FjB16aSjFpMRxPn+ggm8fuxi5ZRTTinnnXrqqYOtt956sN122w1uuummsu7hKHVrun+9jsMUx9bvX61j/fjFSv3+TXUcptTv31THYUrT/et1HKY03b9ex8XK85///KKsUff4t1X3IVHIDhMwxY6PzOqrr17Mwkwl1WORH9fyea+99hocfPDBg/ve976D5z73uYVsIV7VY93PfeOc2I5kvv71ry9LwcU5juV3aMUP13RvkXZNx1av40dMtEkKh+c973mlLurkOp/5zGcGxx133NxzqLdfYV6+973vXXx71MNxnsli7R+m1L+jpu9xmNLUj+rXHqY03b/p2sOUej9uuvYwpakd9WsPU5ru33TtpUr1OvrFE5/4xLGfUf3+TXUcpTiHn26iGUkA+4mZIYBdA18vZq/E8gazJlMv0nb55ZfP20dRQHb23HPPonAhUE960pOKElfHFVdcMTcZgqjhxz72sYPPf/7zg+c85znz1up1LP+8P/7xj/POsb26vFuco27HH398IaSuaaKkuDQdW73O3nvvPa9NjuHIrU6uc80118zt8xzq7QdBL5tvvvngne98Z/FbZOb1TNShinr7E8sbfE6ryw8muo1RCCAVlntKmn/bRxLAlpBOzrOBYYNATHhMqshf08RXH2CXSxCIH0GvfvWryzWZgTMIJAE5PvYLo7yffrw+8IEPHKyxxhrF5ePGG2+sH5JYSUgC2BJygJsNLEUAV1111UKCZjUNzN///d+XABNqpTQw/AczDUwix8d+YZT307h3u9vdbrDJJpsM7n73uxdTP5eWxMpHEsCWkAPcbGApAsjcmYmgMxF0Yj5yfOwXRnk/Y9z70Ic+VKL9Lf3mf+q/YLLEykMSwJaQA9xsYBgCmEvB5VJwifnI8bFfGOX9jHGP329gn332KXkBle9///vzjk9MD0kAW0IOcLOBJIC3IglgYhTk+NgvjPJ+NhFAMF4JOLNPPtFUA6ePJIAtIQe42UASwFuRBDAxCnJ87BdGeT8XIoABaqD9d7rTnQb7779/fXdigkgC2BJygJsNJAG8FUkAE6Mgx8d+YZT3cykCCMYjKbEc97SnPa2sSJSYPJIAtoQc4GYDXSKAl1xyybzcfpFupokA/vKXv2w8Nq6fBDAxTeT42C+M8n7GEpiSuy8FgSKOVYxPmTJmskgC2BJygJsNdI0A7rLLLqXvWX4tkjvXCaC6/OIXvyj5+dSlemxcPwlgYprI8bFfWOj9lN7Ku10t1gT3jsd7v1CJ9cD9EN1ss83KOdYlt+pQYjJIAtgScoCbDXSJACJxcgyqy+Me97iSfw/qBNByWfIRvupVrxp861vfmndsXD8JYGKayPGxX1jo/bSkY0T3Vot3XML3+vZ6uetd71qWipQ0OpRAq2glJoMkgC0hB7ilYTkwhAAxWZHiGm1FlHWJAL797W8fbLHFFoOHPOQhgzve8Y7lvlAngJao89n6vE94whPmHRvXn0UC+Otf/3pi/TFNWYsjx8d+YaH3c/fddx/c+c53nlcEdwQBrO9bqCCAxiPFkpWJySAJYEvIAe5WWIOWM7DnUS2WRLNEWvzqW9Fyj3vcY/C6173uNvdZrEhQ+spXvnLwpje96Tb7FPU+7rjj6k2ah64RQMfe7373K/f9wAc+ULY3EUADt2z9j3jEI+YdG9fvMgFkdopl9erfme+Ssum7re9brOg797znPW/Tr8YtTFlN9RumT80CPIum9yDRTSz0fl5//fXlXa6Wyy67rLwD3vv6vmGKayYmgySALSEHuFthKbAHPehBZTL0PKJYF9Ygse222w7e8Y53DB796EfPTZ5MA45nHqhPrFHWXnvtssRQ/L/aaqvNPfNhi3vvtNNOt9keZYMNNih/F0OXCCCC9tKXvrT49LnvYgTQ6iSeIUJSPTau32UCSKmjWr785S+/zXem+E632Wab22xfrKinPlTvZwsVfZS5ne9SmLys+6wvi2r0/2te85p599CnH/zgB5fPs44cH/uFUd7PCAJZLAo4sXKQBLAl5AB3KxZ6Dtdcc00ZJESKnXfeeYPttttubnK9173uVZZOu8997jO3bZ111immzSjWmUQiI5UAM8KFF15Yv82SQHQMWE2gqL3hDW+ob56HrhHAl7zkJYOHPvSh5b5LEUDmFtG/1WPj+l0mgNq94YYbNppZrTn8ta99rb55SZxzzjlzRO5Rj3pUeTb1Puf/6I/rr7/+4Le//W0heeG/ZN3nc889tzxb/1999dX128z9EJp1LDQuJLqJUd5PY7f3x3uQaBdJAFtCDnC3Avm5293uNnjuc587+PGPfzy3/eijjy6TJBWOiiIVya677lpIHeUNuTDJxoT7+Mc/vpCVKEx8j33sY+epgMjgDTfcMO/+CwF5kILApO1aTXmohvkOqwRQ9FsV8UvYQOjz9773vRJ8wUxZx89+9rMVJoCcp5k/N95446EI4KQVwHr7wXcqwCTaH2sBRwRgoN7+xaDdlLTq/cF36IeE71S/c9ww4IuqntGPTF7UvHqf418Zx+jTe++99+DTn/70YOeddy7nb7nlloPHPOYxc2ufHnXUUXP3QIB33HHHweqrr176wKxjmHcr0R2MQgBvueWWNOV2BEkAW0IOcLeCimbZnwc+8IGD3XbbbXDkkUeW7UgIEy8lj78Uskf544e15pprFnLmb0y4wxaTbJMyVIUJX50c/9d//dflL4dl/opVUGuqZE2d6/jc5z5XBrsvf/nLxbdLguUolE3XZgY/44wzCnGiKDJRIjzVY0866aQVJoDvete7Bo985CMH6667brnvYgTwIx/5SCEjCEv12Lj+qARQPTy/apuUl73sZYNXvOIVpf177LFH6Q/uRymrHudcZGohVJ89MkUBrAb+OB9pc+2HP/zhg7vf/e5FQT7wwAPnjlkIH/7wh+cc14ctFGfvtx82D3jAA0rfve9971vMv/o0NTH6oWTbni+ztXN9D7OOHB/7hVEIYKI7SALYEnKAuxVIwwte8IKi1PlFiAAiTUxuVBQq1POf//xC3OSwe/GLX1wmU2Y8Skx94q0Xk32dKFrZwmCFJFGCmEU/+9nPFpKGWIbZWEE83Z9qROFBzJj2AHETJIJoKZ/61KcGp5xyytz/CiIl/x6Vi/oUjv8UI/5giCUCJ10CIkTppHqql/2OVaiZCFxgHAIYpscoixFAQSDqhkhVj43rj0oAmfK1K9qvbczdnqnvI9rve3Y/14r2O8cxPnv21efb9OwvuOCCohJTXq+99tpCILfaaqu5/oCQSW0ThMtz9d3rA9Q6z97zo1r63qrkT32rSt9CBcH0XPkh+k71XW3Tl5iKEcCLL754cMQRRwz222+/UtcIMqk+61lFjo/9QhLAfiIJYEvIAe5WmOhNiiZVkyCceuqpZSKm2Pj7ohe9qEzoooI575uQ//Zv/3ZebqiFiuMpXo4VSILUrLLKKoPNN998cOaZZ5Z7SSvwk5/8pChMzuHjhTSKgOX4jxDEvZAYUbTSo0RaAuZGxWcqT/yvuPd6661X2kjd2nPPPQt5QpKQEe2jQiG/TIaSnvJVROqQS8cqT37yk+fl4qNyUefU+dnPfva8fUgqQuMYpCaA3GoPcqIt/oevfOUrxRxJ6XJN+MQnPlGelQCd6rFx/W9+85slR2DVrIuwUU7VyXWCKAOyKJI22s83TpucY+1P7T/ggAMGn/nMZ8r9mEsd41jneHaeoWdZfb5Nz15f0U7XoHiGyVVB7qu+enz3/DV56QN8EBFJfcP3LwcZYuYzRVS/8yOk3s/qRX9RX89a0I2+q14vfOELSyCOY9773vcWog2IavygSQKY42PfMAoB5N9trF8qpdIPf/jDMoYlpockgC0hB7hbUSWAoRiJ4jRRInp80KhD1BOkiYpFwTFBO4/J1KRJcfI5CsXMdkqLdCbIjAmWqhgqEPPu61//+qIAUq6QQvVAHOJYJDTMwBQ/5NB2xM7E7ntUbwWBOuGEE+b+V5iIBV0gjhSvGNConIgkdeiLX/xiafNee+1ViJI2UsO0N4AAIR4GWgVxVS/qFZKLLMa+ww47rFzj5JNPLspbbEeotIO53V/Kmu2O/epXv1r+5x9I1dM3HXP/+99/3rFxfaTZAE45jO1ULqROndQNkYp92sIPLtpPXdNG36/2M9d++9vfLgTQd4Vo+QycxrWDiofAUYerz7j+7PmS+v6QQG4EvjPfk3Z45hHMgZz5vvny+e71AX1Bn0D4mG99x3xQHet6FOkg0PpYtc9RsX1HPj/nOc8pZmdt9ty1Xx9G+Dwf1/rGN75RCC54Lq6dBPBW5PjYLwxDAPng6vt+UA3rUuH93X777QsZTEweSQBbQg5wt6KJAFqHlomU+dVkTWlClKhiTIEmcZM8UhW+ekyVlLAooezUU3dQcfxFCqtKEMWPTxgVKQYexWS/0UYbFUL6q1/9qtznoosuKkEKgiqqPoBIXT3QIYgbBYhzP/VMOxEl9dR+7UNyPv/5zxfzq/sI1kBMmC/BwIlgGGQV6hF16nnPe14hba4X+5AlqilS5NnGdmobEoJcUfYQR9sdK2WJZ6z9yJ37NR0b16dcUrKQ2tju+1AXdVI3x8U+10f2LDF3+eWXFzKHGHkWVh6xnRIpSle73VubPAv9gQqrDsiq8+uoPnvPUp0vvfTSknPMd+Y6fCuRcd+17xXR1B+oivJEhqsAhVjfQPL1k/qkxB3AX/2i2ueQRs/AZ0T19NNPLy4AfFj1XX3Ad61fIXuHHnpoIb+QBHA+cnzsF5YigD/4wQ/m3huFj6z3QV9vKvzBvZPhpqH4QTZsEF9iOCQBbAk5wN2KJgKIJDFBInomS75SSJRBAeFiSkPCEJYwx1H1qDdREBGEjmoXzv8KlYfCJ5rYgMUXzHbkiB8ZtZEahlia4O2j+AngQM6YGMO0Wf8Om1KdRPsQAAQIiUOykBtLswmCYDKlajF7aLu28Quj6mkr0ykFzrUCzKJIDNJEbaqu1XvFFVcUJRGZ4ocW4B/3/e9/f3DiiSeW5xDnUB6pVYgfVUsQDBLVdGxcn6maybpKxrQPcfP81E1QR8C1kEBKGwWSCV27TRyIm+fr2TPDUh2RZc/Isc5xbQEU/npGdVSfvXb6npB0z8BnJJNCGCSPQukHBpKMhPE91QfsQxj1Df571Lww2Sr6ku/cd6iPVfscpdD37LMfKqeddlr5Tn3H+i4Cqi+Hb6tAF6QfkgDOR/3dSnQbixFA5E+/9sPKe+CHTz3NUxOkSTInGBciDZjxxdiUmAySALaEHOBuRRMB9JfyRIHxC5CiREkxSRpoTNDSxCAmSJKJmmrkcxSRllQoPnAm5JjAEUtmOM8ekfnSl75UfokiD1QipARx+OQnP1mICCLDUd9EbYWJanqR+ne4EAHUFvdQL21xLSSGOojEUvscg0AgTUiblChMuAgRMyRiVk2cSnljRnHssD6A4bvHFEOVinPqPoDar41Nx1avs5APIELlF361vo5FgHyfnhGSa2D3LJh6nec7ZFZmnnculdf3TaVDxKhrlMlhCaBJxmThMx9D9/Jdqhu/QPVEfBFWRNH5nqXvFLFlvtVXkOnoP35wUBuRR/6F1T6HqPp+fWa2Yh5n5tanfBeuZb9ngATqe+4NSQDno/5uJbqNhQigH1b6Oxcd78O44CNrXPB+VF1jEiuGJIAtIQe4W9FEAE2+JtHID4j82C8yE4ETBYxQUOh8ZipwrM9RKIcURJN1+L4prsGMGM/evRCggEFMeg4EiiM/EkrJQQKQiHEIINLAJInkmNxD9WFC1k4KU+SHUzfExP0BiXEMNYwSGD511DQEMEyjVR9AJAdhRiARxdgevnuIBxU0znFPvmgiiSljTJfHHHNM47FxHUSNYoogxvbwAdRGdeNLV60vdQzZDQVVG4899tjy3OxnFlYXKlusPaz9ros4IV22j0MAETzfoe8S0ULumbH5UuojAX0h0sf4fuP7iv7z6le/uvzvfO4J1T6nv1Cd1dOPFPfz3fiBot95jvqytiC1El9H30sCOB/1dyvRbTQRQPn+WGz0ae/5isJ7z23DGJM5BCeDJIAtIQe4W0HRoQwxjUbyX3+RIuqbyZI6hvh56fnEMfcyD1DQkAMEknrkc5RQACksiEhM4P5HbPgYAhUwyBYIRGDaDJMDvxXq3f7771/2I51RTwQurgOIW90/Ldpn8qfmVSNjkTNKEXKl/fzTqJUIAIUtEOoU8oGoaQNVDlFiXhTk4P+IGOYfiGxSEz1H29SN4oaMqDPzZZzjeVHYkBUEBiFC7hBnxyIzzK+u4XjkT509d35+cf3IcecefvVrW5zjHlQ/bQloI1OvtlNz3Qcp89wR2Gr7pdKhkDKpVp9hoPrsHe97Yva9+eaby2cQZcw0G36hTFKIGXN2wLON6/h+PTP1j/7DdUAKolAAq31u6623LkRff0X8RTr6Lh2v71KV7fPcqJAIoALcC8In1T1nHTk+9gtNBNCPLz9q/BicBGGTLN4Pe+9t0xiQGB1JAFtCDnC3pnth1kNg+LoxQVJyqDyCLkRyUuD4uCEslBxmAGofpUj+QCY7yhkH/KpDvkmfQuMY5DAmcP8zuzrHvaQ3QT4oMcypFCr3ieMVpIb5DnFUn6inCZ9q5bNickeI4n9F+5zPl43fHjLgPvYhSHEP5Alpo2YiF4iKY5gPkRKEiAIoabCk0EgCkqUP8WP0jOxTEDf1dD4fSNuQGqqpa9kuJU6cg0hT5xBuhb8e0oMAORahQ0yRZcdrAwKILCI+cX0ElcLlnhQu9Y1zfNYG52qT62qvtiKynqXvzXdmgPcdVdtvcqHoei5IVfUZ15+9+2h/RCr77PvzzJhpq9+tHxO+c+fpU/qCPuE7Qog9F0Eycbzz9U0TUT3wyPfsuap71MfnSFXjXp6571g79XP90b3VFSl0D+d4N2YZOT72C00EkAJPsdPXm5Y9HBVUctfyngzjQ5hYGkkAW0IOcIPyKw6BQH6QQE76lC6BBwgBkxqTpMnVhEwlQSiQO+bNSOGCSDChVh3ynUdRiUk2JnCKE382hNG9wtSL0Hz3u98thMPnWAFD8QvWqh1Mo0x/UU/qmnv5rJjwpSuI/xXto7RpH78+fjBnn3122af+SIGAAmQKKbUUGtLC/yyuwXyClPGjQYCQFPWjZPEPRHDUyz4lEgo7xvVtQ1pEplIikZgwg9qHuESeQ+RLPRBbpNuxVC0E1jUc77sJfxz3iusjRJEeR91EYsc5iBFlVVuiXdrp+3AMNY3q6rtBCJmEq+2XK9B1PTP+itVnXH/2+o+2MffGd8bXj4rouWprRPdG3kLBGfF9I6yCUqjPyLRrxz7EDgHVznoQiOfNSZ2KifAyo/urj+m7VEp9Wd/Up6jDSKk6q2sEqDCb/eY3v6m/LjOFHB/7hSYCSAH0g1Jfr67KMy4Ep/nh5R1JBXAySALYEnKAuxUCBxA0UaHxUjOdmRxNiExpVBhExGfEALFjpkQGTLYm3SYCyATMX4uZNCZwRNKkaxtIFWLg4jdmgGEONMEjbnEONcs+ZgwkJ+qJTCyVBkb71JECxPRHPQy/Lwobdcn9KGfqbR8zJ7IInJ+1E4lEAPnpMcsyhyIxFEbkLPYpSIdn5lnxl7FNFDFii2R5XkhRnIPwqQfFS0oU51Hz3JNihZw61jUc7zpUKvuYROP6jlEXdfLLX5viHPVFqFxbm4AJmMkdAdR2daBSIo/hB8fc7hxmdPWg0vkRUEf12cdScBEFXP3OEE6mdvVEjn0nTMPgf+1HVhF2JJm6GushK0i/PkW5rBPAahSw7wCxtI0Lgb5Liab6BslFSqMvMG+FD2A16fasIsfHfqGJAPIB9B7r05NY3lDCfONKrBqVWHEkAWwJOcDdiqYgEH+RQr8eTcDIGLJhMDF5IoD85xAHRATxoGLVTcCUK+pNNZcUx3wqG1LBqZgPmEnZACYXnZQoCFaY4xTEhS8ZVWacIJCIAhYRisxRgtyLWdJgZjvyI5CA+RJJUahQVCtkBAGOwAhwHHOI9qhfdZk49USk+MBVA1xsr6Z2iXOQMEmbPRfPG5CnpmOr19l3331LAuuAZy1oxzP0S71KZBBaxIj5XnQvX05EXESftrgHUsV/kULnfo7xPJ3jOa9IFHCQRn54vlPkGeFyXaQfaUTIfB/6GYWZ6dv34BlGX9CX9D3XrJuAq3kA9V8pL5BghNs1PRvmZt+l744ymFHAzai/W4luo4kAgvFBX/eDBwkcVwmUCzSSR8sAkZgMkgC2hBzgbkUQJApeTNJedtupMZQak7DJ0wBCUWN2RBwELlDXKDdMm1U1hjpj4Kn6/ymIhknadeSjihVHTMYCPUzIiFkkjFbcGwGkXJn4x8kDGGsZUzrDrB3ql4GTWRhhokgiXaJvKWdILFKGjFTzAHomSGpX08B49ghhAAEUDW277xSh5xOJdEnWjOwK9BEoo11IFlLsWOf4rpH9cfMA8kHyHbpGlcxpMyKLbFqZA/nUp6Sv8EPAd+zZV/tQELi6AojsaaMfF+qLUOtvvmN9Vz/yvflOqduiqSMRNLIaE9wk1JK+o/5uJbqNhQggUO4i8MqPd/2blcf4FCsDVWGpuNjHZcaPvlgm0TuUmBySALaEHOBuBVKDNJgwvfiAACIcFBFmSeQAgUKIKGiUorPOOquohjEpUwAjH5vCjFedtOvFQCLSFSlDsJgWqWnVpL/VgqQiqFQf/mJMdky4vsdAkwk4VgIJ8nLGGWeU9vF7ZNZEQKhpBjsmw4D68LVDdqhYTKmISTWtCpJKLWLCradpaVoKbrE0MNWl4IZJA7PQUnDItQG+ngZGRDJz+fnnn1/aH8cFkED3At+r/oB4OvaCCy4oz845w6wE4lkiWf5XfGcIre+8/r0qvh/3du1QnJFRZvDq6gX1oo9V+xylNvYx/UqAq83UQH1XH9aXfV9ILnIdBBBR9UNBoEtVbZ1V5PjYLyxGAAEJZOGI98P44EeUH0IsMLH+r77PdYcFwf44nhVAcvzEZJEEsCXkAHcrEEATs0EgzIl+HUakpYkViWEmpOCYyAUXUMwEBcQA4Zcl364onPSrkzUTBJMyRYlag0QakPjEMfuZ+KlfFEMBEK4nWtMvTwOSa/jOTPIGLYEblDwTPMVJUUfqXfyvIFXqibxQf6KN1CFKZnUtYCQE+ZIYGRFDHgPMv4iYQVZBIBFAhNXz0A4qmH0LLQUXS7ghZp5RLB9XXwqOaRaxbDq2ep3qUnDuLdiD6d12dVOnOEdft5pItJ951LGIFqIqCbcIYQE2/BN9P0GEmJy13/ekHghh9RnXnz0l0PfGzGvi8J3xyRO4on2+V75EMbFQ9Hz3+oB7qLcfH1RK3519vvPqijJL9Tn34V7AT5TCqu96rp4dM7BrMZXHWsAUSko2YqifzDpyfOwXliKAoI+zunCH0c+rbjb1Qp2335jivfFeJyaPJIAtIQe4W1E1AYeywxxHHQui5a8J2QSJNBgcEDkRq/WBo16QviB/FBumCOcjWAYjZNBEj3RRqZzDlMcUiAhSFhGxiJKNXHlhIkY0Is2Hz+ob/yNmiIyCMCEDZ555ZiFBfPsQLwOcCFcEQTAC0yo1i6lY1KxjkSN+jlXFDIH0KxpZMVBW/QOZqiO3HVWzut0vcSST6hpEw30oqkyyCDAIemk6tnqdgw46aE61BaQx6uQvf7tALG0X7ad68l3UTkSIw7jo2/gOfC+ei2PVzbNDLJFmxB0xi+dcf/ZSCvmeKYnhl+eayB4SLRo6TFKij/2lBjOX6wsUQRHFCKP+5p6Ocw/Puml94HqhHPr+neP713f1YXVQT8+HvyN3A/AcY0JME3COj33DMASwCi4PijHYuFEtCB9rS6Z6mT6SALaEHOBuRfjI8ZWyAsfBBx9cCBCiYEI0CfMtQwCkA+GnZxt/rUicu1iJibu6DZlDoJhcqTYmZSSHGZTySNlzHJUImUF+TOjIEZMiRcrgJEWIAA6qpILwULN8dsyFF15YzH+R7xCRUHfmScQCQUFm/CKmJKqD+/Hpo3Sph2Odg7BQ/dSb2lbNIah4FhREbQoFkCrm2UauPIQDiWJepVghs7Yj2/qiayInzLsG4qZjq9cJBdA9+RzWVVfXc7w6a6M6RvsRcGQMYaMAU0q1m5k0Iv2q7ffsmMT5SLqe/uEZNz17KXuQQEoyYuU7cz118jwonZ51+NwxNfvu3V9fUE/1Rs6QRT8eok1IrDpV29lU9DnPRH9ivtZ3+RT6MeHHix8lEmMzAyPH/EqR1VQAb0WOj/3CqAQw0Q0kAWwJOcDdCr5+SI+JlRJF9YnFvk3QiIdgCZOpVROY1ZhkqSTVQI16MWlT8qoRwAp1h2kxVvMIchhKjBQf55xzTiFFtkdkJtWH/1YV9TQwom4DJnQKmXtRF6WdYYaksvkfiRIAoQ9QiJCbUIwEZJx77rnFZGpQFfCCPDBRqicTZyyxFAVBRMj42FkKzvNhEkXQIlcefz3kjsk5/Pps5/vGTOmalCo56UTaNR1bvY6CwDDJal+oalFcz/HqrO7aGu3XNm3kTylxNHKNDPp+ECFRyZ6RY7WfKRqZ4n9IIRaAUlUIqs8+0sBUIw59d2HCRSiRb8+amTz88CgP9lOcgckKqaYMBlnklzSMAuheiDh/P3XXd/VhfdmPAdejsgI1lQKJmFKX0wcwx8e+IQlgP5EEsCXkAHcrmC4pchQi6l8AATGRUmVM9syjTIQmUOoZJcg+ClU1aXO18CVDXuJ/5AIpQDpNvjfccMNtcq8xTTJDAhUNyTSJNy1kvtB3yHxBURLAQCFkxuTrRsVS3JNJlyql7cgAAsis6X7+UgCRJkQGUeEPKRoVqQQqWL29SAcgt56Z5MPDpoGhUo6TBiZMwHWirYQJWJ2ZwKmd2k9h851pI7M8RYwpWFuRQG31bBD48MV0HkXTjwPP1vdPpYscflVEFHCk6wkgj75LdWV6R/RFUWsLIIPq7Xn/6U9/Ks8PiWXyjvQxSxXfqz6pbyK4+hVFT99lVva9UDkdi+gH/GCIZeqq5vxZxULvVqKbSALYTyQBbAk5wN0Kz0EAQh2IhUkSWWPCM9nzC+M3RsExuUfONUQBSaCgRWG2lJTXZBumSaZGihL/O+qO64YCKCiBciS6FyEwcSM6SEHVz60K5jyTfRVB/qQzYdpzXRGeyAtSElGlVC9JlON/Kih/Q58RIoqaY7QjyIXIUuc0mYAV6hQ1i5pEsXMc4sUPUBG163zRy8yrTJ+2O9Zz9nw821gLuOnY6nUUpJFKVo3YixLLuTlO3X0v4bcpEIIy5rtjrvVdIr4USKTPfiZ2xzIJOzfSyvAVpaaZdBDAOglEAJFJLgV1ILa+W4RL3SnOvnPffSR8ph6LStZHgmjqS/apm7rEsnnVPoekao8+SbnWzyiwCLS+K7rYdeM+TctjIZw5LuT42DckAewnkgC2hBzgbgWSw6cqcq5FQQ6CRCAxEbUZRAfxMskij0yffLVcI4oJm6qGfIT/VxT5BRG/6jV9pjyZ4EMV5I9lklcfvor1gpxJ7xFATIL8+YtAIip80Swz5/tGdpiX+bzFvamUzMOiUal8SG4ELlDKwv+QqVZamCYTsELZch3XoK4hUQJZPGPFc6SAeTZ8/UTH2u5YPnHUP2QZ8XKNpmOr10FaEVXfVZMCGCZgdTY5+K6QYGSw2nZKK/Kp/cho1cQaCi71VoBM9VlT75iBqbNVEohYUVY9i/p3pk4RzOG6oUjWIxL1Md+9vlI1bfse9C9kXan2Oc/Rs9FOfdP9Y1m+KIggQuiz/dU+7xqIa44LOT72DUkA+4kkgC0hB7hbwTeLP5hnUS2ej6CH6uS5osXkW3XgRxCpbcgN82mogZFA2nbkgL8YslMvSAv1y+Anv59o1iB/EdFsUEQAHSeal4+eiFcKm/u4vnpQCgWsIAexPq79zhGJ62/4qkGTCRhhYXY+6aST/l979wJs7VWXB9wAFm0VlRLuKYiAWhAkIHihRVABixYVRCqgghY6TlsQJIrgBW0BtdGZFiuCWEUKhktIgJJAQiDhkhCC3BLoENIGEDpKHBIIIffd+a0zz+f6VvY5Z3/nO9+3z3ve/zOz5uyz93tZa71rr/Xs539ZTblUJ+ZEBExhcnSedCtIsTx33uejp+7ILLWPaZTpd9mx/XUUaVvUbQy0UfooYL6VjuPzp78ExzCXIu/UzCigCCcy5rkghlQ07afWUm97UFtdl5qHBFLzXFsQCPJr/IzPzLNEcrUzfp6K+yHAFEg+piNxC2nbraJumQP64rsgYGTuqPlxWigCOE0UAVwTaoLbHkx4yUm3VdGPFCy+e5sVkxMfQ9HD/mfW48OGpCA31CTEzWdUOwEpUqkgQCKPnbus2OFCLjcEirmwJ3/gPkySgleQJf6APnfP7DVL+eL/hQBS3qQiCVEQSYzgCIoIAULQtHckFQij9tlmzl+mTe0K3JcSyb+SzyVTJKi/gBRBHdQ5YBLNsVRYxGS8DsIlIIMyt8wErI7yNYK6p/3eo0wy+bofP0mEiD8gpY85n/KJeIr21X6kVgDJiJBAvp38GPMsJGEen5VCKfRM1d//xoVnrg2eOYUTUVSnpAbyDI0Bf8dx1RemX2NxHJ9jMaaXmacL/4CaH6eFIoDTRBHANaEmuN0Dh30mVZGWWxX+axb6/I8oWLiRMYEQHPS97y8CpXgd37ftCt+5cZcKpAGB4XfGrKuenj0TNpUKUaJKGQtUJqqYKFjHMBFGDeVb5n8Ko+AC/mQj4WLC5ncoCtj9ttoJBLlCtkKskF51o8LpC8oslXKrnUAEtniNHCVPYl/UUV2peMyiSK57IFlMx9rPjO6eaT8y7FxqLXXQsc5hcuZPtwxIILKmDeMzWVbyfL3OWDAuvMecTY0Veawf+rEyjqexqGdtUr87qPlxWigCOE0UAVwTaoLbXSBeSVNyKAU5oZiN7++kJLVMjyiASAdygWxRqbzPxMxnTISoiFOKJFXt4x//eMtX53jHKvzL+JXJuYe42TJsJFxUOGoYky4ChaAxJVMfFalhKFshlHwLKXGUx+zjKz8fEsYMywTLL41Sh4CN10EKBbd4b5kCyHdQXZEpvneulfYb+1Q/KiTSqv0UOfV3rrYif451jr7oI5pH6PvxeeykUDSZuam542fblZH8F3aOmh+nhSKA00QRwDWhJrh5ANHjA8icjNBk83NqIRLXbwVHZaJKCfZAsBCnQMQxEsQXTmSufHEj4ZK/zud8/5A/+fn4Ama7NGqfSRoZtfuKc/xFAGXkdw8qJfLoM76IIqIF2Lj3eB1t45+HMPXJklPkN+RXiNAmz2Da71xtRAC1nwmX4kbJE5CjXjF5S/3i+6JvCvNAzY/TQhHAaaII4JpQE9w8EALI54wChixJYUPR4zMmMhUhQ3KoX5QwwRLMowJRKFIgD59zBF4gjYlUFnyRSFkqHJ8/plvkKmlgoiIy24rwRSCpj9nmjpLnr6AWJlmm15igHUsVlAYGQWMq5TcpupoZ22sELgqgfH6pm7/qyucN+UP2qK2UMsqjuugLSZy9jyRKmaPd0vdor74Q2IJI8t0rzAM1P04LRQCniSKAa0JNcPNACCDTrufN945pFLkRWCHow8QpgEHELtOjwI/snSttDCLGvyzJmB0vXYh0KYIoEMueADKZ8mtkLt4qD6BgB8cjYkzAVDfRsIgiEhkCyCeR/x5F0Gf8Cvn3iaJVl54A2h2FeVndRFyri4AHQRn8AJmXk/hZ/ZhOtZnfInOy/yXwdi995FjnUE8R5cI8UPPjtFAEcJooArgm1AQ3D8QHkAJIYZPjj9JHCaS6UdYoaUy1/N4EXVC6RKQK4hD0wQcPqeJ7B1Kl2LOW2dU5ScHiPSZgEb3IJROwc7ynLEsDQ2Fkaha9jBxSAKWqkQaGuudYJmBEUhCGuiN8yBqVTnSytri3OvR1EhgisAOYkhFG+QKRPPvg8lUUuCH4wrWRTKRQMmqBGEzHFha7ozi3TMDzQc2P00IRwGmiCOCaUBPcPNBHASM40oAgUUBdE6SBUFH3mEtFzYooTfoWiY4pgUgYFYxvX3zsbK2G6CGW+Z8fobyCiFZIG5KnvOMd72jKHnMwEyyFz/tIKUWQ7x0CJ1cfP78ciyxSCdWFr540NNRDJM9n7il3njpIYYO85X+F8kjBRAaZtvUHaCOyqb1MxD53bQEoifh1T2qjXIG1R+58UPPjtFAEcJooArgm1AQ3D1C0+LVRrz7wgQ8cID+A5CA2CJ6I2OySIQikN3c6nx8c02iSUyNW9hCmlvkbBZCqhqwhgcaYKNxlPoD8+uQC9D5FEYmkMiKR2QquP5ZSmetQEUUMCxihIrpnFMCxTuqqzszelEJtCbRRWymFTMLaLy+ipNwUxr79+k60cWEeqPlxWigCOE0UAVwTaoKbB5hRmXeZMAVDMKlSviiD/X6+FDWkCgETPUstdAwCyTyLkCF11LCoa9Q6/nm5hjyAp512WvPDcx2EyTiTZkZhXkbomIUlXabWeV9wBgJohwyqHnMtorfsWEV9ED9Ez/Xd071TD3VKVLB6OFbdY37WJm3TXm11boJiRDI7L/sIp/3IKx9FfSfvY2F/o+bHaaEI4DRRBHBNqAluHuBfx58OkaIC2rLMThj84KRWsfUYdUxaF7n2kCQmUyQu+eVsDSYohC8gFXDctzaFCZeSiHT5324aro9MKqKFqXkInQhdASZIlf+TyFnwBt8+xzs3x7pvroPMIX+Ot1eue/b7KveFEuhcvoUCYbQl7dLObHsnFQ0S/KxnPaspgAJG+vbrOyZgPpEipQv7GzU/TgtFAKeJIoBrQk1w8wAV64tf/GJT//i4UQOT0JjCJtkyv0DmV/n3fIYs2mIOnIsoIlmiYfnXhVxRzuwiglz5X7CEayKPFDt/kSrnKHz+1ME+vKKIneca0q4wQzMJ8x1E6uxIghw6FlFUv1xHsAj1zud8+9zTvdXhnve8ZzPn9oqgc7zH1xCx0yaQUkZqGQRQ2/UFs/DNb37z1icgwbNztAdZLMwDNT9OC0UAp4kigGtCTXDzwBgFjMwJ+pD3ju+cIAo5+5Afyh3fN0RHsR2bnUr40CF/SCQgcRQ7yhwz8m1ve9tGtJhd5dj78Ic/3La4MykznUq+rEgQzb9PhDElT74/wSnIlj1yn/e85zU10n3UkenVsaJ6jdXxOoJZBK3Yii2RyOqiTnz/1NFreOMb39hIHl9B0b2CT9yHQqrN2sQcrA7Oo/Y5hgLoHOdWFPB8UPPjtFAEcJooArgm1AQ3DyQPIBOu7d0oYSJu+btF/TJxMgsjY3LiMRnz15P8WC49gRHyBSJF1157bfMHFDBhKzemU0of8sU07FqrbAXHnIwEisC1L68oXMEg1D7kD4F0zxy72VZwFE1tTB7A7CesburOpE3xQwAFpDhObj+KnhyBUtZccskljeyqLxNvooCRYsc6R3uQ6MI8UPPjtFAEcJooArgm1AQ3D/Q7gUjjQj0T0cukKzAEgRJ0QVkT8BCIjuVrJ3LWLiGIlRQq1D2vBYIgSsihyGHkK3kAV9kKzrWj6jlW/eQlRE4pb9Kx5NhVtoJL8Ia6qBPSRtFELB1jWzevpX3RfhHEyWsISCDSC8zaciOKPHasdmRf4MI8UPPjtFAEcJooArgm1AQ3D4QA2gsYcbPnL1DGmEv7vYARoJAlwRoIWcA0ijQ6lnrGTMrMihQ6FuFCAJE5Jl3qGfJHdTQxK66R1C5UOmRNBLD3ECx14cMnf6CdQfqt4ETp5jp2AnEME7LdS0Q6I4Dq4Fh1ElHMD1BAyYtf/OJ2PSXt5xd4j3vco9VXwmtbvokQfte73tWCRpiDk/fv85//fFM5ywQ8H9T8OC0UAZwmigCuCTXBzQMhgMy9iNEFF1zQSBDfPiSNGVZ07A033ND88ARG8K9jKuZ/51jkKEEU3nMdJmCkC3Gj0AnSQL6AmRjhhJ40SarMrEx5E/jBtOt/Zl2qHqLG11Cd+PfFP1AkMDIZMOmeeuqpzax79dVXt/coh+qgLsY2f0QmYGZiKiLSKJgj7ad6ao92SSR94403thQzTM+URCZf/eJYOQClv+GTWJgHan6cFooAThNFANeEmuDmAQQQ8RKMIWhD+hTEiPrF1MlMKvqWeVRkrahd/oEUN6TKsc6RZiW+gJQ7gSHHHHNMI3HHHntsU8wogkgWpY95WXAFBVAdFPdxDX/5+iVKV+oX6iKSpY7ec20BKiJ91VG9ch3Xp/7xHUTsjGP3Vgd1USc+gFEZ1RmxpHim/ciqtDSIrOAY6qh2Uwy11b379rt+IoML+x81P04LRQCniSKAa0JNcNuDkiVXHMXqcIpr2MJsHQgBZM5lahX4wMSLRAmAMAYQJz55zK+iae3ZK7rWNm8mVZGyTKDUNaZTwRQIknx5omcRLsmX5RJkNpU3T6AIfzsqHgVSoRbGXBzy5zz/i/6N714+kxIGUfVa/XMdQSrqpR22l0MC3du11EWdnIvgqat2ILTIadrvPW207Zx6USSRQce7jj2G9ZFjtV/qGSR5naBG7tZ4vOaaa8bLFzrU/DgtFAGcJooArgk1wW0ACeKHpj/6QhGiVIWMHG6hTPFpG++zVRH5yoSJeIyfKeotenUrhAAiYvLrUcGobPLsIXF8+SRLRgCRJ/n0/EWYEDL5+pBC/nQib9/ylre0rdH4AQoC0U/29RVUIXGzYA6mXLtv2DXDOd5TKGyihvnnpV+QT3VIHr/NCiUw10HIkDlF4Apzs3urg7ogq4gkNe/KK69sdaYYUhK1n5onSbU2Mi+L9GUK1lYkUFv1DZOyYz07fZf9gbeDnUKy//D4zDxLJnTPdvxsq2LsJN3ObhQBLsvqt8qYmgP0Rc2P00ERwGmiCOCaUBPcBqg/zHwWQ/2RQvGxUCIVggcQhSyeCIKFfFxU+4JkIRH5X3Lh9Pmqxb2ZUsf3U5hR/d0KIYBSsyR1i/potzbmfyZWJlOvESLmVcckybPCnIqI8NljPtYmJIl6x0yKKFEZmVyRK0QHIXMdhdnY9ZKzTz9qo/eRTe+pD7LVJ3JWfJ7rCABBoNRZPbXDvdVBXZIGhqqnriKI1Z3CybTseurmffXXj+qB+CKSCW7RFscyCTuXIrgKKHUUSP0wPjPFM01uw1WLsaO/+z7Zrohk1u6oqhRbY5m53f/a19/Dd8AY8XruqPlxWigCOE0UAVwTaoLbwGb9cMUVV7RFknlR6hNkIwsrsnHVVVe1CFRqk4WWGmbxRBQUJAQxYTZ1js8vvPDC8Tbbws4cVKxlYBZ1763Qp4HRTmQHAbHYpz1MpYgdPzmkRXAEQuQzSlnIlNQwUq5Ijix4YyQclLyLLrqomWj5/0kHo4+co+gPqhzCHQJCbZJ0GiHKNZhf1bW/9tOf/vQD12GiFsXMzEzBZcYVgZxjEVhkB0lXV+dYHCiGnlHS1qTtgmH4AWo/xZVPYv+5v0zDAmRWgVQ11MRlZlbqqWjjQ4W0OCFyCDMSjahmvGmXMYbUGpP63S4miGy22fMcmb09R/9ffvnl420O/BCaOzabFwp7E0UAp4kigGtCTXAbsFAiDwiAHSKCs846q6lFFCxkDkFBDpCn4447rkXGIgzMiorFFUmw4CpMihbqXgVEBhO1uh0QTP5a8u1Ru972treNh6z0DEMApXhRZ355Il6RJ4QCiWD+5dvHPMt/Lvvj+tw5UsP4KwVMwBzaE7QUfpPu97KXvazl+GMODuKHKLjCscy6EkEjaiFa7uk9fdlflwk7QOiQMdG9dh657rrrDjpWPzMpU7sCUcXagCxaLGwxxwzONGy3kCigklEjUkgkYihaWvvlN+QPuAoQQITsc5/73EHve4buo26imlf1C9WnPSFG/hBcqnTGm6hlYzDjka9lzOUCcYxdZF4bPW9jG5EOPCvkXN1qy7vVvluFvYMigNNEEcA1oSa4DSAlol8t+EjQmWee2d6//vrrmxJkYaU+ISS2DkN85Il785vf3PyoKHBIoUXVQmyhVZAQx40EySK7TBnqwYeMaROJCFlihqR29aDW9IEJ6jxCShcmYARQjjvmSaSJjx4zNdNqUq8ggBRA/n2pL9Xysssua6pcT4CQB76DOc5rqh9InryMADKh9j6Au0EAbWkHTNypDxOyFDU9aVb3tN+uJ4g9ky81kJ8isyhC5b4UXmQJeZc2Rvupmn2i7BF932s3BbAneJ4d0ta3ST2lstkOCFlUv/589c14M/aMQWPRmPSjwTM3Rnxu7CK71EEmdGM741D6GxHOzNau64fH3FHz47RQBHCaKAK4JtQEt4FnPvOZTQ2y2FPdEECkicktKUmY2ChiFkaEkWqGKFAC+bQhjxz0vU6h3FEW+ZRll4oUZMtkhRxZ3C3IyIUFG9GxkDsOoeH3RcGh7vC7Q34QEuAPZ3HPDhlUPUQt/ytImV0uROciBXH8RxKQBvdxXWOB+kcVEwXrGGZh73vNV4550URLFaNupX8U5MH7tlI7/fTTm5lRgmUmdOco2TIuBblGgCh1MQHz/fMeUtYfiyTmOm9961tbWhuBFqeddlq7py3sEkhCuUPs9JU6OYf5V79rv35DsLXfs6KKpf3IcOqGMDnWOZQ7YwW56/t3Wd/bOYSpnRIqZ6GdTRBO1102Hjwbz94YMBaMCWODevusZz2r9S3C5keAZ6U4zzjsx5wxaCx67ceHMYok+tFh7BrDxrJz1YEaesYZZ7RtAtU1QSaV7qbmx6mhCOA0UQRwTagJbgMWdQTLomoRhPPOO68txAiFSGDRqxQ9hAOhoWBRC6OYbFUQG8fzw7IYW8SZ3xAqpIUahaTZbULAgnOoPcgjM557IFPx4+Kbh3gyMVOEFEqh4rUgiPyvuDeTJr876qU0KLY0Qy7cRzspQBSs17/+9S35MVO4PkH4HKsI6kBi1JFZUfRuAioUBImZNXv1LtsLmHkVoZWk2TmImoTMxqK6eI8C6D3kq+9H5y7bC9hr77k3gudY7dXPSLi6+hwBpOSm/cY+1U/UKwKk/VRd18lzy/ZvztF3+hAp7/t3Wd8jf9pJ1aR4It79eKD85f8QMvelTlIyJZ5G2j1/bXB8xgLVdFRHlxVqox8rxplzjF3PkNptxxU/KCiy7geIahTGIoA1P04NRQCniSKAa0JNcBvoCWB8tizEiAsCiCghERZ/Jl8LOOXlDW94QyMwlDSLJuXM6xQLr/cRuag3Ftiogvy0kBwEhMkVwUiiZMQhxyJZcty5ViJpvY/YMWF6juqt8Ctj5sz/CuVM3ZFPCz4FC6iciGS/FZwdMezcgXAiWNodIBNRGwVW9Pn6FIS436t32V7A6u9Y5lF/ESOKJ1KS6yFY3tPX/fWphP31TfaeDdNs3teX/TmIIDLrM+3VF2m/c7XROdrPXGu3FKZizwppisnbXsh8RZnjEW/qcN/HY9+7p+eHBFI0PTPPKePB9b1GhI07Y0V7KYF8UfUlhTI5FqmZjnU9qqvx53zv92OOio0ceq3+0uNQ/wTwuD5ySqnULtd6xStecWB/Y/0SRbcIYM2PU0MRwGmiCOCaUBPcBpYRQD5s1KLsbsHfDDmzqFKimNeYHZFB5CWkhlKY0qdP6UvMlEhAVD0F8aH2UJH8jzj0qVCQRUEM7iPSVoSnfXJ7H0AkR7BCD8SNGodMIIDMotpJDVJP7edLh+RQoShh7sM8ijgwXwJygmCYZJlfqVHMiAiRtugfnylU0mV7ASNxfYQxX7ukf+kLM2zIiP5nkkYWPQfF3r/Im4AS9cr1kVl1USeEiQrG9y0RwMgen0E+kNRM5+sLQSTeF3EtSle7ESd9pC+MB2ZZdUCOnT+i73t9iXRTeCl5npnr9GZt9VNX44HCp529T6WxoX/6iOSxUA/7Maef9K3X3AgoiZQ/Y9bYpXjqPz8e9K/8iAnsKQJ4MGp+nBaKANYGj4sAAKNQSURBVE4TRQDXhJrgNrCMACJJFCwKmUWZkoVEUWYQLiY+JAzhiDmOqueYlAQ7ICO98z8iRuGTEsWEFQKEHFFnEBZ7ziIgzH5Mda4jXQpyRsWJD+D4DKla1LkeaR8SgAAhcUgmcmM3DEEf6sHsTeVCWgR+MItS/LSVLyA/ONcKkFP9g1BoU08amBOX7QUsnY3gEedoM/MzNQ/RTv+4rmOohdpOdfOaL5x+QVKRGn/1WR9Qg5yJ6EVo5QSkKgbMykggcpnEz3zu9Jc284Vjivc/go/w6SPHOkffxWRsfIzo+57i6Dkh6Qil10imQBCkjqpLMfYckGQkjO+p9ugDhNEz8Wyoeb053FhSd2PCGOvHHEXQc/aaOfx973tfM5FTE7ODi7GsX5A9KWH0IxQBPBjjd6uwt1EEcJooArgm1AS3gWUE0F+KScxt+slCbZE00VigpYlhVrPYWqgRufilKRZnxEY0rGOygCOW/K5c87Of/Wxz/qeeIQ9UIqQEaUiaFY75yImFWnQwMpF6js9wMwKoLe6hXhQ410JiqIOJZNY+iqb6yFN30kkntSAOSiczJDMltQ0S0UoB1DYmTuqYnT8URAy5o9RRAvv3qW7M69rmPKQMaUv/JCUPwol863+ER/E81IV6R3lF8vRnrp9ULu4dhS27WjDvipClXOojBN5z8HyYQvU30qT/XRdhYsr1vKl0+oi6pg9WJYCir6mBXgsw0u+eZXL4IbIIMGLrmTufeueZUhkFzagjEp3+QeLUOVvfZbwZe56R5+uZeK6CcbyvTcYuguvayCOi7Vm7NxQBPBjjd6uwt1EEcJooArgm1AS3gWUE0OJrUbVQUoDiyC+YAOHgv4c0WGQt2Mx9SCHikDxsUciYBrOjhOIaiFD63r2YHgOTmLxvzgsBpOQgAUjETggg0qCOSJPFPaoPEzIyRoFCbCiaVCFpWBAqQGKS1gYJQkiSmkY7XYOqqB9E7ypJP0Lpo3TmfW1HOrPLCuIsVQuFKv2j3wRjvOlNb2rEi2Lm3kghsoR86nuKIJVOPXN9qil1VZuZ011PXREfKiKlkmk7Cqpz5UVMKhqf8+/jO5ht37T/yU9+ciNWCH0SW4/YjgAieJ6hZ5mgINHn/vesA2Mh6WM83zyv9I/0Pf6nUlLyMt6MPfsmG6+eBbUSkadi6md9jyAby8YCoq3dGXtFAA/G+N0q7G0UAZwmigCuCTXBbQDxoQwhMUx24C+zG5UGoaA+nXjiiY2A8YlDKvwNobBoUmOQDGRBoUQhIRQW0bRZwP3Ph46PIVABKToBpYr6lohWZlDqnaATsMinnshXrgOI3OiflvZpBzUv5AeQHOobgocwICrMiAgqM2qAvPCDQ2jVC1FUNwod4kFVQ5AQCsX5CJtgA9fO+/oQ0UJInJ88gP6mf5CaRB67LrKk7uqZ6whOQSKpi+6V9xF556hT/On0nTpTzBA3bQm0MRHWnrH2U3Kpm8lpmPZLJ6NvmFT7Pgz6vne858Tse8MNN7TXcMopp7S6ZPs9fxGzmMvB+Mh1PF8uAfoi/aPdiB0yisxlvBl7/neMMam/pHnRPscbu/pfO7MHdPoNuBckuMQ9546aH6eFIoDTRBHANaEmuI10L9mLlq8bMyglh8pDGWNGpK4gKPzxEATkgukTEUg0r3OpJ4hRHPIt+sgMlUdQQRZw/zuOouheIl4RSUoMRcri7T45XkEmKW+II0KUenL0Zw71WlFPARj5X9E+51OGpDNBBtzHZ73plTpEIdQe5AJRcQzzIVLCPxF5oLolmlf/IL5eJ52MQvFUT+c7Nu9TBvkd8insz+l93CiA0tHwQaQAUkCpWCKlcx1tQCyROuQn7+c66pRUM8a456nuto9zrjapm/Zqq3smKCY5+jyjvv0WlxBgClnfx2PfI4/an1yFXnt+iFXyDKYYV56585A1Y8GY8IyY5Pn0Ibo53vnGpjr3gUfqawwai54hUzny7xkbT4rxiiT7YULl1C/Go3urq/fSdt+NOaPmx2mhCOA0UQRwTagJbtGUHASC+oUESuPBjCe1CHJFJaH2WWAtyFQSih1yxz+OmmXxtqhamBGaOOQ7j6KSRTYLOALFfImkuBf1z30QGlt3IRyuKW1LzqFm2Y/YlmRMf6knwuNeXisIiMTI+V/RPqZq7aP2MK/KPegzyiRSIBgBmUJKkSSkhf+ZY0ysAhSoVKJOtWtZhLPPkBUlkcyIL1Uq7yM0gh+QHp/rR+/7m+skohgJkapE25E0BDbXUc+QZPXO+8mp1xd1VWf30L/akr7Rzmx7p55IsGdDAeSb2LffufpKnwlS6ft47Hvjx3Ni3s0zY7qmIupX5E07/UX4PHNqXeqMzPJdpKoi066dzxBNBBSp1I8Zb8aeMegc48f3+53vfGcj28aYsUulNJb1h35FEJFSdVbXkF/jWl7KOaPmx2mhCOA0UQRwTagJbgMiLxE0ClFMexJCWxwtiPzJkAuLq9eIAWLHbwsZsPDyPbN1WB+RaZGltPDX6n3cEEmLrvdABKqJi98Y3z9ES7oW5j+EwzmUMJ8x41F9Uk9kYrs0MNqnjpQhdafCxb/PPahLCIUAAvWmRFI3X/Oa17Rj+LCpD58+5lE+fBRF9aJwMosiaK6PzChUMtdDrLUh71PZENsQwChS1Kr0D2KExFD8RgI4XgfBdK+8rw6Ode+k0FFXdfZ8+DAi5NoEfBSZ3BFAbdcXzMLuGz+45ADUfsoalc6PgBF932cruEQB988M4fS/NmqDdjINg/6QEsb7CHu26uvzGyL9xpR29gRQ6aOAET/E0nsItbGrvyiCIblIaXwARWjHB7Dfdm+uqPlxWigCOE0UAVwTaoLbwLIgEH+RQmZECzAVzUKNFFg8EUD+c4gDpYqqhWj0OdkoTpztqTf9jiH8uQSSIGN80viAWZRNYHLRCRRA6tw7igyywJeMKrOTIBCqkUAK96ZkMQW7F7MkfzCRosgPgsN8iaQoVChpQwSRMN0yA4P3k9ia2qT9vY8eXzPBCtrm2pv5ACLdyLD2pX+0G7FGtJA/QSCjD6DrIHP6UJ3yPhKIPHleyIw6UsFAkmsKmOcoPx4fTvfmT6jNzkWqkF2KrB8AjqGWOodfJgK10yjgkEaR0drpHtLBeH6ujTQiZJ6HcUZh1k/GGQUv/WMsec81x9yTfR5A41ckMzLsB4pr8sv0vPyYQd5dt6KAl2P8bhX2NooAThNFANeEmuA2sIwACnjwPjWG8oQMWTwpYxQ1fmmIAxJCXaPcICm9GkOdscj2/n8KMmFBRiQl4kUiER2LsUAPEa6Um540ujcCKL+ehX8neQDdF5HLXr9IQtQvEyeiQ/mhSDJhUgqf8YxntPsxo8Y8CupCYWN+RVgRuKSIAUSVuiYIoo9w9j4TdAgNhZAfXnzPFOobsol4I0j6FmkZry+vH19BO5gEyLa+QvaYofU/0yc43meur036AxFGuiRrRmoRc4EyiQJGih3rHEQWCd1pHsDLL7+81UWb01YEX99TW5FNzx4xNKaYnamO7tdHkSshcKMCiOx5xoixscmcj9hmH2vtN5b9MHFveypXIujlGL9bhb2NIoDTRBHANaEmuA1sRgCRHQsivzXkAGlDiKhTlCIqknOyKFMAk5NN6X34+sKcixBYmKlX1Cpkh+KFTHkugg3G86h4VCSqD38xJjsmXMcHy0zAzJ9IAaUSmXj/+9/f2oeIiA4WUIIcIQCIZ6A+/CCRHeRFtDGSYaJ1jahzzKP6SJt9piAWzqdiIWX9+9S75Dhk+kVmYlJWEBvmcQoWMyX/OSRxvH4CLOS6y/v6knkYgUHS1ZEPns+iPkr7ov2UMqQoQAKRXvBcESi+k46lguo756yyE4i+RLL8r3hmnp029Tt7IGExB7u3a0dxRkaZe/URAjqOB8UY68dc9lNWmH6l0tFm9zV2jWFjmQ8lkisFTxHA5aj5cVooAjhNFAFcE2qC28AyAsgHMJGWFlYkhpmQ8uUYwQYUs953jVmYUpbCSb9frJEZ5k1RxBZk6hmTK2WN2c/Cz0/NX6qh6yFYzKzJaeeZWeQRBwoXP0MLfPbCVcd+b1yFiqSeyAv1J4oZdQhJ6vcCRkIQJulbqEvIY8A06hrMyC9+8YsbkdGemIB9RgUzCW+2FZz3KWkx+frL/MlcnL2A5adzf754CJz26xfErr8OlQxBQia9596ITUzA2YvXtdQZAaLepv3Mo8z0iBaiKgm3CGEBNkgnkh/VkeKI6HpO6oEQ9n089j0l0P31kfZ4ZtpIzURmPdfsB6yNnneevXsYE8gYxc6PBW3yzPsdZbYbc8YHEzw/USqsscvkre88M9eilNZewMtR8+O0UARwmigCuCbUBLeBEECLb/y0mOOoYyFa/locLeBIA/Ms0zATZb8gLyuUlpAlCzlS4nwEiwmYqsYciahQqZzDlMcUKMVLghiybzC1DXnMnsKIRtJ8eK2++R9RRWQUhAkZuOCCCxoJEpGKpAmieO1rX9sIgmAEpltqFv885MyxyJH/kZdTTz21mY6RR+QmKXIoZMFmW8FdccUVB20Fh8CJnKVkarP3kG71YA7XRm0Q0ICA9tdXD8mfXTNA2DwjBNszQ7QQSccifEyjaT/VEwHVLkToxhtvbNG3eQaei35xLLVX36mvdifNSvp57HvBKJ6zHxXxy3NNz1A7+WNG1UvuPmowYh1TvX5Jcmf3dJx7ZDyN42wscgzqO+d4/vrFGPbM1BPx1Kf8QPNsfObcIoA1P04NRQCniSKAa0JNcBsIAWSSta8sHzUECFGw2FqEKUcIgIACxMR7/LWSOHerwpzJHNi/hwhQ4JhcqTYWXuSKQz7lMTttUImoQZQ7CzqliEmRIiXAgG8YRY0qqQgwoGZ57Rh7+iJDyXeISKi7+iAWCAoyI0qUkqgO7sc/kNKlHo51jrpQqSQiNnZ83rdJOyiI2hQFkCqmb5MrD7GgOCK2znFtBDTb5qXN6qogSfpGXZM3UUFckLEogO7JrxDh6+ukjtqlzkyiffuRVn6bCFu2ntNuZlJ1oMT17XcukzgfSc/O+NDHy/peyh4kkJKMWHlmrqdO+kMf6Oskq2Zq9uzdX3uNK+1EzpBFJC5tokiP42lZcY4+MZ6Qc2OXGd+PCT9eKIC2w2MGlnORXymyaswbb3NHzY/TQhHAaaII4JpQE9wG+PohPRZWihfVJ2lCLNAUN4qXxVSkKbMakyz/sahwywrFj9qDYPWKDXWHUpXdPLK4R4mR4sN2ZBRI78cs5xrZ1zYY08AIuggs6BQy96IuIqKUNIEP/keiBEAYA8gXchPFiEpnSzjBGCZVAS/uRS2jVPELZFLt24usIWR87Ox3q3+YRBG05MpTf8QnZCj+elTEJJTWp+rsvOTKQwDVPdfh98cHUEFgmGS1b/SVQ3jUNUmsKYBpv7ZpI39KyaqRa2TQ81GXc889t/WRY7Wf7ycyxf+QQkxZRMKX9X3SwGRLN9D2mHARSuRbXzOTxw+Pidbn1Evge2ncuX/axFS+igLoXog44qzuxq5rGcvItbEttRBQSPURYkpd7gNu5oqaH6eFIoDTRBHANaEmuA3w7aLIUcGof8FZZ53VFlKqjMWeWZKJ0AKKkFCCfCZYgDI2LsAKX7I+Chi5QAqQTovv1VdffZPca0yTzJBARUOILOJIz4jNniFTNkVJAAOFkBmTrxsVS3FPfnvZEgwZQACZNd3PX+SMWRyRQVQQMWlJkEqggo3tRToAudVnol77KGD1EN0aE7Dr+R/Z682knoMSEzACs1kUcEzAfdR0ClUO1JkJHBnXfgpb/AqZ5SliCKK2IoHaqm8Q+PhiOo+i6ceBvvX8qXTJ4dcjUcDxKQ2QR89SXSmfiL6cjNoCyKB66++vfOUrrf8Qbyl71H9s37LiuRqTxiaCa1xR9IxdZmXPhcrpWEQ/8INBnZBo34m5Y7PvVmFvogjgNFEEcE2oCW4D+oEyNAKxsEgia0x4Fnt+YfzGKDgW9+RcQxSQBGQlhVO+pLwW2zjnZ39c/nfUHdeNAshHjXIkuhchsHAjOkhB7+fWgznPYt8j5E86E6Y915WKBHlBSrIPLdWLaTT/U0ETjYsQUdQc0+/6wYzqHH3RbyOXQp2iZlGTKKqOQ1z4ASqidvV1yAzTrz5litWn3kMiEV+F0qVfqWXMpP111ENBRJmeE0TSl2znFhOw5xK/TYEQiKVnx1zrWSK+fOWQPp8n/Qol0rkUNRAFTE2z6CCAIwlEAJFJLgUjkGPPFuFSd4qzZ+7ZJ+Ez9VhUsjGCaPINTOCMuqmLY5R+zCGp2mNMUq6NM+Sae4N+FhzjurmP64+gKNe8UPPj1FAEcJooArgm1AS3ASSHTxVzoT5JQQ5CIhCWRG2G6CBeFlmEhumTr5ZrpCB/VDXkIybPFPkFEb/+mjF3WuCjCvLHssirD1/FsSBnTLEBYhLy5y8CiajwRZMA2vNGdpiX+bzl3ggYE6uULFQ5ZCOKHKUs/ofSlDCpMsMiCn2bFMqW67gGdQ2J4u+njxX9KP3M2B9bFe2nuIqk7a9DSUNaEVXPapkCqI7qqs4WB88KCUYGc4y2I5vIufYjrr2J1ef+Um8pl31fU++YgamzPQlErCiZ+mJ8ZuqUYA7XjSLZ50JUjDFtN1Z607bnYHwh60o/5vS5vtFOY9P9Xb+/LiKIEHrt837MuwbiWvNCzY9TQxHAaaII4JpQE9wG+GbxB9MXfdE/fdLe3SgW396BH0GktiE3lK+ogUkg7X3kgAKG7IwFaaF+mfzk5hPNGvKXXHUmRQTQcaJ5+eiJeKXSuY/rqwelkCKHHGR/XJ87R2oYf+OrBstMwAgLs/N73vOeplyqE3MiAqYwOQrYSB5AxT2z48myQgEUGSuNSn8d91ekbVG3PlAiJSZg4FvpOD5/+ktwDHMp8k7NjAKKuCNjngtiSEXTfmot9bYHtdV1qXlIIDXPtQWBIL/Gz/jMPEuKsACT+Hkq7sfkToHkYzoSt5C23SrqljmgL74L2T1lzqj5cVooAjhNFAFcE2qC2x5MeBzzBSpsVfSj4Aa+e5sVkxO/NtHD/mea5MOGpCA31CTEzWdUOwEpUqnITSfyOH5xY7GLhFxuyB9zYU/+wH2YJAWvIEv88HzuntlrlvKVaFzqHcIVoiCSGMERFBECxHdNe0dSgTBqH581f5k2s+8wuC+SpM4xNwtAic+da/ZEDulBSASJ+Ntfh6LpWgIyKHPLTMCuJ18jqHva7z3KJJMvNZCfJELEH5DSh3RSPtVJtK/2I7UCSEaEBPLtFG2dZyEJ8/isFEqhZ6r+/jcuPHNt8MwpnIiiOiU1kGdoDPg7jqu+MP0ai+P4HIsxvcw8XfgH1Pw4LRQBnCaKAK4JNcHtHjjsM6lmT9rNCv81C33+RxQs3MiY4BIO+t73F4FSvI7v23ZF+ppxlwqkAYHhd8asq56ePRM2lQpRokoZCwhXtopzDBNh1FC+ZUytJlpkUJ1HwoXI8TsUBex+y3YCEbmLpCJ1zuEjSelECpmYRaHmevwWkWT1W7YTiMAWr5Gj5Ensizqqq3OYRZFc7UeymI61nxkdGU37kWHnUmupg451DpMz5XIZkEBkDXEfn8mykufrdcaCceE9fUyNFflrTPRjZRxPY1HPq666aqxeYQeo+XFaKAI4TRQBXBNqgttdIF5JU3IohYmRYja+v5OS1DI9ogAiHcgFFYtK5X3Ei8+YCFERp8gWVe3jH/94y1fneMcq/MuoZpRE544mSoUKRw2T0gaBQtCYkp2jSA1D2TL2KI/O4asmgEGUL8UOIQsJQxL5pVHqELDxOkghkui9ZQogJU9dfY4Aulbab+xT/QREIK3aT5FT/9QL+XOsc/RFH9E8Qt+Pz2MnhaLJzE3NHT/brozkv7Bz1Pw4LRQBnCaKAK4JNcHNAwgQH0DmZIRGtClQC+053G8FR2WiSlHiECwqVCDiGOFCJhFWat9IuPjy8ZXj+4f8yc/HFzDbpTGjmqSRUQTTOQgi06tdUdyDSkmd8xn/QYRUgA0CNl5H2/jnIUz8D8f6IIUIFfOs9grASPudq40IoPY7huJGyROQg3zG5C31i++LvinMAzU/TgtFAKeJIoBrQk1w80AIIJ+zJEaWwoaix2dMZCpChuRQvyhhgiWYRwWiIFBAoUPEBF4IPomvnr+JlEW4+PwJMEGukgYmKiKzrdQqtn6jPmabO8TSX9elADK9xgTtWLt2SAODoDGV8psUXc2M7TUCFwVQPr9EUauba7qv6yF7yCuljJqpLvpCEmfvU/ikzNFupml9pC8Etoi25rtXmAdqfpwWigBOE0UA14Sa4OaBEEBKmuctsMFesMiNwApBHyZOAQwUN6ZHgR/MooiZtDGIGP+yJGOmDEoXIl2KIArEMgRwuzyAiBtSJwpWsAPC6D35FpE190PYXCMEkE8i/z3RyT6zQweCKpKXD2VPACVO5q+oblK+uI6AB0EZzMDMy0n8LCKZ6VSb+S0yJ/tfAm/30keOdQ71FFEuzAM1P04LRQCniSKAa0JNcPNAfAApgAiWHH+UPkog1Y2yRkljquX3Jl0MpUtEqiAOaWX44CFVfO9AqhR71jK7OidqIBOw/WVF2yJTzLNIJbOwkvQtro+IUuAojI5FEKls1D6pamwjR91zLOURkRSEoe4IHzM1pRBxldolJuC+TgJDBHaA5NrSrsgXiOSpJ19FgRuCL1wbyUQKJaUWiMEX0sJiRxLnlgl4Pqj5cVooAjhNFAFcE2qCmwf6KGAERxoQJAqoa3zwECrqHn9A24eJKE36FomOqXlIGBWMb1987GytRkVELEMAkTGRt9S+D3zgA40AInnKO97xjqbIMQczwYrS9T4iRl1DSKl96sDPL8eGLKoLXz0EkwopuMNxiFoIoBQ2yJtceqmnulAwkUHKof4AbUQ2tZd/oM+luJEHMBG/7mkHDbkCa4/c+aDmx2mhCOA0UQRwTagJbh6gaPFro14hZCE/gOQgNgieiNjskkFd682dzucHxzSa5NSIlT2EqWX+xgRMQaQUJi8ilW6ZD2D8+ryPYGVnFWlgBGwgf8uOVRA6dRZIgtD2W8GNdVJXdWb2pnpqS6CN2kopZBLWftHJknJTJfv26zuEszAP1Pw4LRQBnCaKAK4JNcHNA8yozLtMmBIAM6lSviiD/X6+/PGQNqqe5MzUQscgkPL2IWR2DEHWoq5R3Sh2uYbI4Pja2e3C+VRDaWYURA2hQxBF/lLrvE/5Y1bO/rbMtYjesmMVbUAAkUXRwdK39HkA1SmKoPZQGtU95mdtUjftTSLqBMVkV5LsI5z2I68ig/WdvI+F/Y2aH6eFIoDTRBHANaEmuHmAqZQ/HSKFyCBLdsLgB4c82XqMOoZMybWHJFHYBFM4xsR65plntjQyfAGpgOO+tSnSp1ASkS7/203D9ZFJRbQwNQ+hE6nrWt4XDRwCd8wxx7R6MBEvO1ZB5qh8jrdXrnv2+yr3hRLoXNHF/CC1JXnztDPb3tkFBQkWjEIBRGL79us7iimfSJHShf2Nmh+nhSKA00QRwDWhJrh5gIr1xS9+samA/N+ocPHvo7DZ75YZVZCH5M1SoSCLduYA6WFE3fKhsyMH/7qQK8qZ95Ar/wuWcE3kkWLnL1LlHEVULz870buifd3T+8y7TMWOpS46DwFbdqwiaph6R5FTL/d0b3WQVJo5t89T6BymXWZmPonaBFLKSC2DAGq7vmAWvvnNb976JO13jrpvthNIYf+h5sdpoQjgNFEEcE2oCW4eSBQw06cdLahg/sp7J/hCgIWcfcgP5Y7vG1VMOfvss1syZ/vjCvZIYmTEjGJHmWNGzq4gzK5y7H34wx9u/n8mZaZTyZcVCaL594kwZnI1Bm+88cY2cUtTg6hR/CSldq77OZZvoLE6Xkcwi4ARW7ElElld1Invnzp6Da4j2AUx5c8n+IRJnEKqzdrEHIzsOk/Ah2Oopc5BnBM8U9j/qPlxWigCOE0UAVwTaoKbB5IH0H65/V6//N2ifpk4ER2RwnLiMRkjPNKyCIyg8FHnKGCSJvMH9P7NbnazZjql2CFfTMOutcpWcOpAlfOX/x8VTzSxYA5599SPYufYrbaCo2xqY4JAKIJMyup2t7vdrZm0KaB8E12fuqfuSB0ifM455ywuueSSRnbVl4k3UcBIsWOd41xm8MI8UPPjtFAEcJooArgm1AQ3D/Q7gQjIoJ6J6OU3JzAEgRJ0QVkT8BCIjuVrJ3L28ssvb8meES7qHpLFVIsoIXEih5EvuQG32goOyaTqIZ58+SiLFLfnPve5TQG0UwcVjsmVKVpxLLWQCXarreASvKEu6oQQUjSld3GM+3ot7Yv223IueQ0BCUR6gVkb+WSadqx2ZF/gwjxQ8+O0UARwmigCuCbUBDcPhABSrxA35lWgjDGX9nsBI0AhSwIwROcGiBrSGDMqMykzK79CxyJcCCDix3+Oeob8SdViYlaoiP53XTtsIFhy8PH/Q7jURXCHPYkdR3VzLCWPGTjXQRglhnYesijSGQFUB3VRJ1HI/ABt6fbiF7948exnP7uVtJ+5+R73uEerr4TXtnxjJpdjUNAIIpq8f5///OebylmJoOeDmh+nhSKA00QRwDWhJrh5IASQkoYYXXDBBY0EXXzxxY2kUeKobzfccMPilFNOaYER/OsEUvCbcyxy5H+7iHjPdZhGkS7KmCTRgjSQL7j22msPmEt70kRxQwIpf6JzkUr3RTypbEyy1DvnI2jqpo6OZXYOmHRPPfXUxRvf+MbF1Vdf3d6ztZw6qIuxzR8RcaRaCuxAGgWWpP1UT+3RLoSTL6IUM3wXKYlM2PrFsXwGpb8RCVyYB2p+nBaKAE4TRQDXhJrg5gEE0G4WgjEEbVDYECPqF1MnM+kjHvGIZh4VWYug8b9jdkWqHOscaVaQM753zKx8/6Rs4Z937LHHNsWMIohkIXbMy4IrKHnqoPBBHFO0qJPzKX1UPaqk9+LTx//OX8EcuY7rU/+e+MQnNmJnHLu3OriWOsU/UV3VmV+ha6f9yKq0NIgspZE6qt0UQ20VHNO33/UTGVzY/6j5cVooAjhNFAFcE2qC2x6UKLniKFeHU1zDFmbrQAgggsWPziTJxCvgwz66xgDiJMhCzj7RtO985zvblm4igR0rUpYJFCmUJw+hQpAQJaQO4RLM4TrGlYAL5l/BJIIpknePGid1y93vfveDiGCid5G0ED+Fiicq2GsENdc5/fTTG6Fl+qUCIm/urQ7qok7qhuCp6zOf+cxWd2pl2o9E2kJO0Ifz5R2UQgapRBwTFONYymQCUtYJauRujcdrrrlmvHyhQ82P00IRwGmiCOCaUBPcBkSBCj7QH31BCihjI1HZaUFwELDxPlsVpAxpQn7GzxT1Fr26FUIAqXEUNwQPseIfJ4kywnXLW96yqVz85rxWV0EeTLyOVxwv/57UKcyoAiIcG/IkqAJZgyuvvLKZkiVMFsgRIF1MqdS39Is6uU7y+G1WkL2ATx4T7utf//pmDgbRzeqgLsiq6zHZMt+KSlZ3QStpj7Zpo6I/JMOmPHr/Fre4RVNG+/Y7V/1XgZ1Csv/w+Mw8SyZ0z3b8bKti7HheY7/stPC/XFa/VcbUHKAvan6cDooAThNFANeEmuA2QBVi5rMY6o8UhMFCiVQIHogSpSBDFvJxUe0LMuFci/2DHvSg9l76fNXifKbU8f0UCZL93QohgII+xjoeaqHQ8ZtDSgWCIEr87pAnBBJpkqaFv55j3JtZlx+gglBT5bKVHLMqRdB7iveYfClxyGh/b2baXAe58nwU7ZLY2jXVQV3USd2Yc/W/OotoHttzqIWquQoodUjtk570pJs8M8UzTW7DVYuxow5M2szszPFj/cZCtXR8VFU7nBjLgnn8b6/l/h6+A0ziXs8dNT9OC0UAp4kigGtCTXAb2KwfrrjiirZI8jGT+oRvXBZWfmZXXXVVi0ClNlloRwWLSRK5RFKirF144YXjbbYFpY2itgzMuu69FRIEItpWXZFdQRjalboKnGAm9RdhQlAQLoQBMeNPh8QyH0qLIliEf9xIOJhdbS+H+DC5uhZFTj8oSDSSJlrY8UytdvpALEMK3VMAxn3ve9+Dro3w5DpIJQXNM2Gydc9lW8Gpo7oKYokZm+8jguh5UPVcg5nYdbTf9dXB+T5n6tZ+bXrFK14xdu9SSFXDzL3MzPrlL3+5RRsfKj74wQ+2MeaHheezzIyuTfpCO43NL33pS+0ZZJs97ZA4W4of/0vvMyI/hOaOzeaFwt5EEcBpogjgmlAT3AYslAgJwsMnLDjrrLNakAMCI7EwxYaqZfE97rjjGqlAXKhe2fu2L85FmpCNvIdgJGp1OzAjqptFH9l529veNh6y0jMMARRpq87y4Il4pdJRhpBZRAwB5D+nvYIdJHD2uXOkhvFXCphgMwUUyeX7x+QsH6A2yNOnSPbcH4skuhcVkP+e97TXez3hVuQhzHXe/va3N+VPG5jwL7roooOO1R6EkFIW2MVDG/g2WiwQT2ZjxE6bPRs+kAgfhVeaGhHIoqW1X37D7ISyHRBAStrnPve5g973DLVLG6mJq/qF8kX1nNM+xDTBMWPJeGRml/sR8RWIY+zam9lYpoYan/oxkAeSYqpufD/njlW+W4W9gyKA00QRwDWhJrgNUNFEv1rwpR4588wz2/v815gRqVHIB9WM/5ugBnni3vzmNzc/KgocUohAUF5SfIYojgu0RXaZMtQD+bNg3+lOdzpwHkKD7PSg1iBigTqPkNKFCRgBlOOOedJ2bU95ylOamoTwUI6QWeqcv4hP7ovQXXbZZYtzzz33IAIkUIT/Xo7zmq8dIEBRLrPvMAjc6PvCffjxIYZImPeQL+9R5Ppj9X2g/siNVDMhWT5Pfaiv/Pd6gqPuab8AD/dDeKWBQdS1mzqKBOp3ZEnf8HfUfqS2T5Q9ou97ZIpC1xM8zy7KYgqfPkEs2wEho4hmu7sU9e7HnDFoLBqTfjR45saIsaR/RE47joJqbGccSn+DdBsHrkvpnTtqfpwWigBOE0UA14Sa4DZA+aIGWeyZdRFApInJDUGyIPJJo4hZGBFGvmsIIYJnmzTkUeCE1ylMmpRFhCK7VKTIb2eykqDY4m5BRi4s2CJP46+G0CgUHOY7aVsQHgQDmCst7tkhgyKGqOV/hRJnlwtJjZGCOP4jCcyD7pMIWVuyIUJMp44ReGCMeE3JZF400VLF1CP9oyAP3hdVK0qXmVGCZaZm5yh8zhwb8yVyjQDxS6Oweg8BFEWsv/s+U+9c561vfWsjk3wBTzvttHZPW9jFDI9Y8n2jFqqTc6iB+t11tBXB1H7PyrHa6IdAiKi6IUyOdQ7lzljR933/Lut7OQ35Z1JekWB9lesuGw+ejWdvDBgLxoSxQb0Vda1vETY/AowBxXnGYT/mjEFj0Ws/UoxRZnc/OoxdfWosO1cdqKFnnHHG4uSTT251zZ7Ole6m5sepoQjgNFEEcE2oCW4DFnUEy6JqEQTpUSzECIXABfnhqCsIB0LDp49aGMVkq4LYOJ4flsXYIs78hlAhLdQoJE1kqwAK51B7kEdmPPdApuLHhXQhSZSrRKgyNypeC4LI/4p7MxlSt6iXUppQ55AL99FOChAFi/Im+TFTuD5B+ByrIIlIjDoyK1LZtCPtRJCYWbNX77K9gBEd70fdQ9RE8xqL8fljduav+LKXvawpZiJ0mS1df9lewF57z70RPNfQXv2MhKurzxFASm7ab+wLhhD1igBpP1XXdfLcsv2bc/SdPkTI+/5d1vfIHxMt/0k/Enqi7Lp9NG8ImftSJ6moIpeRds9fGxyfscBcjtj1Y2xZ0Xd+rBhnzjF2PUMk144rflCIao5qK5o6CmMRwJofp4YigNNEEcA1oSa4DfQEMOZECzHiggAiSkiExZ9Z1wJOeXnDG97QCAwlzaLJn8zrlPj+IXJRbyywUQX5aVGYEBARtQgGsinYAXHIsUhWTMEICTOteiF2TJieo3or/MqYOfO/wkSs7sinBT/qIZUTOem3grMjhihbhBPB0u4AmYjaKBdfn69P4evHdE1F5WdIzbr00kubr573FOZku3IkIhlhQ0yQklwPwaKCIo9ITIJWtEPQAkXN9ZE6KpkAHdd2b8SlrxMiiMyqs/a6RtrvuWqj/td+5lq7pTAVe1ZIU0zeX/jCF1r7KKOIN3W47+Ox793T80MCkTZqnOeU8ZCAFeTWuDNWjC0EmS+qHxdIcnIsUigd63rIpPHnfO/3Y46Kra+8Vn8mcuofU7HrI6eUSu1yLUEt2d9Yv4SoFgGs+XFqKAI4TRQBXBNqgtvAMgIo0pValN0t5LRDziyqzKQWdGZHZBB5sWgya1IKU5jhejKSEjMlEhBVL8SH2kNF8j+VT8nnyKIgBtdluhPhyXeu9wFEcgQr9EDcqG7IBALILKqd1CD11H6kDMmhQlHC3Cfpa5A4QE4QDJMs8ytyRUWK2oagRA1DLBHU5Bbs32dmDIFx3rLo3T6iGglEDhEqEdWIjIARihhy0yue6uB6qZs+5fumzhRAZO9Tn/pU8yGkZjJJ64vrrruuvS9noShd7XZtfaQvjAdmWSZ05Nj5I/q+15eIK4XXe56Z6yCcaVfqqq0UPn3S+1QaGwJ0/HgY+yeFetiPOf0idZDX3AgoiQi2MWvsUjyNZc8E2XvLW95yILCnCODBqPlxWigCOE0UAVwTaoLbwDICiCRRoBAWizKfLiSKMoNwMfGJPKWexRxH1XNMikhUCy3FqHf+R8QofMiMCSv53PjBUWcQFgmMERAkB5FxHcl5kTNER1ACjM+QqkWd65H2IQEIEBKHNCE3J5xwQouCVQ9mbyoX0kKpYxal+GkrX0B+cK4VICgIK6VPm9QFeVKocuqiHyVw7t+nMOpbbeZ7yeyKaKd/kF5mYf2j7Yg1M7WgFcQzqW8obgIatDfXV0dbxlG4XNO1AtdEAvk48pPzXNTd+drMF44p3v8IPsKnjxzrHH0Xk7F2jej7PlHASLp6eY1kCgRB6qi6FGPPQTuQML6nxoA+0GbPxLPRVuQ//WMsqbsxYYz1Y44i6Dl7TV193/ve10zk1ERj11g1lhFqZE9KGKQfigAejPG7VdjbKAI4TRQBXBNqgtvAMgLoL8Uk5jb9ZKG2SJpoLNDSxFCjLLYWama8fjFG3pAQvmz+zwKO/PC7cs3Pfvazzfmfuog8UImQEqSBSdjxFDPkxELNzIlMpJ7jM9yMAGqLeyB0kiK7FhKDTCWSWfsomuojT91JJ53UgjgoncyQ2kcFBEQmqh9ywX/PdZynIGrULhOytvfvu1f6g1laG5C29A8Tqfoid8g3ooO0Uuz0BX9AShyzOXLKTJ3ra6PPPQ+KoTpmVwvmXRGyTLL6CIH3HDwfplD9jTTpf8olwsSU63lT6dSbuqYPViWAoq+pgV4zU+t3z1LdjCvq3Hve855G+D1z51PvPFMqoz5QR6Q5/YPEqTO3gPFHBwLo+XrteQjG8Ry0ydhFcF1bnyLHnrV7QxHAgzF+twp7G0UAp4kigGtCTXAbWEYALb7IkoWSAkRpQTr4nSFw/PeQBousBdsxSFJvjpNw2HFMg4l+VVyDGTF97179dmkmMXnfnBcCSMlBApCInRBApIFJkrna4h7VhwmZryMFCrGhaFKFBGEkfQsSoy8EwSBBCEmSQGufayBo2iyiV0n6EeZGSl7e13akM7usIGpy4/UpXxATqqBIYMSLYubefOOQJeRT34uOpdKpZ65PNaWuanMSS6sr4sN/klLJtB0F1bn8CbWXsutz/n1MyAhh2m/7OsQKoU9ewxHbEUAEzzP0LBMURAH1v2cdGAtJH+P55nmlfyih/te+0e3AGDQWvaZWIsVUTP2s7wXSGMvGAqKt3Rl7RQAPxvjdKuxtFAGcJooArgk1wW0A8aEMITFMduAvsxuVBqFgcjvxxBMbAeMTh1T4G0Jh0bSwIgopVDGLNIVFNG0WcP9TwvgYAhWQohNQqqhviWhlBqVsCToBxDL1RL5yHUDkRv+0tE87qHkhP4DkUN8QPIQBUaEiIaj8AgPkhR8ck7h6IYrqRqGjllHVECSEQnE+wsYU69p5Xx8iWgiJ8yl93vc3/cM8mchj10WW1F09cx2qHxIpCMe98j4i7xx1ij+dvlNnihnipi2BNibC2jPWfiZ5ZlaksW+/dDL6hkm178Og73vHe07MvjfccEN7DXYlURfPNM8WMROsERgfuY7nyyVAX6R/tBuxQ0apnf2YMwYdY0zqL76i2ud4Y1f/a6exrs3pN+BeEN/MPufiXFHz47RQBHCaKAK4JtQEt5HuhVkPWWNOZAal5FB5KGNMnFQuBIVJF0FALuRQQwQSzetc73HmT0FknE/lyV7Aiv8RKIqie4l4RSQpMRQphCmpQVIs9JQ3xBEhSj05+jONeq2opzQ1+V/RPudThqQzQQbcx2e96ZU6RCHUHuQCUXEM8yFSwj8ReaC6UdOco33ZwSPpZBSKp3o637F5nzLI75BPYX9O7+OWRNB8ECmAFFAqFpNvrqMNSZSN+OT9XEed1M1rY9zzVHfRx87VJnXT3vgKJigmOfo8o779FpcQYApZ38dj3yOP2p9chV57fogVf8L+2RpXCJvzkDVjwZjwjJjk+fT1ibmdn7FpjPVjTt2NRc+QGoj8e8YJkjFekWQ/TKic+sV4dO8E9qTtvhtzRs2P00IRwGmiCOCaUBPcoik5CAT1CwmUxoMZz64PyBWVhNqHGFiQqSQUO4oO/zhqlsXbomph9joF6WJSyyKbBRyBYr5EUtyL+uc+CI3dLZgD3c8Cjxw4h5olgMKWZAIUUk+Eh7+X1woCIjFy/le0j6la+6g9zKtyD/qMMokUCEZAppBSJAlpSYCFiVWAApUKMdUfyyKcfYasKIlkRnypUnkfoRH8kHbpR+/7m+vw26PaISFSlWg7kobA5jrqidA4Xr3z/kicFXVVZ/fQv9qSvtFOzwOhUk8k2LOhAAoY6dvvXH2lz+ww0vfx2PfGj+fEvJtnxnRNRdSvnrfnoW0IGpJJrUudkVm+i1RVZLrftxnRRECpdercjzljkLmfmdj3224tyLYxZuxSKY0t/eHeCCJSqs7qGvJrXMtLOWfU/DgtFAGcJooArgk1wW1A5CWCRiGKaU9CaIujBZE/WXbI8BoxsPgiasgAFYvvma3Deod8iyylhb9W7+OGSFp0vQciUE1c/Mb4/jH/Uslcm+nTOZQwnzHj8ftKPZGJ7dLAaJ86UobUnQoX/z4mRuoSQpEgFkokdfM1r3lNO4YPm/QxfPqYR/nwIbfqRYFiFkXQXJ96pVDJXA+xRpryPpVN4EcIYBQpalX6BwFEfCh+IwEcr4NgulfeVwfHundS6KirOns+fBgRcm0CPopM7gigtusLZmH3jR9ccgBqP2WNSudHwIi+77MVXKKA+2eGcCKl2hg/QKZh0B+UPG1DEP2A0Ocij9M/SL8xpZ36sR9zxjDybbwifoil54NQG7v6C+EMyUVK4wMov2J8ACmQc0fNj9NCEcBpogjgmlAT3AaWBYH4a2GmwlmAqWgICVJg8UQA+c8hDpQqqhaiMQaBcLan3vQ7hvDnEkiCjPFJ4wNmUTaByUUnUADZyI4fzkEW+JJRZXYSBEI1Ekjh3pQspmD3YpbkDyZSFPlBcJgvkRSFCiVtCFUJKWUGBu8nsTXlSft7Hz2+ZlQobXPtzXwAERZkWPvSP/oc+UW0kD9BIKMPoOsgc/pQnfI+Eog8eV76Tx2pYCDJNQXMc5Qfjw+ne/Mn1GbnIlXILmLmB4BjqKXOQcwRqJ1GAYc0SoujnZ6t+mmDayONCJnnYZxRmPWTcUbBS/8YS95zzTEIxBjUfmPS+BXJjAz7geKa/DKjFCLvrltRwMsxfrcKextFAKeJIoBrQk1wG1hGAAU8eJ8aQ3lChiyelDGKGr80xAEJoa5RbvjaWcxTKE4W2d7/T0EmLMiIpES8SCSiYzEW6CHClXLTk0b3RgBt12Xhj5rEv24VAqh97ovIIWvMzwhD1C8TJ6JD+aFIMmFSCp/xjGe0+1GsYh4FdUFgmF8RVgQuKWIAUaWuCYLoI5y9zwQdQkMh5IcX3zOF+oZsIt7y5elbpGW8vrx+fAXtYBIg2/oK2aOE6X+mT3C8z1xfm/QHIox02XYNqUXMBcokChgpdqxzEFkkdNU8gMi/nUuSB9BrddHmtJXCrO+prcimZ498GlPMzn4IuF8fRa6EwHmW/ZhDHimExoSxyZyP2GYfa+03ltXNve2pXImgl6Pmx2mhCOA0UQRwTagJbgObEUBkx4IoyILPF9KGEFGnKEV8ppC8fmFepTDnIgQWZuoVtQrZoXghU56LYIPxPCqe+lEW+QOm7o4PNjMBJ/AEmXj/+9/f2ud/0cFIH3KEACCegfrwg0R2kBfRxsyMJlrXiDrHPMq3jw+jzxTEwvmIJDNz3kd4qW5IiDZpJzIz+u4hMYkMpkpSL/3fXwdJQdjkusv7+pJ52GdIujrywfNZ1EdpX7QfYUeKAiQQ6QVjAYHiO+lYKqi+cw6SuYoJmFmbAqj/EGjneA59UnAkjIqHQLu3PovirG36wXUQ0HE8bFeQfKZlbXZfY9cYNpb1J5IrBU8RwOWo+XFaKAI4TRQBXBNqgtvAMgLIBzDKHP8xxIiZkPLlGISFCdWC6jXfM2TI65Sk1BiLKGILMvUMuaGsUW4s/Ailv+rCvJpzopBRefiG8etSP8oQUyvFSVFHpCv/K4gMHzCBE8ybUcwoXEgSVSt7ASMhCJP0LfzLtD1wLgLEjGwPXluUMdfGBOwzKphJGEnSpxQ2RMZ7CtWUCRQBYdbli8j8SSWktmqj8/i4UcUcx4SZCNrxOkihdnjPvbUxJuDsxast6owAIcNpP/MoMq1+zK2ScIsQFmAjaAPJj+pIcURaPSeqKxNy38dj3wvooLJ5ngi/63lO1Ext6seDMUYlzrN3D2MCGaPY+bGw2Q8NY6wfc56nsei1vtCH/ET1r7GrD/UThVXfUEprL+DlqPlxWigCOE0UAVwTaoLbQE8Ao+xQbahj1Bqql4XY4mgBRxqYZxNtuVkUMCIS8tbv52rhdT6CRclyfeZIRIVK5RiEoN8jl1N/CKVFXnCJz5kBqUhJ84H09HvjIgJIpuPVh6p5wQUXNBL02te+thFR5NBrBIFixHRLzeKfh5w5FjnyP3Ptqaee2kzH6pFdO7SFQhYwVVMzNwPVkQmaUihyVtQrRVT71I+6qm8QbClvNgMCc8UVVxz4H2HzjLRLvyDlgjrUGeFDoNN+qiflTbtc58Ybb2z1yDPwXPSLYxE+ZBjR1ZfaTplLP499j4QxXyNuiH7IPPOuZ9aTuOTuowYj1jHV6xc/Foy3RFWP48kz7ceccaNNXvtxwIfQuEVm9YvXrs/E7HykHrkGvopFAP8BNT9OC0UAp4kigGtCTXAb6AmgrdaoPQgBopA8a8xolBQBBfz0LMiOoa5lezUE0OuURMqK9qUG9Ys+IsA/i7IoRxwihVxxyKfsJUrWcYgREoRQWOCRMXVMChv3okoqVDFqlteOsaev65177rmN6CFESIX6iFLWZu3zmTaqA/UJOWNKdYxjnYNwIjQSERs7Pu/bpB0URG2KAjjmylOYjBEXfSiCV0kSatdBKBNJzETsWOeM11GiALonv0Lt6+ukjtqlzlRTxC3t18dUSPdF8PnbaTfSqa2UuL79rk1Vk8rFszM+9PGyvmeiRwIpySKB/bBwPXVC7tzPfZKsmqnZs3d/YwHZ1z7kjGKYnIaK553xpG/6MWcMGoteG5uUP32EnBu7zPj6A4mlTNoOjxkY2eavmR8ZRQBrfpwaigBOE0UA14Sa4DbAR40iwtcvCX8t3GCB5t9G8UIwRJqKbKWqUbEQhCRORi74eqXw7WK+9HmvACIAlKrs5hF1KEoM86ftyCiQ3o8q0+9rG4xpYCziAYJoezT3oi4iokiB9vlf/SX7NQbUH7mhEqkPssCMyezpWCZX96KWUaoopEyqPdmibPJZ42Nnv1vEbMyVpyDOyJe+QTRS+Bu6DiKGQHqPSVSdqInjdZJ7D4Hho6d9o68cwqOuSWLNfJv2U7/s9Svowz09f4qp61DlEhTjWKZs/URZpFoK2KAs8vFb1vdJA5Mt3cCzi/8fQhkzP3IfPzwmWp9TL4HvpXGn/9MmP0oynhC2fswZg56lMaePEWemeX6rxq5rGcveM7alFgJqI1Ow8123CGDNj1NDEcBpogjgmlAT3AaQCIs1BYv506ILZ511VlsMqTIWe+ZRJkILKLMcJYhyRoXLbhhj4fvVRwEjf0gBU6zF9+qrr75J7jWmSWZIEIVKqXFMcsX12OwZUpyQWQEMoleZMalWFn2kg6Ikijc7lmT7NH3gdczMiIjjFcczKSKV4HpjexEcQG776N8RSI9+FemaErOkQArqmveYKwVGbAZtjAm4j5pOocqBOqs782nao23aqOgPiqR+9j6ChUT17dd3CBpTqfuKlqbSLXsuSQMTn9IAeUS01ZXCiejzg/TMQb+ot/tRo0UNI978TdM/2xU/SpL8277OxhUib+wiesYy9dGxAkIC7YgiuVWfzwWbfbcKexNFAKeJIoBrQk1wGxAYwHQm+KEHYmExRNaQEos9vzAmNmTJ4k5JQWSoWWMQCEWG757FFrFyreyPizwimq4bBZCPGuVIQl6EwMLNxIgUIADLwC+Nqtcj5I+yZTs115WKZBlhO9TCjMqcqi/6beRSkElqFsUNYaHcLSvORaLHxNmu4fpMmN5zjGjl8fwUiqN2MT2PvnVKtnNzTQrg+PmhlpB0e/VS0yw6iNNIAhFAPyquueaag94H5Nh1KLTqzs/QM/fsk/AZIRWVbIwgmnwDkysxgR+OUcYgEGPRmKRcG2eUWCZ1/YkYum7ukx87AV9HJmduEXNHzY/TQhHAaaII4JpQE9wG9EH2TWVO1S8Ks5lFkn9aUpKkUIg42iMVFlV+dny8ko/NNZE/Zk3kI/5fKZQ3xK8P9PCaymaBjypIsbLIU4EsymNBMpliA8Qk5M9fBBJRYdJmAnQd/mOUyH57sSz6/moX8zOyStHjJ3ezm92sKZmUISZV5ld91bdJoWzZgYLaxqTK5LqsjPvhblUcO56f4h5Mtp7VMgVQHdVVnZlxtR+pRJIcr3/5PFJJXUf7XTemWp97dtqvTfL09X1NvWMGloqmJ4GIFf9NfTE+M2PL8/e5eyBtnnmfC1HJXtKOdf+87zkwbfMxZao21vo8gMaiMem5IdLZ3i2Fbybl2mv1y3jXV74DTMfjj4o5oubHaaEI4DRRBHBNqAluA3yzpMXQF33RP8gBv7KYCCl/iuAEzvoWb0TO69686P+RjChUmD4gBEGUaFpqF6QjamASSHsfOeAvpi5jQdKoXyY/ufn414X8ISgQn0bHCSDhoyfilUrnPpRLRAI5QYSRKj5giITPnUMd9Te+arBMUdRPzM7vec97mtkR8VpWEI+c494jSekLAj2en8LHTdoWdUvf9SUmYOBb6Ti+jfqLP5+o3pBV5I+/IRKFiHsuTPBUNO2n1lJve1BbXZeahwRS81xbEAgi7cfD+MySBkZ0MCKeurpffB4Tady3xfFj+xRjLePOGMz/ztevfAIzbhXPyJhWl8wBffFdyO4pc0bNj9NCEcBpogjgmlAT3Pbgr0cN64MVlhWqkQhazvrKC1/4wqbOZdH1+kUvelHbBYOKxMePadJOFkiKdDLUJMTNZ1Q7KVj+6q/+quWmE3ns3GVFrjcO/Mgfc2FP/sB9mCRFyiJmyIrP3ZPSiPBQwyht6uov4hOCIZKYeVIkcSZYvmvaO5IRhFH7mKy1YTNI88JM6RwEBeFSD9cMkaN6+V+gymbgZyggg+/mMhOw8wVzgH5I+72H9CG8VFxkW7uRcwQM2RLxrE78EdP+nlAGIYHGirrmWbzpTW+6ybNS+CN6xo7xvz71vzZ45sZSVMmkBvLXOOCDOI6rbGen6FPnj+NzLMa0MVHYHDU/TgtFAKeJIoBrQk1wq8FCOSpPY0FoBCyIKFaoadSpLLh8vizw/Nb8zd61SED2zRVcwkHf+/4iUorXo+/bZkX+vp78QQig6yA6zIKePTMflQpRki4FcWC2RoT44zmGUmeMICPIkMhZCqPgAmbGkXAhcvwORQE71qS8rKgjYuUcRAyZQX7szNETOaqmY8fzU6iMAisQ5JhU+6KO6krFY95k+tV+bWXy1X4kim+j9iKM6uNcai0fQ8cmx95mgS1IIJKG9I7PZFnxjDMeMhb873kzZ/PbROiMCZ/563PP0FjKuDLGjLWMO2MQCR3H51gS5V7YHDU/TgtFAKeJIoBrQk1wu4utiCLz4ZjCJAU5oZiN7++kJLVMDwSQ6ROZ4vtFxaJSeZ+JWbCGCFERpxRJZkzpUfiKISOORW4ocwJaKIlMl8u2q0PeqGFS2jAhS5mzWWFOdhyiw5yM2DDLUk+9769jxvP6Qqm0A4fXyxRAZnt1dQ+mZEQ37Tf2mWgFRCCt2k+RU3/nCqJA/hyrfvqOuXkz6PvxeeykUDSNGWru+JliLI3jq4jd7qPmx2mhCOA0UQRwTagJbh6IAkhBEgQhjQlQC5E4kbLZCo4iSZUS7EH1Q5wCO0tQDREQClW/O0UK/zImVkQFabrqqqs2LdKc2H1E/jyFb6JzEDHvK6KXBVTkHK9FzHrtL/Mnnz6BGMt8AJly+bQ5hnonojvt1y/aiABqPxMupQ3ZFZAj8Cc+f+4r2GYrs3Zhf6Hmx2mhCOA0UQRwTagJbh5AdChDr371qw8kRpbChhrGZ4wJkWkRMaJ+IWAUw5g9KVLApCuAQTStIIUkI7ZDSSJYBRdQFZmQEURBFqsW0afjOXLmMePmf6+9l8+YbN3LPZMEWl3UyWt1VFdmdlGuyB61lVmZqRep1RcIqPeRRKRTu6md+khfCGxBAPnhFeaBmh+nhSKA00QRwDWhJrh5IASQadfz5suHaCE31DFRsCZOvmN8ypgeBX4wi/KXs6UZX0C7ZfCjA756/PYQLOlIKGkIl6TVVDamU4mOEa5VC3VxPEd9mGzz/+/+7u+29/IZE7A2yYeYJMbao07qJhG34xA8QRlSpfBxFHEr+IM5m1qpzfwWmZP97zz+hfrIsUlFgygX5oGaH6eFIoDTRBHANaEmuHkgJmAKoLQxEgpT+iiBiJMdI5AvCaf5vUkXQ+kSlGFvW0EfomUFUCB+QB2TboTJVzLs7CEr7QifRkExzMiCI1Yt/OvGcyh11Lf877X38plACNG5CFz2y1UXdUo6HionSK4t+lXEM5JnH1y+hsy6gi8kTEZAkULklpmbL6SFBbF1LvN4YR6o+XFaKAI4TRQBXBNqgpsHEEB+eYIsEBykCQEEkaOCNfjASQzNpCqHnchTaWmAfx0lMEmSqXDxsbNdGhURsQwB5G+HlLkf8/GqRT7GQz0HaZXaBVELARQJi7wx/aaeUvBQMO2IwbStP0Ab+R5qLxOxz6W4YUZGCNN+pme7l0QBLex/1Pw4LRQBnCaKAK4JNcHNAxQtfm3UK1t9hfwAkoPYIHh2jqCa8aejxPXmTudT35hGk5wasWJ2pZbF/CoSl4JIKRRcIiehKNpVCh/DQznHceqO0PZbwY11Uld1ZvamempLoI3aKoUMk7D9eyVjlpSbObhvv74TbVyYB2p+nBaKAE4TRQDXhJrg5gE+dJQyJkxRs8y7lK9xP98QKBGwomephY5BIJEtO4fYuYQaFnWN6nbve9/7wDXkAYyvnSTTklRLMbNKEZBxKOfwaXS8VDXSt/R5ANUpiiCVUp5FdRdlrP3apG0UzySiTlBMdiXJPsJpv7Q0IoP1nQjmwv5GzY/TQhHAaaII4JpQE9w8IJXLu9/97qbKITLIkp0w+MEhT3a+SEoXahlFDWmUMsYxJtYzzzyz7UrCF5AKOO5bm4I8yq2HdPkf6UIkVynZ+mzVc7Klmr1y3bPfV7kvlEB1lvCZH6S2JKce07BgD2ZwW9LZgUMQCwUQie3br+8opnwiRUoX9jdqfpwWigBOE0UA14Sa4OYBKtYXv/jFpgLyf2MujX8fH0CRtEgfEzB1j0KGLFLiQHoY5lk+dPYk5l8XckU58x5y5X/BEq6JPNpVRLSu41cp2Ylk1XMcR8FTL/d0b3W45z3v2cy56pZ6Op5pV7CLqODkApQbUe4/BNDOH/qCWVhKGX2S9jtHJHT8Agv7HzU/TgtFAKeJIoBrQk1w80CigBE7OfwQO8qXaF0mYWlhpHFBfih3fN+oYkjP2972trZlm91CBHskMbJgCSZXJlhm5Kh3zK6icwWSMJnaQ3fVYqeSQz1HO2z1Jio4iaDVRZ2omeroNYhqFuxihxPRzRYM96OQarM2MQcju86L2iegxTmIc4JnCvsfNT9OC0UAp4kigGtCTXDzQPIA2i8XyWEOpdCJ+mXWpH6ZOJmFReFKqcJk7DyBI7ZQE1TB7IoUXXvttc0f8O53v/viZje7WTOduh7yxTTsWqtsBTcWquOhnoO0UjbVNT6MFEF5ANVNUAe/vyuuuKL5JiZaWZvcDwE855xzFpdcckmLQhbhjPRphwTZrk35c45zmcEL80DNj9NCEcBpogjgmlAT3DzQ7wSC1PjfjheCQhAopE+OPIqagIcAQZLvT548qVaYUSVZliQagaL2SbZ8//vfv/kGRgG0VZw8gMgi5XHVIg8g9W18f6uCxFLoRPdGAWSOVic+geojuIRKqN3yHlIBtV9AR/IaAhJI5QNmbf6RCCmS7Bx9J/q4MA/U/DgtFAGcJooArgk1wc0DIYDUK7nu+AMCH7qYS7MXMAJ0/vnnN1Ovrdn41gXIlkTRVEEKILIlqbRgCeQQWUK6mJWZValpJuRVC6VOSpbx/a2Ke2gfUzAy+tjHPra1S53URx3V1R7HtnJDANN+r/kLugaTsC3fmMkRUSopczCzN3zpS19qymIlgp4Pan6cFooAThNFANeEmuDmgRBAwQ7UMPnskD1pVBAmO4EghzfccMPilFNOaYERf/RHf9QCKfjNORY5ooohi45xLnWNIsh/zv/Ik/QxO8XVV1+9eOMb3zi+vTKOO+64puxRM6maEkInrYw6Z4u6tN9xCKx2Iog33nhjSy/DTxJxFBSiXY51jgAZamBhHqj5cVooAjhNFAFcE2qCmwcQQLtZSO3CL46yxTfuXve61+JBD3pQ+585lIrnr5QqomvlxaMCMu8yq/KLQ5aYRp/whCcs7nGPe7RzHYtEUgcFTzAPUwDd91AKhRFpG9/vC3KmHV7z36PKPeIRj2hqn/x90rgwW/NXROKYgtVVnR/84Ac3P0F7+0p9o4h81heIoPYjxPwkRRD7TB/d7W53az6QSZFTmAdqfpwWigBOE0UA14Sa4LaHgAfmRb5ih1Nc42//9m/Hyx8VIEsIIIIlFUq2gqOSMXeeeOKJzTyalClSoHjflm6CIKhmlD+BHSeffHIjXv4KtLA/sOspFDaqILLF5y659lYtp59+evMbHN/vC4WOWdprZl4EUN2e+MQntuTU/iKE2iaXn/ZQ+piXBYEguEis8xxjCzlBH5TRtB+RFNSS7eyYwxFPKWR8Z9YJauRujcdrrrlmvHyhQ82P00IRwGmiCOCaUBPcBkSB8hvTH32JuhRicLiFv52I0vE+W5WHPexhbZs2vnvjZ4p6i17dCiGAyByCRsnyl8qlTl7f6la3OlBPKqHkygiVwAqE0PvHHntsI0L2zQXXs3OGJMkKcyl1baf4/Oc/30y4W0GgSvzwmHYdj6wJHmF+ZrpGRpm05QWk3MHrX//6pkom4bU2aps2Kn3OQO31vz5ABh2nUEDdZxXYKST7D4/PzLOUj9GzHT/bqhg76jSOq50Wqu2y+q0ypuYAfVHz43RQBHCaKAK4JtQEtwEKFzOfxVB/pDBlWigf+tCHLp797GcvvvM7v/PA4okgWMjHRbUvdqBwLkWMqdV76fNVi/NF647vp9z1rndtf7dCCCAVrK/fMcccc5M6r1KYWV0TgXF/9eMvx4yKTPIJHE23qxTkSr698f2+eA7uL08hRZOplwrJjIvUUfiYgxE9/+t3kc3M2mM7dlKQ3lVAqbvlLW/ZfCTHZ6boMybz8f2tirGjDszaSG/G1FaFaun4pMihiurD9Afls7+H74C+9HruqPlxWigCOE0UAVwTaoLbwGb9IHecRRLRkNgY8cjCSg378pe/3D6zGFvobU3mdYr3mFYf+MAHLm5zm9s0QiCFyqFC6pErr7xyfLtBJKtFfisgToJAKHfqhew+/vGPbz5vVLL73e9+i+OPP76lOdEGhJXSZEu2kVAoFLiYYBFARCuf8QE877zz2mSMBEkKrSCg2xXRxyKIx/f7oo69Csb/kC+i+nufCuh9yh+SjvB89KMfbSlwxnakOEaia6+RJe1CLJEmn0mUrY2e5yte8Yqxe5dCihp5EpeZWY0bqXUOFfI0el4CW/hkGlNIYD/mPD/1TJ5HEc/UxuyTrB3M86Kt/X/55ZePtznwQ2ju2GxeKOxNFAGcJooArgk1wW3AjhdMoBL98gkLzjrrrKaSCR7g70axYY6l3lCYkComUIsx0ydzqtcpFmjXFUgRsmGBFu26CpgR1c2iT22zK8cICz0lciswiyJPIlhF837kIx9pEa9MlOooFyDfQGRVwIc6CgAJ4XX/7PQhQCKgwiFI8bVTpIEJ6eFnKB+gHIIIB/WMHyEfwmWFDyFCN76f4lz3R2jUl6kWSb3vfe/bSC1yo9763DOLWfe6665r9REM4rkh7+rsc9dAHJE8n0kL43qeMTJIkbRjCnIqv+GqO4EwVSOAl1122UHve4b6ldlZ/yOKq2KZ4syc3485z8lY9NqYYZbn46kdxi6ibCzrN2P77W9/+4Hrq7MAGs/bs507an6cFooAThNFANeEmuA2QEVDPCycVDH+bHD99de33HLMm09/+tObakahEqhAaZIaBCkcF+UUBEMU6fi+RXaZMtQD+bNgR9FSkBbBF5/61KcWl156aUtcTO0R+OB/5XOf+9zi05/+9IH/FT5xtlljmkXGkBKq3FOe8pSmDCEDAiOYuClnFEv3dk+kih+kFDAiZKlKCJHJVu5AfdbXjxpJVeLPh2wgY3znxj44nIK0xXyNcIZgM/1Sx9QZiUF0kMUPfvCDLdBDQIc2awvTep4NBVTEL9KYaGcRwj5HDG2FhxwJCkGM+r7tS9/3+ltfJkm1Z2YnlpDl1BmBWyX1DR9Gal+SXa9StOnNb35zc3HwPI1dJNiPBoqnsZ1xKLjGOKFSO1egyNxR8+O0UARwmigCuCbUBLcBZkXkxmJ/1VVXNQJINUMcsuDe+973bsdYGBFGylkW0XHhTbHYOx+ZEEzQf8bEaLJ68Ytf3EiFa/FVk4gZUYn5lR8hvzp+Wf53PyRVPZyvzgjMc57znFYokp5p/lf4e6kzhRMpQwY8e2RNoXpRu7z3qEc9qhFA5Cfjg5+YazzykY9sfpFMyUyhgjBsxxaCp278AL1HYaToeV//UiApUeqKZGiTz5hZE2SBLGpvH3ThfyQPoUPcEDTkkjLq/D5ABVGVlibXRdhf+cpXtmepTvoYYXecdmiX9ns++iXt1/eUUOQRuUagvNZHfiggSn4E9H089j2SpQ1IN+LlmWWsuJ/29OPBOZ69MaCexoSxwXyvHxFebdUX+kHpz19W8uNFn/vRYcwYwxROn+tvkd5nnHFG+2FB0Y7SW+luan6cGooAThNFANeEmuA2gKAwkVlULYLAj81CjEggRJIMI0HMdlQwBNCivoq6hXQ4ntpGZbOIW9AFL9h3l28XooDYICrOsUjHfOwezLP+WtT53SE6iAzzpWKRV5gWkZf8rzBtWtiZSZlQ5dHjV2iy1DbtQAAonpQmZkOmcH0i8lRiaGqfPmBW1H6mUL6AL3nJS1ofaRO1EnlKpCyTr7YgtMD/USSudC+IDSJpl47NfADV057ECBCSIuKXgqeeCWhhFlUPBJeJW3E/n1PugqRPSQCLNhn7nqmo17796uc9UbKO0VeuhxxSPG9/+9sf1L/L+t7+yPrEM0KmPbMQQOOh92NEwP3Vp+rJ1E1dpvB6/q7reK+RZ4EuyO04zsaCPOsX48w52q9NVEdk1g8Uz8r9gL9gfvAUAaz5cWooAjhNFAFcE2qC20BPAJnxwELMpGgRtfhTnBAgx1g8mRqZ9PjPUZEsmhb+qGqKhdf7iJzFHyGI0kUFQiSY5JANCZCpSggD/zbmuxzrGrYm85caxbRIQUIqEQ7PUb0VpEsOv/yvIEkURPXz+Re+8IXWRkQI0aQ2IXjyFNoRA6His/czP/MzjbAFrkMJpYZ5zSdOQAEyS2GiClKUpIoBilNPJhzvevzOTj311Ea2+r11maURysD1KHgImXOQO6Z4ATF8Al0bcQbEmfl1GbTTcYIbKG19+7VR//ftd1+kmFKatjBru4b2M5dTh/s+HvsegU4KHaTN8/OcMh6MBa8pocaUsYKcqR+l1v2pjwi7Z2zMOdb1jD0kzvne78ccRRg59Brpkw7H2PLDw32MYWTU81Mvbc0zYOZ27SKAG6j5cVooAjhNFAFcE2qC28AyAohMIBuUNkQL+UCU3vnOdzbiR7WxyFNzmAUtmpz+mQFTmCtHVUaJ+Q8JSHSmgmxSe5Krjg9hn58OWRTE4bqIlv1pJUXug0CYOxGtHlQgpkBkguLDJ007kQWEEvERKMFPjQpFCXMfRI/fGZ82cC8EBahs3kcA1U0/mHwpVyGN1Dyf+Qv88Fwf2TL2YppFPBR+c4hd/ke+JG9GYETN2spOfW1Zl+3acm33Fpm8DFkU3vKWt7S+0k5kk88fM7C+GNvvPWZifaQvjAfPnwKKHDt/RN/3SCbFlcLrPc/MdRDOPE+ELuZtCh9SZwzkc2ODaXsrNwPjsB9zCCr/Rq+psZ6HHy+el7Hrtb2P3RvZ0yeeBxQBPBg1P04LRQCniSKAa0JNcBtYRgCRJAslxcSijOggD/a7RT4oakya/OJijqPqIVopzIDII8Woj5RFxCh8CIYJi+LnffnZmESRGoSTqsbsR/WR6oSpGLwOkDv1D5xHvezBZKs+rkdZSsQrAoRwiUxlcpX8N6Zo5JZCRwWjGDEFI8TMsdKYuJ6681lTb+SUUopgagMfQP6A2qWPmHeZGKlZzM7ed38EZyQ1fUFm/KV0OU/9BDYgOLm2fuE/txkB5HtInUNg1d91mHI9FyqgoBZt7tvvPW3znBwbU3l2GdGWEX3fI5TIWZBnRjn02jONeV7dkDC+p/pSu/yY0L+CfKh5+jd9Yiypu7FljPVjji+jscx9gblbFDbi6tkZu9RO7XAdCrRxncjmIoAHo+bHaaEI4DRRBHBNqAluA8sIoL9MaDG3UZ6YNKXtkFfOAi1NDLOdhddCzYzXL8bIGwWReuX/LOCIJb8rff/Zz362kRfEAoGhEiEeSBaTsOP5/qmLwBHvMS0ifl4jRlQfCzvy5RiqlkVeIALfQQQTiVE/nyFmFn2KnEAD/nWImS3VKFGuZ/sz0anvfe9723E+dz4FifJIuQsQpqiE+k39AelQf8Q5kcfarC+9T2GMCVyRf1D9878+4Qeo/UiQNiFIfOM8s1wbcdEOCwB4RlQ3hbqJ5GoDAuQ5MX3q64suuqhdX1sRvL792oc4etauS6VTbwRLiRncM0gxFhzjtbZ7TkinOnsdE7+xFtWPX57IbOTRM1evBJPoL8/QWGGWz/jxg8OY4nM5/uhADJFKz1h7mM9jytYvyCtFlbrIFG3suTcUATwYNT9OC0UAp4kigGtCTXAbWEYALb4WTioL8kRpYf5DDBA46gn/KYu+BdsxSFJvjqP0OI5psN9r1jWYEdP37tVvgWYS4+eGSOUcZTNToLrFVOwvxY7JEfmTz47KJiWKQBCLf/YCBkSCyRZ5QFoQE/elrGknUAf1hRx7CA5TLdKEMPCZ0x5EgsrHjJpJeAwCQcIcRylEwqhvIomDcSu4k046qfmnqaPAFP1tzMqjmCCQXNu13JtpHEFSd58xYTN3qov6e8bIW/LzIVaIp3b5m/YjajFla/+Tn/zk5hManz2mXMRO38Yfb1lZtttKIpcFz/D34zfY5xfUB9k3WnvzvHK+QBj/cxcY3Q48Z/5+VGYBLkivdiO+nlNyOxrX2iIQJ31eBPBg1Pw4LRQBnCaKAK4JNcFtgF8bosQ0St0Cf6lTFndmQMoKRUiaGGqXyE5/LeAJArHw2kUihVKEAFJYkIss4P6nSiFcQAXsd4ZAehAZpAu5cw4VTxQqwqROCjMk8hq/PIs9UmLXEucigIgSokBZU2c+aX1yYiQJOXAcwoDQIAna5b0g6pR2JF0NUyxShpA4Vpv4lEUdHINATNCOp5y6D19Kfn3BSABF6jJhImlMp6973esaUeuDQHJt51EymXD1E3M3UzpinoALxOuUU05pbQmQc+oqhU4C7K3aj8Aif66LRCLB+hXZvvbaa5va57nzIfRMmYD1t37gMkBtRNiMM/WhEHMxQAAR6cD4iI+ha7qfMZHxw3XAs/ZcmZH7Mefaxq3XfFONIz82HG/sGsMIIfM7FRABzN7O6h0yG9/KOaPmx2mhCOA0UQRwTagJbiPdCz8z0bCUM0oRNYmpkypIJUHikAQLtoVcFK73HZPEuZsVC6rca/2+rf6nsFEU3QsJo9ggMaJgEbL4ySXNjIUdgaM4UpWQUgs7M5/F3LlURoSEedjnCShwLaZCZAMJcQ/Ex70RX59ph0AObXZ99UakHIPwIXXIFgKIxCERSGDvm+b+lLeoesnV556AuMWkyY/NtZyDICmidLUn/7u/emqza/BlTIqZqKPZm1f7kSGBF33/a49ny3zts7TFX21Dkiij2o8Ap/3IFUWtb786IJSuR+11feRS/fQp1dBYQrYsRMz/J5xwQrsOZQ2ZR8ypdM6lNuoHz4qi6F6eqbFgTLimZ6IfRJunTZ4nNXIr5VFxbWZz1zNuFc9aG7XP2GKWdi33Rqoz3oxP3405o+bHaaEI4DRRBHBNqAlu0dQw5j2Lv4WdGkPpEjEpDYeF26JpEbcgR92h+rzjHe84KGpzWeGnhQghfXmPU75gBL5m7kX9o8YgB/asZd6zaEseHaJBnZLSw4Jupwt1EjTApKueVDXkClGgJiXdh3OlIHEvBMg2cHIdimp1b2STcuk68R1TkBlE0jGUL/5jIkoRA4ofdRFhSDBGiAwypPA5o1pR3ZBfhI5S2e/isR15HgtygmAhgoiu96ioyEtUNWoswu619iJL2u85eN/z1RZtiqLpM3XxOXLEhMxEalz07aesIpnM5cz7qRd1mBqq37Sd351n5brIIFJMYaTWejbUOT8gPBP3dQ41kVqXa9qZQ1CKayLJ2pzP/BhBxhMtvllxbXVxP2PM2BVs4nz35i5gTCOb2kltTcJy/o0U2Tmj5sdpoQjgNFEEcE2oCW4DzKYImoU85lGLn0hKpAMRyg4ZFnELKmKIqCFy/qeEIUB9TjZkAalwHJKWhdmiy8TmPWAmNHEhGUyJfN8oR8iJa+Y8ZEddOO8jiMyD7kE9soirB9Nn/N+YCil8iBBCh7S4NwXPYg9ULec5lnmTyohQMTkLUAiYY+O7KHiCCVQbsnMFVQ/poxohJ0gGkuN62cXkSBcEWD0pWogcUoXI+YxaxufOeO/NztpDHUyh0oliRjD1Q+AcfacPjRfjQN/qO2Zn/0u74t6ei+ePTPmOIcvGi/dEUyOrSDdyh/gbe0zTgNgLDvG5HyTO8ywExaSdxlp8AMfckwiyHw2eiTrpA4FCnr//kXE/DtQDQdRfMT9TaOMDGN/KOaPmx2mhCOA0UQRwTagJbgPLgkCofBZ4yo0FmBqUAAqkD6GI+YwqZiFm2huDQJAv6k2vdlHGkDTkQboZxIrp0wQmkIHPG3OoxTjBHQiohdoEx2TJNOo6zMgIBb8xn1OnkBrXsLjz70IWEQrFZ1REqiTVh18dUy6ShiQgl/zf1M0xUsRIs6IP9IfACEQhu0cgfK7hPoIzAr6ASBQCQilEntMWvpEUVKQGeXItBXHSzvzvM0SEqkmxSv9REbNNHH89hE0/ZP9afYNEuzcSpz0SSTMXK56Teutv7VFPzxGxQhI9OyQPoXUMsuwcZFk9HM8/UJv1seegOD+7rLiv5yQ6WX28dj1EMhHh+oMJWV+rryCMc845pz1P40wENoXWOKPgpf3Gkvc8s82CQIxJxNKzRmz9MHBN41xfOQ75pFBWFPBy1Pw4LRQBnCaKAK4JNcFtYBkBZCL1PjWG3xezLSKBZCAHFnTkgepCbaHcUF96h3xEB6Ho/f8URNKCjEgiStlxxCIvMIJCR1nrSSO1KEAsr7nmmvYaaUowCTDxjUmKES0kyjWQFKSBWoZEiK5lJhR1inwgXVLRIEjqgEgyQYYgIhR2xUDQqKTOQwgFpAiKQWD9FSmsHQGCrC+0U58hRYHEzorcg0hS/g8QLYqVc/UJ0yeiiIxpDwKI5FAlEXdERh0lYxb4QMlEzPRDEjFTPD1L5JRpW58x6WtX2k/hRJgd6xymb/dFjvpAmqDve0Ej+lk+RPDM0qaYzRUqoUWL36R+02eImTHFxO+HgHr3UeQKQq0/NwsC8b3Wz4iqHwDGmPYi8dlCENl761vfWomgN0HNj9NCEcBpogjgmlAT3AY2I4AImgVRkAUFCWljzmOa5eBPGULy+oV5lcL5H6GyMCMv1EUKW5Q7z4WZbjyPWVX9kAn+aKm744NlO4HExE0VQgKoU4ImXA8JDOTXSw4/cKw2I6Zy1TE/az8zNRVMUEyCFvQfMoWEUNmQYe/H3O1/5lVkmKmUSoWUMnEjz4o+QUzyv88c4zw+kM71GoGJ6TVJtJEdamDq4X8qK79K9wPkWv0RnrQ/quGy9mub61HInOPY+CAimiP6vkemmGKlkKHyUjyd4zn0ScERQEQROafEumcUZ/VH5lwnqWMOpSDITMv8+dxX2/k3+sHg2bk3hbcI4HLU/DgtFAGcJooArgk1wW1gGQEUKBFlDvFBDBAOKo5jpPigdiFIXgu4kELE65TNojRFEVuQE5iAuFBuLPwIpb/qwvyccxKdifjwDePXpX6UIcoU/0FFHd/97ncf+F9BhpAmpj/kJbtYaJd6IhrMjZSv5PNjPkUSKIwBQkyNAu2lBiIn6s+MTcVCYBAaZA5RRjB8RslCKpBD71MIBa4oAm4U+/46Lv/nc8c6x7kCSexQghgJktB25+gT6hzCyczqXvoRgVQf5mmBGcjQdu13P+8hbcYGSAskAjnb51EN+z4e+15AB/O/54nwC0RRV8QWme3HgzGG3ObZu4c+Rcaozvpysx8axlg/5ijTno3XnrdnQu1FeI1dqrWgE0qoenEbqL2Al6Pmx2mhCOA0UQRwTagJbgM9AYyyQ7VhLqPW8NmyECcimALHFElNsagzPTqfWc7rFCpXyFufxFkUr/8RLCZg12cWRrrkaXMM9as/B7kJobTICwDgP8YMSMlJmg+kkYk0/yMCSCbFkiKExPHpQ1KQA/VGSCiPti/jz+c1IiQohvnVsciuOlHTmFWRWKTYdZEJJENKFWlLEFvKovFFbaJyUtH0CWKFjCB0zL3JQ6dou2v175nQHeucKHqIIlXStfWL61NMER5k0H2ptvqIH6PPQHvVYav2n3zyye1971Hl+OY5Vh5ChJEC6bqeAfKbfh77HgkT7Yy46Y+QeeZd46FX9Iwpf7WDz6CxYGyddtppjTgKpHGNHN+PJ2OsH3OIpHp77ccBH0Lj1nNyH2OIyirq3TWQ2vhzMpkXAfwH1Pw4LRQBnCaKAK4JNcFtoCeAX/nKV5pvG2XkggsuaATLgkk5QnIoU0yJSIVjEEAEDhGh3iAoKcn35nWfnw55tKgzVSJRIlUFXyBQiJIce0gGhcb9mVKpXwiFBZ5SpY5JYeP6VEmFrxs1y2vH2K+YUug9f5FGBAJJQWYQFPdOahHKGh81ZM+9tMGxMUmL7KXCIT8mW+doA+LlPL6SVEC+Z8YXxVKd+LYhJsiG1+qM0CFeKXz1+L717zkGKXQOU7JrJMDFtfUZ4uSe6uU5qYvX3kOqKYDIJkKPfG/W/vjIIV/e41/nGMc6R9+5v4VG+4wPfbys75nokUBKMvXQDwukVB+6Pr9S/0cd1Heevb/ujagx1buP8eeYjJ9+PCGA/ZjzI8RYNCaNDURZ2yi3xi4S6x6uqU0iuqm0foggwPmRUQSw5sepoQjgNFEEcE2oCW4DzJyIhwXZImwSsXAD8xxVi1nRYkqVYtKkqiFlTLkWVIoK0sZsmIJ4ME1a5Hs1j8oiqCGBHFGHosRQuBCc5GSLKuM6zJ49kFKkJ7CIBwii/XyRIQu6AAXmU20IaZEXEMHhKyYtDT8xPoPe+9CHPnTgOP5xFDpK4MUXX7z4u7/7u5Yfj1Lqf39dP3vwSm0jqEHxuYjjU089tZmXvc51vE4RjEI57N9zjGO9Zpp1jXzm2u7pGPdUh754Tx3VNfek7m3WfsEenhvlbWy//IzUUff0fPK3z5XX9z1zquefLd1AkAklLqTT2KAmUynjh4fketaePTBXM2t7xhk/fhRkPCFs/ZjLri/GpLGJ1Bq/VFTtFvUbU7Tr8OcEbWYKpmwWAdxAzY/TQhHAaaII4JpQE9wG+MVZrClxiJcIUuB/ZjG0mFrskQQJepFBBMHijyxRWvo8f32x0PfRvIiiCFPmSwECSMOYe43qhQwJvOBjiIS6TnLF9djsGSKwlDLBLMyACNEyMPshInzXKGaUI75s1NBlka5HEurIBHo0gail/dpNQePfR1nbrP1Ipx8KyGW/bVsPZmNjJD6lQcy61Lfs1atk3+Hsn+xHAXKmfnwOwVgYx9eyYiwak8z9SC8yR5k1dhVjRtS0YwU3BcZXEpsbC3PHZt+twt5EEcBpogjgmlAT3AaQOAs/darHFVdc0RZDCyk1iUkOQWIGZN6zyDPlMadRYhDI3iGfIhMlJgmJmfQQDETH4o70RAEUVOE9yhMljHKFjFKFkpZkBJOeII8REgUjNRRASaWdq/59oWgyJ2sLRZLpkN8YkzOS4v5HE+uYwJH4JEZmKvVDgGmZz91W7d+OBBobrhWVN/AcmImpvUlVg6DxMfTsk/CZqd2Y857oYjuYMHX7LIEfjlH6MScQKX5+/DQpt37geKbGrrGij71mDs+PncDY5P+Y4Jc5o+bHaWEd80fh8FEEcE2oCW4D+oBPW3zI9IvCbGbBpdQgB73KwgTH0V5QBMJgQRW92edkcx5iSYGjqPXnW6ipeuM1mXl9lu3S+J1JGMzUi1BQdpisU0cEdHyGZ5xxxgGTNSXQFmDZ+mw0r1K53IdqxJ9OnRADpJRCeTSxjgkcAUv7sx0gwuy97dq/FQlEHim//PI8J8/Ms/MM+SgiaVGG/fXMPet+PFDjBI3kx0OKCHDjy5j1I2PMA8jH0Gtjk/9kXAlSJB3PVnqIb8aSse87IDhp2Y+KuaHmx2lhHfNH4fBRBHBNqAluA/zqLPr6oi/6RzoOEZuUFhGeVBWFaoQs8ZlClrxm1vM6xaLucyZepMo1mHelZBFd7Bz3EGwg4IL/lkASRND/FvJs0YaMxkQpUMFCnZ00qEcBh36+XMy/o/lxGRBAdeQrJuCDT5pAEHWKH+TRwjomcApg2q/NiDczrOCPVdo/ksA+PyDljpLrWXlmnq3nhQAaK6J93cs4QP6i0iF4xhciRsnzuf+lb6FM+pFgfBkvSj/mXNfxXmsX8sfvMONWcT7yhwRmDuiL74KAkbmj5sdpYR3zR+HwUQRwTagJbntw4rd4M9NtVfhpUdD4ci0r/LekkuGDhRAwC7suB39kjzKE6CEH1EY+W4o0JPwFkTrnUpGYoOPPpdjNA+FDQPogj1VA5UIY1IdZEtEUES1AYDMfuCOFdUzgfftFIet7pN97q7YfCYy/pSATr0WIv/nNbz7wjPQpNdBrEc2UOcfITeie7p88h0nfY3xQj6PQMdvzzXPuOL5SuBwYi+P47AviqY19AEvhpqj5cVpYx/xROHwUAVwTaoJbDfy5xgjTsdgVxMLK1LesWNgVi3MSKitMu97jfycnG58+7/PBUpjlvIcYOs4zo95QB33mPQVJpBY6VvDIquBj5nqUKUBQpE5ZxQQKUpyI+B13H9kJdmsC9zzUSd22w9h+wTf8M1dtf8CkTjlDoEVSe06ei2ckwtz18p5nyd/TX59nLBgnnrkfEt53jMJHVXFdY8d74/hKMQb5i47jsy+ijg9ljMwVNT9OC7s1fxSOLooArgk1we0uViGKy4pITabD8f1lRfoRypEkzUhO3regM2PKRSdpsgCQfj/dzYDkMAkKFJBmRaoXJJLZezsCRGVUFwEnUuOses/NcLgTuH137WesLuokcns7JfRw2h+4B9VV3yNoIskFX3gu/sqpSMH17MbnuawYC8bE+P4qZRWztajjrQJcChuo+XFaONz5o7AeFAFcE+Y2wYlwRFgs0Ep2m/Da4i0/Wv++QAokIvnTKCt7BcyVTImBHSyYgilQIo2Zc8fI1GUQpSqnIfWRz5rgAQmjBSb0ee2WQW48/aPfDuWemwGRYhLfKUQ0Uy8lfVYnRLDvo2U4nPYH6Qd9Lym2aN2YV70v4fdegeTV/AyZi1f9HvTHcTOYC+Y2P04dRQCniSKAa8JcJji7e1iEOdcLomCS40fF1MbPil+dwAcRlCJ7+dj5jD8VMpAoYO+NqVTWUZAM/oEc/ql+/ML4lwkSSKSnaFb+Y+O5Y0EkExnaEyDv6bPx+BSK2XhPufNWuedmBQnjKze+v2pRb6bw1AeJe+QjH9n83sZjU3ba/pRl/aDvpdNxvmAMx3hm47nrKNopcETS8/57YMxrx7LvgWfqWN8DCaSZum0HuN8xl/lxv6AI4DRRBHBNmMsEx9zFqR9BoW5IeCu4Igs9Xyxbd1GOLNoc8PlS8dnj0K+PpFvhezWmUllXYVrkq4bAek19y24RUoxYzKlP43ljkfvQOfwHvWYC1R/e49c4Ht+f19+TyZSyRDUdj121LNsJ5FAKM6soa5Gu6iSq1zOkeo3Hpuy0/f35Y98jVRIsG0OIoOcznreuon8R1P57oJ7GPN9A+ySP3wOBKnZg8T3IDiSrBshMGXOZH/cLigBOE0UA14S5THB88+x8QGFK4lvkyX68InCRPO8jL/b5pRpROvjSBYgWE99eAp83ig6/NwSW+ZRSk713v/zlL4+n3AS2GpMqxF6wV155ZdvuTKJihHlMEjxCqhD3pBa5L5Xr6quvHg9bGXzYDmcnEKoUEyUTLDJKDdzObH847Q/SD+l70b8IE1VwrxElPwoEmmg36G9j3Zhn4pUXcfwe8KcMQo5X9Y+cMuYyP+4XFAGcJooArglzmeAQQDnVqB0JUhBRKZLWQmbhlxQZgfHa8UxhUnMEFk7q0l4Dvz8569TbXrMWb0qYhXwVaD9TKbPehRde2MgBsisB8SrkxXZ57qnYOeVwsBsTuHbz10RmBKVsh8Ntf5B+0Pd8B+2mQTnba+ArKlo4z8r33/fAmBc1PX4PJMjWH/35CPMcgkjmMj/uF+zG/FE4+igCuCbMZYKzkB1//PHNX47vHFMu8yDfsKg8jvmTP/mT9hpJFEDA/4lpUGCBLby2CyhYF0QEI7Q7gTQoyI68f4973OMOJKL23tFWedYxgWu/nVYofszmxgVztv932n4kkK/p4UREHykwh4tUTgqa+CpSk0H0ca/4MQcbE3YM8T1g7pbE/FDI8VQxl/lxv2Ad80fh8FEEcE2YywSH3NkWC8ERCCIhMxJon9yXvvSljfjxFZOsmdlXhCTCJyhA3jY7eUicq7/2IiSrlkh6lRQgIxAghIcqpI3UMKT3UNKg7BbWMYFrv104KL52AeE/6JnvtP0imZFn+RT3IqiUzOPxezTWEUB/jX3Rvkz6/feAmRhR9D0QpLPTvpka5jI/7hesY/4oHD6KAK4Jc5ngpOSwjVuIX3z7KBof+tCHmt+XXTgscvbPRQr5kTGJXXvttYuHPexhbd9VysleBdPlQx7ykPHtbZFEyKJh7SJCueK7hhQd7UV+HRO49tumT//x8ZSYm8mTCnqo7TdWnG9Hj70KpM52f8az+oIfOn4E+V74Diheey8+mXw7fQ+4G/iRoN/2O+YyP+4XrGP+KBw+igCuCXOZ4Cxe9lSVqw7ZYwYDCxz1jAP/3e52t+bzx9TF349SEjiH/58I0b0KKifTnGCGQwXli2mcIspMjiQjRUcbiHofeHO0oP3afeaZZ7YdOey6sZP2C/wQBbyXzaPIHpNub+ZNvkvpkOyIIoo53wMl8D3wo8newpUGprDXUARwmigCuCbMYYJD/hC/2972tm3xEvFL5ZMTTSoMC/5DH/rQ5v9FQbP4yQXnf8c4R/Jo0Z0IIrIor+BeBBXL4uy5rlqoPRTAe9/73k29esQjHtEipr2nf8bjd7vwQ3Nfr5lhmerHY45k2c32U8ikUtmL8D3wg8f4ls/Pjxlj2xhn8jUPiPoVOe17kD2Fx+8BRdB3yfdhr34Pdgue6X6fH/cTigBOE0UA14Q5THDXX3/94txzz22+XRdddFFTyj796U+3nGgiaE0Y3//939+UJ4EUkvZa/JLP7hOf+ERTCeWE85n/XXMvgsmakueZrlqMAcEwtj/zmi8gU7f3Mj6OZHna057WiJbX0qhIQjwecyTLbrYfKbKzyF6EMSvCNzt92PbOWDbGjXW+fYih4CeEUACU98bvwcc//vH2XbL14F79HuwW5jA/7icUAZwmigCuCXOZ4KS8YAJm2hOhKc8bUDOYg6l6fKIsesxgon2phCClB9UQKaAkFnYXng3fQ1iXCXhOsEAKhPI3PoByJ1L3kHGBUJRAr72Xrd/yPZBLk8q8apqhKWMu8+N+QRHAaaII4JowlwmOT9Zd73rXVjj6W9gA8RO1meCH7IEqn55AkAQBSCHDJGgXhcLugroU38qawI88BIGIGPeDJ2lq5P2TzNrY5/4gOjjfA5+BNDH5HkgZVEEghb2Gmj+miSKAa8JcJrg+DQz/LqYtgQ6//du/3VRARJAvIPUD8TOJCKbwWv/c5ja3aSlSLI6F3QWTIrMk1AR+5MGk63uAyFH5qOK+B0y/xjv1m9+f197zmWMEhfge+O4ImikCWNhrqPljmigCuCbMZYKzWElfYXsrahNfPgoIv6/AzgYx+4LFjyqof0ROIoR7NbfblEGBfetb39pe1wR+5GGvX8mcuTTwd/Q9YNYNPA9jPxDU4hj+sb4Hp5122uLYY48tE3Bhz6Hmj2miCOCasFcmOM7kn/zkJ9sX2H6wyJjXY/EZR/RLLrlk6TH5jOLn2LzP58/G9hYv++NKYSHCkRoo7YW9W+UDlPSWKYypl5/UYx7zmAMLnRQYUoWM9+zv3d9zlfqq52c/+9l2zPjZZm3Jdcfr6b8pOuV7HvYx5o8m0GDqE/g4liXnVpY9w63GxrLxNJZlx2x3Xf2L4AkY4n/pe2CsG/PS4Ng+j9nXjx3v+Y5QvhPxy12CEug7NV572bhMPac4lvfK/FhYDRnfhWmhCOCasFcmOCkqmGF9efnnnX322e31WHxmz1XmqWXHIG9UvLe//e3t2LwvMS//JWYsCY8tgNJ9MIMpTGIWP4uhdBe3v/3t2/uSQz//+c9v16IG+n+8Z3/v/p6r1Fc95d5zzPjZZm3Jdcfr7eX0NFuBOiswBxmx8GvLlDGO5be97W2tLHuGW42NZeNpLMuO2e66T3rSk1qwk9QufvDke2DMS34uPyCVnEKY74HE4L4zrk1J957dQ8ZrLxuXqecUx/JemR8Lq6EI4DRRBHBNmMsEJzWHnUDs8MCUZSGyKNsS6w53uEPLBXfhhRc28kfls0D6jG8as7HFkOO8HGmF3cXHPvaxCgI5irC3LzXcjx1BHvkeSH10wgkntFRJjqGM53vARI9U+h7YK9lOIKKC9zvmMj/uF9T8MU0UAVwT5jLBiQLmt8T3TyqLV7/61Yvzzz9/8apXvaotdnyifPbjP/7jzemduuEzZuGTTjqpKVTUESphYXfRT9o1gR95nHHGGS3vpR83/feAMk7t5g84fg8c41jfA2o6ZZDZdr9jLvPjfkHNH9NEEcA1YS4THN8j+59utX0VPy0LXOHogtk3CiB/sJrAjzzk9vubv/mb8e2G7b4HTNy+S3xX9zvmMj/uFxQBnCaKAK4Jc5ngEMBv+ZZvaRGOm4HT+V7wO9pL0CcW+gQ1HIkimIAfmNenn356Jds+CuD/J//iMmz3PVjlu7RfMJf5cb/AHFIEcHooArgmzGWCm9OitZug9kiObXu53kl/N4s8jMm9yARpv9rCkQWSzfdyJ5jTd2ku8+N+QRHAaaII4JowlwluTovWbkPut8985jPj20cETPQiQgtHFqJypWbZCeb0XZrL/LhfUARwmigCuCbMZYKb06K129jKXLjb6HcFKRw52G+ZWX8nmNN3aS7z435BEcBpogjgmjCXCW5Oi9Zu42gSwJrAjw6kQfKd2Anm9F2ay/y4X1DzxzRRBHBNmMsEZ9G6613vuvj7v//78aPCNigCuP9gv9//83/+z/j2SigCWNirqPljmigCuCbMZYITySr3Gd+nwqGhCOD+wx/8wR80c/tOYMcWiaQrDUxhr6Hmj2miCOCaMJcJTiLor//6r1/86q/+6vhRYRsUAdx/OJxneuqppy5ufetb7ziIZEqYy/y4X1DzxzRRBHBNmMsE94UvfKHtX2ortxtvvHH8uLAFDocsHCpqAj86OJxnajs43yV7OO93zGV+3C+o+WOaKAK4JsxlgqMA3vGOd2xbWF1++eXjx4UtcDhk4VBRE/jRwU6f6Q033NBU9G/6pm9afP7znx8/3neYy/y4X1DzxzRRBHBNmMsEx3H9u7/7uxff+I3fuOkWWIXl2ClZ2AlqAj862GkiaDuEHHfccYvv+q7v2nEU8ZQwl/lxv6Dmj2miCOCaMJcJjgJ4l7vcpS1eL3jBC8aPC1ugCOD+w04TQb/xjW9sEcB3vvOdF3/3d383frzvMJf5cb+g5o9pogjgmjCXCY5acZ/73Gfx3/7bf1s87GEPa6aswmooArj/sJM0MNdee+3i53/+5xe//Mu/vDj++OMrDUxhz6Hmj2miCOCaMJcJ7tOf/vTisY99bEthgQC+5jWvqWCQFXE0CaD7nHjiiePbhV3GTtLAvP71r1/c6U53asTv8Y9//OLSSy8dD9l3mMv8uF9QBHCaKAK4JsxlgrNo3f/+9297zb7vfe9bfN/3fd/i//2//zceVliCo0kA/+///b+LP//zPx/fLuwyDvWZXn311Yuf/dmfXfzmb/5m+/8BD3jALHxp5zI/7hcUAZwmigCuCXOZ4Pg78f9jCr7uuusWv/Ebv7E44YQTFl/84hfHQwsDDpUsHA48p0rWfeRxqArgj/zIj7Tvy5e//OUW/eu7NIcfUHOZH/cLigBOE0UA14S5THBRAOP4LprxB37gBxbf+73fOx5aGHA0CSBS8nu/93vj24Vdxl/8xV+s7AP4spe9rH1PBFIBAui7VApgYa+hCOA0UQRwTZjLBPepT31q8RM/8RPNBzD40pe+tHjIQx7SAkMKm+NoEsCawI8OzjrrrJXSuPzZn/3Z4uEPf/hBuTOp5o95zGPKB7Cw51DzxzRRBHBNmMsEFxPwuH/plVde2Ujg93zP9zT/s8JNUQRw/4Gq98lPfnJ8+wAo5P/9v//3xSMe8Yib7PjB9Fsm4MJeRM0f00QRwDVhLhMctUP+smWpKwSGPPKRj2xKx9EiOlNCEcD9h7PPPnvTPICUvV/7tV9b/OiP/uhBinmw1Xdpv2Eu8+N+Qc0f00QRwDVhLhPcdouWKMff+q3failipCGZg3lrVRQB3H8QBHLxxRcf9B43iec///mLH/zBH2zbvQn4WIbtvkv7CXOZH/cLav6YJooArglzmeBWWbQseG9+85tbstu73/3uzdFd0lumYeePprC54OUvf/lR2/VBgMGf/umfjm8XdhkvfOELF+9973sXn/nMZ9oYf+pTn9rG/IMf/ODF2972tk3JH6zyXdovmMv8uF9QBHCaKAK4JsxlgjuURcuOB0jfc57znMW//bf/dvFt3/Zt7dzb3e52i6c97WltwdRvcyn/4l/8i8UTnvCEm7x/JIr7uN/4fpXdKcbuAx/4wMVXfdVXLb75m7+5je1f+IVfWDzzmc9cOSr4UL5LU4c+m8P8uF9QBHCaKAK4Jkx5grOdG8WIKesTn/jEljn9DmfRon457+STT1781E/9VNsGS5/NpVBCH/e4x93k/SNRfvqnf7ol6R7fr7I7xbP0o+aHf/iHF+eff/6mfoBb4XC+S1PDlOfHOaII4DRRBHBNmPIEx0z1rd/6rc10ZVG76KKLWvTiMuzWojVHE6V+PVqYY/8eTTDni3z/0Ic+tPj7v//78eOVsFvfpSlgyvPjHFEEcJooArgmTHmCswBJVfH7v//7i2OOOWbxpCc9afHqV796cf3114+H7tqiNdcJRs7Eo4G59u/RgoAeqZD+6q/+amWT74jd+i5NAVOeH+eImj+miSKAa8IUJ7gzzzyzLUKS1ErifM455ywe/ehHt71K5TdbpgLu1qI1xwlGvrcLLrhgfPuIYI79ezSBAHqef/RHf3RIW8H12K3v0hQwxflxzqj5Y5ooArgm/Lt/9+/aJDcViNKl8tnK6ld+5VcW5557bstphgT2kNalx24tWnOcYJBqKUKOBubYv0cTIYAveclLdpzaZ7e+S1NAEcBpoeaPaaII4JrwrGc9q0UBCqjY6zj11FMXp5xySnv9pje9afGiF71o8b/+1/9anH766eOhbYGT5iLYrUVrjhOMnHE7VYsOFXPs36OJIoCHhl/6pV9qloXCNFDzxzRRBHBNkO5EKgiT+l5GT/7e+MY3Lk477bQWMPCHf/iHSzelpw7a4u0DH/hA2+lDJO9uLFpznGAqEfT+QRHA1SFYxlZ4LA6FaaDmj2miCOCagETJBzbukbuXMJK/N7zhDQc+e81rXtMS1/aQEuYnf/InF9/4jd94IDrYZva7sWjNcYIpArh/4FkicP/1v/7Xxcc+9rHx45UwFwKoffY8NncUpoGaP6aJIoBrwl6fzBG/zcgfYsgUDAJDKBvvfOc7Fy996UsXf/mXf9kCRL7927998elPf7rtabob7ZzjBHM0CSBfQ+pU4cjAs9TH7373u3eUAxD2+pyxW5hLO/cT5jg/7wcUAVwTkCYK4E4XgyOFyy67bPF7v/d7i7e85S3t/2XkL8SQH+CrXvWqtrghhB/5yEeab+NJJ53UtrwygdvGbTcm8zlOMEeLAPJD9Uz5pBaODDxL34FXvOIVi09+8pPjxythLsRoCtaRwsGY4/y8H1AEcE3gG8cHcKc5wY4ELCzy+33wgx9s/29F/vrPvvCFL7TAEORPYEh2BpEXENHdDXPOHCeYkQBKwM2E6P3dLL/+67/etoG7zW1us3j+859/k88Pt/AXFTE+Z+gHCqCo+Z36/fqxeMc73nGp7+1+wqWXXjoJ/+jCP2CO8/N+QBHANYHq8vM///Ntj9C9AOTvxS9+8YFf3auSP0D6fPY//sf/uMmvdomMOXRLgHs4mOMEgzT0BFAfINne281y1llnLZ761Kc2s/273vWum3x+uIVS/J/+0386qG1zg2d5uImg/Wh84hOfuOXWi/sB5sSpZEgobGCO8/N+QBHANeLZz3724slPfvLaJ7qR/CF7IXh8+Jh0NyN/PTEUGPLWt771wGfBf/yP/3Hxcz/3c+Pbh4Q5TjAjAfSaf+Vug8ntN3/zNxcPeMADjgi5EPE+t2c3wrOkaHl+Ow0C+fM///PF7/zO74xv7zvsxnxROLqY4/y8H1AEcI3YC6lgtiJ/zLe/+7u/uyn5GwNFlGXYjZyHc5xgRgJ4pPrgox/9aMu7dp/73KfdY7dxpOo9JXiWvmtU8osvvnj8eCU87WlPW/yH//Afxrf3FSoFzDRR3/FpogjgGsGn5053utNh+8ctA9OrhYbf2GYQ8MEpnWkJRvKHGMbhvCd/NrPfKlBkBKJ7z3vesylNO8UcJ5jdJoAWV6l6mHwvueSSdj2peu585zsvvvqrv3rxVV/1Ve21caM4xrHO8XqnONx67wd4lvrBTjnL9szeDjfeeGMzo3/oQx8aP9pXMBfe7na3a8FjhemgvuPTRBHANWK3/OPAgm27tjjeI2/+/umf/ul4aAMSZ6ulP/7jP26LkjQuI/mLszmi13+2VaDIMriX6EVEcKeY4wSzWwSQWZcZH2l3/i1ucYvF137t17ax8fjHP37xDd/wDS13461vfev2+lu/9Vvbcccee2wjhs5TF/vYIoyHip3Wez9hfJaHCs/wgQ984IEfa/sV3Ege/vCHHxFXhMKRQ33Hp4kigGsGs87hpN/gT2RhfsELXtAUvDjeUxn8/9CHPrT5d51//vkHzkHILP5//dd/vbjtbW+7+M7v/M62QEFMwiF/Fvzf//3fb69DDDcLFNkMTL/8eg5n7+M5TjAjaTjUPqCmIH6/8Ru/0X5kfOUrX2nv3/72t29kQiLvRz3qUYsHPehBi+/+7u9uf1PkdLzZzW62+Cf/5J8cuJ66iEI+1GTGh1rv/YjxWR4qPEf7h1MC9zMOdz4srAf1HZ8migCuGSb2H/zBH2zmuUMB860vnIWFD9cIaTdEdTLpMe3d//73b++fe+65i1/91V89YHbmn+fzH/uxH2sEjyIY8pe0MEy3I/nrzcWr4DOf+UwzA0uFsRPMcYIZScOh9AFTIeLOlypjS/Sp/Ix3uMMdmsry9re/vZkVPf++/NZv/VZ7ztS/W97yls0PVJ7HEMj8KDj55JNXcl84lHrvV4zP8lCA9CHl//N//s/xo30F7io/9EM/VP5/E0R9x6eJIoBrhhx6d7vb3Q4pt1eIGQVvhMXiHe94x+J+97tfW7yZ+izqyBcHckTQ/xb/9773vS0vGdOxjdef+9znHiB4UQL5KSKAvSq4qvI34t//+3/ftojbCeY4wYykYdU+sF8z0uZHAtiT2fOiFPsBcNe73rUttNwGfuRHfuQmBPDBD35w+wHxL//lv2wkkP+fMfJf/st/OWD6B9d0n+0SE69a7/2M8VkeCl73ute1PI2HE0Q1BRhH5kIWisK0UN/xaaII4JpBQZEPMGbW7TCaaHvwKfypn/qp5uPFfGcx/9f/+l8vXvva17YEslQ+i/897nGPxTHHHLM44YQTDpxLFXz5y1/eXofwLSN//AH56ewEfAARj/e85z3jR9tijhPMSBq264Ps4iLvXkCpldzZln3gGRgf/+yf/bMWgORHwg/8wA+0sfDoRz+6+QRSjvkD8ts0hihPSKQfFxRidQi5HCPFl2G7es8B47NcFRRz5no/1vY7TjzxxJYWy4/iwrRQ3/FpogjgHoB8gD/zMz+z7S/8MWVLD0SSiseX66d/+qebaZniFt8+PmC3utWtmh/Rve51r7awf83XfE0jC3L38QcD0Xe/9mu/1v6O5M/9EVW5AXcKCxll6VBNwXOcYEbSsFUfjKpw8jdS6YwNxP2Rj3xkI3d8Qu3TLP0QRfBlL3tZG3uvf/3r24+FCy+8sJF/x/zn//yf23kCQ575zGc24kc59GMhEanuZXwhm8uwVb3ngvFZroJrr722/Wj7sz/7s/GjfQfjT+4/LimF6aG+49NEEcA9AKoM08dWv3wt1j0ZsxBLKkvZ4eOF/D3kIQ9ZPOlJTzqQ+kUgSFQ9YEpCAu0mgAh8x3d8x+KbvumbmnkP+Hg95jGPaQv9eeed15S+0SS8nblvFVjQkIpDSfUwxwlmJA2b9UEis/Os/E9NEdmNaDPzUvmQtHHvaWPu3e9+dzvuT/7kT9pzj7oXWJz5D/7iL/5iG6eu48cBNTBjB4yXXn0MNqv3nDA+y+0gClY/73e/v8CPCGPrcNINFdaH+o5PE0UA9wAsyg972MPagr0MFgP+VyF/jkfe7n3vezeC99jHPrYt8KLnmOks6qI0qX18h+T6i+Imr9td7nKXZmrxGYUHLOjMxTEb/5t/828OKA+IxWZm551CFLIUOKuSwDlOMCNp2KwPjA2qHVDhHCNdiL/GFaK2We45Pz443SP2xhLFcKutyhzvR4IxRzV+//vf31Rhz9EPD69HhXqzes8J47PcDsz2kkbPBXyRZSxYZ1L8ws5R3/FpogjgHoDF+TnPec6m2x8JuhBxGVioqTrUu5/4iZ9YPO5xj2vpE0RnvuhFL2omVqk/KIL8h2wf9YQnPKHt9yoK9Pu///ubDxifL2SPyde1EgTw4z/+44u//Mu/bKQSeUAgd5P8BUjgD//wD29JOII5TjAjaVjWB8ZGVDjqGxOuHwAW0+/6ru9qC+tW+PjHP97SuvhRYasx5uDtUrxkvBor7nnppZc2xREBjFJNhQyW1XtuGJ/lZrjmmmuakpok63PBU57ylMWv/MqvbPpDpbC3Ud/xaaII4B4Bhc62cKNvHPWPStf73SGDCB7/IOoPB3zmYKrdb//2by+e97znNSXHgt6b5DjrS/jLR1A07j//5/+8mQ6/7uu+bvHN3/zNbUFHHBAKSYAFi1B6jmRUHqIpGEF06Wie7DHHCWYkDWMfnH766QcCchAvxyNhiDviL3BjO1D0XvWqVx1QAI2tVQg5MFEaM3xIL7jgggN1oQAal0nmO9Z7jhif5QjKPTL+oz/6o4tXvvKV48f7GlJEmfsOJ1F8Yb2o7/g0UQRwD0HQxpgsmcIjB1sPizwFkHLDB9BfCh/iRjk444wzmiJIGWQqFgHMR/Drv/7rW+JnJJEZj2rjfSSRIigoxDmS/1rYRewean7CncD9qY7f+73fu/j1X//1pb6QFgfK0pwgbUtPxvo+QO4Qeru48N30A8DrP/iDP1jc/e53Xyk/H+hrfn8UOwTwAx/4wMpmeXA/PxaYgqWOSTCRcZgfH9owt2c3YnyWcN1117V+9yOIO4TvXq/0zwXSU/EvLUwXRQCniSKAewhjsmTmED5VvSoo1YuIYQsvBYhaQNGT+w0BlMtPrj/+fxQayo5FBbFEDBHKm9/85ouXvOQlzen/+OOPb8ST6RA5/J7v+Z72OdMsQnG0wPSlfuqifX/4h3/YoqM//OEPNxOj1DGiV70+mgWRomh57a//V/lsNwozqz7J//w3Kb/GA3WXed59Y7oVtYvke67I4ir18wNCv1LwqHZcBPp7bldM/H5k3Oc+92n38My4InzkIx9Z/PIv/3JTtfi2qvdYh63q1392tMpWddjqs1WK5NoJttFnfDYFY4mu1me+q6J+54ZxzitME0UAp4kigHsMvQr4yU9+sn2p4hdD6bFrCB8+CwYTm+PjvC+fIF+a7UwplBnRwBYf12FCthghipQ/JsR1bjllUZBiBIFAdBHc4447rpEMfXM0iy3RkGqv/UW0VvlsN4rnicjnfyov/057ONu+z/Z6jtEv/Dgptoi7KG7Hr1I/eSOZi40bY+v7vu/72nvjcZsVdaDecC0wLkWhCy76pV/6peafyqWAu4Hk0mMdtqpf/9nRKlvVYavPVin3ve992xjmpuE7TRG0aM496KHUv/2BIoDTRBHAPYb8ImYaUiT2BWY5CzOCZlsoSiA1DxlA3CyygjxWgV1A/vE//sctYMTiBCIOEQw+gT/5kz95YNuvvQDKCBVF3dTzaBZqGoLttb/+X+Wz3SiCb6h7+Z86J9Ib6efnyXSIuHlfABETuuNyzir1Q2S4EDAn+xHAlOy98bitinpyK6AgS1ti/LimIB9jSpJxxHCsw1b16z87WmWrOmz12SrF2DWG56jybYZS//YPigBOE0UA9yD8In7605++OP/88w9EeD7jGc9oC7xFFgkECyzlD0lkyqUYrgKkz4IM9oLNBCwYQOoXizclKLtHFPYGmPMRLGlbpO0BhA3kVdzpDi3AnMkt4HBA5eNPyB/QdoSgvvwBkdJCoYcfrBTuwvRRBHCaKAK4ByHqlh8cdSeJl/n7Mf+JzOUsTkmg/iFtVCHpXPqoT8l7+ZAJ9rD7Rp9egYlYImjga+cagesigQJBmGALeweemx8ClCfPV3DQu971rub/iXxtt5PMVmCKZOI8HFCimX+NNaZ7ASYS+6pzEcBCDwExIp7zQ6YwbRQBnCaKAO5RUN/s25soXEESD3jAAxrZQ/SYhJFBjvt8r+TQ6iFgIHn9fE7hCZzvXCZkxEHQiDQVzIAc0k3MUsTYVk70ZnYWKawXlFqmfqZfECDkxwI/wDx/z4qCazJmeuVzxnXAa894WfEjwOeeu9fj5ynu53rq4Jru4V4ZH8aqdELGpnGjvhJS+6FCrS4UQPSzH6xjdoPCdFEEcJooAriHgYzlSyUowx6sCJ2ISmASfsELXtAUFotsnytQzrH73e9+Lb8W/6w+LYg9YvlpiSJFKimKjucDFtLIad3esKIXRXUW1g8+oZ6npNyep+cn8peamy20PEfPWzJnpn7BGZ4nt4L4lY5FBDClWJCCqOvx8xTkkGuAlCXq4Z7uJdIXKJDIqKhi7guCjbynHpz9CwXgM6oU9g+KAE4TRQD3MJA7aVks8gH/r6/92q9tKh6fLaod85pdH3qVD6Sd8KUcEwIjAxZp6TmYmV0TJPRFGASZUBCZgyk5ZabZG/Acv+VbvqW9pvx57lL13Ote9zoQXIAYygHJnCu34m1uc5sDu7t4zsuKfJCc8e9whzs0kjd+nmLciD5GAu3b6v58uPq8jQih46g88U8UlVwEsABMv35oVjDM/kIRwGmiCOAehnxsHPtFHPbqHl9AkZ8iC5n+RG3y9xMZ2it9y0CR4XzNSR+5e9azntWujVzY9cOWcHHgp+zUl3p3QJGT+gNpGovnh3iN74+FuVXSZTvDUIGlWvHM+N3x23QdxJ551nOVEsbz/IZv+IYWJGKMjEX6GOQwqWVsD+i98ThFOh7Kn/RB/lKo3cs93Vsd/SCRVBwRtN80X0CE0Z7EY3vGYqzlOmPRd6VETxvSVvmxcdlll40fFSaOIoDTRBHAPQw+VJQcjv4SNQcUuezoIYpXpCXSZqG1Q8hWQPqQB4upSGAEEilkBv5X/+pfNRUwEHSQNDSFnUFAhCTWSBWzOnVsLIgVc/74fl+Y+fne3eUud2k/AO5973s3ZU0OQNc94YQTmporh6PdVELibn/72zcVWeoYz3osjkPkBPzwOXUPxHI8TvEDg1uBrfukd3F995I/MHu5IpKSUYtiN57kGFRXCrU2jO3qiz7gYzi+r2ijuurLwjTxute97kBWg8L+QhHAaaII4B5GdgJhYuNPFVMteC1Slw8fPz3JnP/6r/+6LdDy+yV6GPgPykFmcbZwn3rqqS1ylNrjOgJLqEDnnnvugXPAPWvCPjwkmTc/O76XSPVYEH3m+/H9FNegBgukkHiZ6Z5fnR8Fki3z36OSCerxQwCJ57+JvFPrfud3fqf97/2xGBNUPGPmIQ95SFNojI/xuBTBIn5kuKf0Lt5zT/f2Y0VaIqZk12D2FWGunkicNmjL2L4UfaAvxvcVfWebOuonP8XCtCDhvDFY2J8oAjhNFAHc40DAkDUqnci5PpoyO3fwCaQGiaqz4CIJdmCw6HrfeRQURM859mt91KMe1cyOFB+qy/ve976D7gvIp8CTws6BvFDDmDZ3CgReMuHnP//5B4J3fuzHfqyZhB/+8Ic35YxvICLnM4UpNgE9njs3gnzWF+ZbKrIfADe72c2a36kURONxKRTkr/u6r2vXpVzm/cc//vFtz2nXut3tbtfcE3yuzkibemvD4ewwow1U71KlpwXuCSLM91Jy+cLuwjw39/2+p4gigHscFBHqDEivIQLThBpQWizc1EALrV/avogWSyoNM5zzBXUgk/YOFqnJP8sijSDy05Jmpgd/HQSwAkAOD5RXRBz5OVwIBkqyZmmC+Ggy5zPvek6jYz3lD9E3OW8GizI/U7syIJRUYDvFbAb+ohRARMxuNIF7/+3f/m0bN6KSvaZKCgahYLv24QLRpDj6W5gGjAE/UgQtFfYfzB/WJcnf+aV77ft+OD/0CkcPRQD3OJiBLZ6CCMCXiw8YohcggRQZufv4gjEJI3dyBCJ3VB0qlOg7uf1EZzLHySd39tlnt79Mdz2YlJXC4QEBZK7dDQLIeZ6ZxRhABv/iL/6i+dV5tpvBAryMACJo6sYkK8efKGC+gPxNtwJFeCs1EymkRkpcHqK2W64EyC9TcxHAacAPCwFKSEFhf4Kl4da3vnULNLO9qNcyBNQznwaKAE4AcrAhctQVOOecc1oAB1UvQOAEAPhCUgj5Y3H+5xMo2bP/Oezzn+KT5XiL9J3vfOdmQozKCHaFQB77yOPCzrCbBBCY7eXfc13XpIhRWKLGIXZIHb88fqCeuXRAlGTn8LP76Ec/2ky+gj0EfzADixIWUEI9RjBN4CnGn3Nd4yMf+ciB9C7LYNGnEPIJiupHSU6ewsNBEcDpwPgzR/mBWdi/EJgVV5OUr/mar6lI74mgCOBEQEXp93pF/vhq9dHBHPSl/SDFI4vMcr6ISAFTHFAOOdRTCRFFu4Bw1kcSIKbfPoiksHPsNgGk7CJXFECvme753NmNA1mjDt/ylrdsEzFiL7rbX89Y1K7/BYYI+PCjggn5Z3/2Z9sPANG8oob5+BlHSSEjnQyS6BrcB4yfzSAHIZO0ukjdwneVwrgbvqRFAKcB0b7mpq1cCQr7A9aaY4455iACaA4pBXAaKAI4ITD19mZZwRy2eQu5oAb903/6T9uXUJoYPmDyApqMpeaQ543SI+CDz5iAEOa8PvoXodwNc11hAzslgMh7r8Ilv+MnPvGJ5t+JWFHYKGsImghLSaG9h6gJ/EHkbflnhw8kUMQwUy9SZzxI+yKli+3b7n73uzfCd4tb3KIFc2Qyv/nNb96O9TklWcCRnH7Pfe5zG2nsk4zzB/qhH/qhFh3M19SuJBTHOIdv1qZVUQRw74PLgR8X5qLC/gehwLzRE0DpoMoHcBooAjgxjL55zHVMgEy8wGzL4Vp6F19Gig2FKMRQzsBlcB5lp/z+dheHSgA9T7slMM16XlHz7OjBfH/eeee1X91AAbTXrkhbUbgjTMJM/FIFCQZC/CRpdmw/YdtJJK/dj+kOEUQORfLmM5HHzDv9uX2QkLbKUwhIH5WSWskHlR9i3yaqgTEpdREyuEqEaBHAvY2Xv/zl7QdAqT/zgR9x2W4yhbWgMA0UAZwgkDSm3CgoSIMFXgqYHogEdeerv/qr26Iv8GMZ+HjxHRwDQQqHj0MhgMz1kiaLsGWWRexEfTPXi+im1srj6Bc3UNikBTIOOF6PwR4W4kzOSKDXioThxgQ10GufSweE4CGJyJkdR+Tzy+f+d428phozJfeuApRHUeVXXnnlgVQt8gomQh2x9D8VWuCK9ENUauSWWrkdigDuXfjBaQ4q8jcvWHvMEyF/5g4/+ArTQBHAiQIJtGhSUPr3qHj93qzUQGZdkb4j+Ps5Hvkb9xEu7A5WIYDMuQJ7mG1NovbXRdjlc2RuRZ7kUUOu+Pg5xrP2/JhhmX75c4ri7WExFpXneCbg7AvMjCtiT9CQHTq857XAEAqfHw1cC5BF5l+fcymQW9JrPj4CTUSdhwAKEKH+GW98v5iBkcQQSOSPqVoQi3vZwo5rgkTUPtdOwSV8GTdDEcC9Bz8+zCGKcViYF1gZ+J6HAJozai2ZDooAThgWWz5ffnEJEqH4WXwtkFvtm8qPDCkUAOCXe08YC7uLVQggMsWvTwqfTKRjedCDHtRyN1Ld/M88K7DH85YAHJAqYyDoFUBq361udasW4EHl8z6yxwzLRSDBH17nF73/+QCOdXEs825PANWdGsnPj/qn3Qip6zEnU/tEpY/XSrGIILNUzc1QBHBvQR5KP0LLcjBvsFDke2xuqfVkOigCuA/Az0qAiIXXIsnPTyQmVSjpOxBCCovIT4qfAJBDdcIvHDpCAF/xileMHx2AYxBxOf4QLuZ9ZErUtx00PFuEXTT3z/3czzUnexG7nit4phI5CwqiFCZdEP88qlwCPP7RP/pHLS0MFY45V2H25bfFBOwv86xIYaTtO77jO27i4K0gktI/8CeUp9JYUk/wQ0SSamqQoCN54GIy1h5pZBzrfKo0twXXlHbI56MZuwcTODeGrfIQFo48RJ4L9kDqK91HoY8ErgjgaaEI4D4DBUV+P0EhfMiY2ZAGBITytxvpOAqrA7lj5kS6RyDgTL9ULcSdWZePH7Uw+z4jgswsyDxCR7Wl8sm8L70KUGL41gHiz6wLJmIBHshi/ws9Zt1DKUkHgxQ6H9GjSiIClEK/+kUkI3Igcblt4eSUpBJRqiWuBsECcU2QeJr5l9+jdusLfbLsx4kfOCIMkcfCemCsyfNoPG5lri/MB30kcEUATwtFAPc5JAg2WVOXevNg4eiAoiUqDpFD8BBCBVHna2cbP751fDmZchE4kdtIk3Q9CKG0PAieydX/ibxFnqiDII/jO9/5zvb60Y9+9IGckdRCu4WYnJcRP76Aro2A2UuYSuy98TgqolQzyCwfQlHjTMBURCk/BH4grUiB+iFzieyl+Alq0SZKoDbY39r/fqTwCfRXgmpkUJ9QLpGNJLDWTmRT3yzzZy0cWTD5P/WpT22KcZ97tFDoI4ErAnhaKAI4EzALiyTlq8VkXDg6YCJFehAcO21IhSJatveH44eHKCJEzLA98WJSGckYMyozK4WNj51rSrsiz5/78JGT+8+CbVs2ZmGECrkar8UPkEnYtZj0JG8WtTseRwFkHqYoMg8jqt63tSB1U7oYBFXACsURmUTyKIHf9m3ftm2bJJBG9hKowqSkjxBH7dN3fI2Q4sLRA+LHhYEPqWcU94JCIegjgSsCeFooAjgjcNCnzCAKyEF8yApHHhdeeGFT10T4+kvJkvLFpEkBRNqYdJF0fnoUW759IoPt4OF/5l+Rus63ICNcjncN6hlzq+3dnvKUp7TjEsCBnInCTQRxyn3ve99G7EYytlXhR9j7+8hBqQ7U5fPPP7+RRCoh0uY1sos4bNUmJkUkVB8k0pj/oD7yfvpMHxaODnrip/+psIXCMjD5PutZz2rf24oAnhaKAM4QfsWb1CkzFmjbygkwKBx5SN7MLM9Pk2+mSRNZQt4kdUaIRM9SuxR+d56R19Rbv7ARd8qf/0XPMsu5LlMMcy6zrJ06PvjBDzaSJ/Gy/5lQ+0TOCQwZSd5YnI+wIW8IgfcojpRNJFbdmH2RUOlmjC1EVOF+wC9wqzblfH3gONen/FEQmZSpkoUjD3OAPXw9G3NDEb/CqsiewBUBPC0UAZwxmB0RA6oLf7Rf+IVfaOY8EaVy0xV2H1Q+REfkrLQuzK189qhhyqMe9ajF/e53v+ZLo1DRKDFeH3/88e1z1+CzRznj14egWawFaDC9UvqocHL5McdSeyWKZgYe9+1cpThHPkHmX/egJlIVmavVR/349TExMwWJEvY+AifgQz23apMEwmk/dVCb9A2fQ6TE+4Xdh++477rgGt/95H80J5S/cOFQ4Ecc3+CKAJ4WigAW2k4gyCC/LuZDv/4RB4u0BK8IS7/lV2HnQGZEwIqIRfwQHua2QICDoIioZUysnovX3u/TyQi6YF5FxP7mb/5m8cAHPrApZ0g8ldevccmkBZFQ/yi9JumR4G1XnINwUvgko3ZN6iLy8LznPa/lMPT+2Wef3SKQKZtS2eykTRYQY48JW539zwxcOHww1fkuCxDy3dbP8kr6zvsf6TMXFAqHCn7JrBMVATwtFAEsHAR+gsL6LeBUJIu1QAILBSWJuRJZtJCkFDlcHSIomU8RJvn2KC99VKtcfhSyqGV2BGFK9ZrpVMRt8LrXva6pbkjfVVddtfjFX/zF9owe/OAHtwha5lOBJVIBPfGJT2wmZjn5kDr5+ZCsmHT74j3EVBH9S6UUzGJ3j/gegpRC7okc8tFjmkbopIeh3u2kTSKbEVoKoz5i/q2o00ODHxiIs+K7TNHTl57nt3/7tzdFVmQ4Fbry+BV2A777UlkVpoUigIUtwUxkEaEOWEQkDKYQIoUpIYdUhCpbF8TLtmpIDjLFpMo8ms+T6DlqmYXaAu418xyyl2MRKYTNriD6X9AHM+9I6MbN2hWkrvcH7AuTL99APoLLUsdQBEXlMvX633Zv1CRRxAlKsSvJTtqU/rjHPe7R+khf6bOxH6ssL/pMGp3+WXIJQMwRdamC/DhADql9fPzkb5QZoEqVnRY/Dv2oG98fi12P/Jgs7A0UASwcMihJSGFKyCHFsMrWxSQp8CF/Kaoi6PI50+j4P5XNa33MQT+fMcVS0ShyjuGI7ZpUWySLSYbChlB531Zr/kcMEC//S/+CQN7xjnds/nuCSyhFPkPaHMtHj5+YjP988xBXwSfqg1j4qz3q5r4iftVtJ23yvz7p+8jffF5l68JszgXA81EQbSZ2O64IyBFpTYGOz2WVKrtRssPU+P5YqITJD1pYP4oAFgr7DAIv+M1Z9E26fA0pt6985Stb3j6kju+g3TwkWGYKliuQmfYRj3hEI3r8BilKdvngW8jEK5k1wodoupZgFO8VCoVCYXooAlgo7DPw/eOfZ7cRJhcBIkx9H/rQh1o6Fz5gVDcqHJXI/72Jl08iJU5KFuSRYkdZYsKR54sPqGu7R20HVigUCtNEEcBCYYZACBE5/l9UQiSP+mcnkZe+9KWN3CXYp1AoFAr7D0UAC4VCi+Quc26hUCjMB0UAC4VCM+9SAguFQqEwDxQBLBQKzafPNnKFQqFQmAeKABYKhebzJ0VIoVAoFOaBIoCFQqEl/LYLTKFQKBTmgSKAhUKh7eF53XXXjW8XCoVCYZ+iCGChUGj5Amsvz0KhUJgPigAWCoXFRRdd1LaFKxQKhcI8UASwUCgsLrvsssW55547vl0oFAqFfYoigIVCoVAoFAozQxHAQqHQFMDzzjtvfLtQKBQK+xRFAAuFwuJjH/vY4oUvfOH4dqFQKBT2KYoAFgqF2gquUCgUZoYigIVCoQhgoVAozAxFAAuFQhHAQqFQmBmKABYKhSKAhUKhMDMUASwUCkUAC4VCYWYoAlgoFIoAFgqFwsxQBLBQKBQBLBQKhZmhCGChUCgCWCgUCjNDEcBCobD43//7fy9OPPHE8e1CoVAo7FMUASwUCouLL7548cd//Mfj24VCoVDYpygCWCgUFtdff/3iK1/5yvh2oVAoFPYpigAWCoVCoVAozAxFAAuFQqFQKBRmhiKAhUKhUCgUCjNDEcBCoVAoFAqFmaEIYKFQKBQKhcLMUASwUCgUCoVCYWYoAlgoFAqFQqEwMxQBLBQKhUKhUJgZigAWCoVCoVAozAxFAAuFQqFQKBRmhiKAhUKhUCgUCjNDEcBCoVAoFAqFmaEIYKFQKBQKhcLMUASwUCgUCoVCYWYoAlgoFAqFQqEwMxQBLBQKhUKhUJgZigAWCoVCoVAozAxFAAuFQqFQKBRmhiKAhUKhUCgUCjNDEcBCoVAoFAqFmaEIYKFQKBQKhcLMUASwUCgUCoVCYWYoAlgoFAqFQqEwMxQBLBQKhUKhUJgZigAWCoVCoVAozAxFAAuFQqFQKBRmhiKAhUKhUCgUCjNDEcBCoVAoFAqFmaEIYKFQKBQKhcLMUASwUCgUCoVCYWYoAlgoFAqFQqEwMxQBLBQKhUKhUJgZigAWCoVCoVAozAxFAAuFQqFQKBRmhv8PUPD+VlCHmWMAAAAASUVORK5CYII=;" vertex="1" parent="1">
                    <mxGeometry x="-1600" y="40" width="640" height="800" as="geometry"/>
                </mxCell>
            </root>
        </mxGraphModel>
    </diagram>
    <diagram name="WheelPosition" id="PrgMVBvtPmwZ1OnO4rnO">
        <mxGraphModel dx="973" dy="1091" grid="1" gridSize="10" guides="1" tooltips="1" connect="1" arrows="1" fold="1" page="1" pageScale="1" pageWidth="827" pageHeight="1169" math="0" shadow="0">
            <root>
                <mxCell id="0"/>
                <mxCell id="1" parent="0"/>
                <mxCell id="w_HdbHzw66gUi9R2gKZH-19" value="Front-Left" style="text;html=1;strokeColor=none;fillColor=none;align=center;verticalAlign=middle;whiteSpace=wrap;rounded=0;" parent="1" vertex="1">
                    <mxGeometry x="110" y="67" width="80" height="30" as="geometry"/>
                </mxCell>
                <mxCell id="w_HdbHzw66gUi9R2gKZH-20" value="Front-Right" style="text;html=1;strokeColor=none;fillColor=none;align=center;verticalAlign=middle;whiteSpace=wrap;rounded=0;" parent="1" vertex="1">
                    <mxGeometry x="330" y="67" width="80" height="30" as="geometry"/>
                </mxCell>
                <mxCell id="w_HdbHzw66gUi9R2gKZH-37" value="" style="group" parent="1" vertex="1" connectable="0">
                    <mxGeometry x="80" y="100" width="110" height="140" as="geometry"/>
                </mxCell>
                <mxCell id="w_HdbHzw66gUi9R2gKZH-12" value="" style="rounded=0;whiteSpace=wrap;html=1;rotation=-360;" parent="w_HdbHzw66gUi9R2gKZH-37" vertex="1">
                    <mxGeometry x="40" y="20" width="60" height="120" as="geometry"/>
                </mxCell>
                <mxCell id="w_HdbHzw66gUi9R2gKZH-13" value="" style="ellipse;whiteSpace=wrap;html=1;aspect=fixed;rotation=-180;" parent="w_HdbHzw66gUi9R2gKZH-37" vertex="1">
                    <mxGeometry x="80" width="30" height="30" as="geometry"/>
                </mxCell>
                <mxCell id="w_HdbHzw66gUi9R2gKZH-14" value="" style="ellipse;whiteSpace=wrap;html=1;aspect=fixed;rotation=-180;" parent="w_HdbHzw66gUi9R2gKZH-37" vertex="1">
                    <mxGeometry x="30" width="30" height="30" as="geometry"/>
                </mxCell>
                <mxCell id="w_HdbHzw66gUi9R2gKZH-15" value="" style="rounded=0;whiteSpace=wrap;html=1;rotation=-180;" parent="w_HdbHzw66gUi9R2gKZH-37" vertex="1">
                    <mxGeometry y="60" width="40" height="40" as="geometry"/>
                </mxCell>
                <mxCell id="w_HdbHzw66gUi9R2gKZH-16" value="" style="ellipse;whiteSpace=wrap;html=1;aspect=fixed;rotation=-180;" parent="w_HdbHzw66gUi9R2gKZH-37" vertex="1">
                    <mxGeometry x="85" y="5" width="20" height="20" as="geometry"/>
                </mxCell>
                <mxCell id="w_HdbHzw66gUi9R2gKZH-17" value="" style="ellipse;whiteSpace=wrap;html=1;aspect=fixed;rotation=-180;" parent="w_HdbHzw66gUi9R2gKZH-37" vertex="1">
                    <mxGeometry x="35" y="5" width="20" height="20" as="geometry"/>
                </mxCell>
                <mxCell id="w_HdbHzw66gUi9R2gKZH-18" value="" style="endArrow=none;html=1;rounded=0;exitX=0.25;exitY=1;exitDx=0;exitDy=0;" parent="w_HdbHzw66gUi9R2gKZH-37" source="w_HdbHzw66gUi9R2gKZH-15" edge="1">
                    <mxGeometry width="50" height="50" relative="1" as="geometry">
                        <mxPoint x="80" y="50" as="sourcePoint"/>
                        <mxPoint x="30" y="100" as="targetPoint"/>
                    </mxGeometry>
                </mxCell>
                <mxCell id="w_HdbHzw66gUi9R2gKZH-64" value="" style="rounded=0;whiteSpace=wrap;html=1;fillColor=#bac8d3;strokeColor=#23445d;" parent="w_HdbHzw66gUi9R2gKZH-37" vertex="1">
                    <mxGeometry x="100" y="60" width="10" height="40" as="geometry"/>
                </mxCell>
                <mxCell id="w_HdbHzw66gUi9R2gKZH-38" value="" style="group" parent="1" vertex="1" connectable="0">
                    <mxGeometry x="304" y="100" width="110" height="140" as="geometry"/>
                </mxCell>
                <mxCell id="w_HdbHzw66gUi9R2gKZH-39" value="" style="rounded=0;whiteSpace=wrap;html=1;rotation=-360;" parent="w_HdbHzw66gUi9R2gKZH-38" vertex="1">
                    <mxGeometry x="35" y="20" width="60" height="120" as="geometry"/>
                </mxCell>
                <mxCell id="w_HdbHzw66gUi9R2gKZH-40" value="" style="ellipse;whiteSpace=wrap;html=1;aspect=fixed;rotation=-180;" parent="w_HdbHzw66gUi9R2gKZH-38" vertex="1">
                    <mxGeometry x="80" width="30" height="30" as="geometry"/>
                </mxCell>
                <mxCell id="w_HdbHzw66gUi9R2gKZH-41" value="" style="ellipse;whiteSpace=wrap;html=1;aspect=fixed;rotation=-180;" parent="w_HdbHzw66gUi9R2gKZH-38" vertex="1">
                    <mxGeometry x="30" width="30" height="30" as="geometry"/>
                </mxCell>
                <mxCell id="w_HdbHzw66gUi9R2gKZH-42" value="" style="rounded=0;whiteSpace=wrap;html=1;rotation=-180;" parent="w_HdbHzw66gUi9R2gKZH-38" vertex="1">
                    <mxGeometry x="-5" y="60" width="40" height="40" as="geometry"/>
                </mxCell>
                <mxCell id="w_HdbHzw66gUi9R2gKZH-43" value="" style="ellipse;whiteSpace=wrap;html=1;aspect=fixed;rotation=-180;" parent="w_HdbHzw66gUi9R2gKZH-38" vertex="1">
                    <mxGeometry x="85" y="5" width="20" height="20" as="geometry"/>
                </mxCell>
                <mxCell id="w_HdbHzw66gUi9R2gKZH-44" value="" style="ellipse;whiteSpace=wrap;html=1;aspect=fixed;rotation=-180;" parent="w_HdbHzw66gUi9R2gKZH-38" vertex="1">
                    <mxGeometry x="35" y="5" width="20" height="20" as="geometry"/>
                </mxCell>
                <mxCell id="w_HdbHzw66gUi9R2gKZH-45" value="" style="endArrow=none;html=1;rounded=0;exitX=0.25;exitY=1;exitDx=0;exitDy=0;" parent="w_HdbHzw66gUi9R2gKZH-38" source="w_HdbHzw66gUi9R2gKZH-42" edge="1">
                    <mxGeometry width="50" height="50" relative="1" as="geometry">
                        <mxPoint x="75" y="50" as="sourcePoint"/>
                        <mxPoint x="25" y="100" as="targetPoint"/>
                    </mxGeometry>
                </mxCell>
                <mxCell id="w_HdbHzw66gUi9R2gKZH-65" value="" style="rounded=0;whiteSpace=wrap;html=1;fillColor=#bac8d3;strokeColor=#23445d;" parent="w_HdbHzw66gUi9R2gKZH-38" vertex="1">
                    <mxGeometry x="95" y="60" width="10" height="40" as="geometry"/>
                </mxCell>
                <mxCell id="w_HdbHzw66gUi9R2gKZH-46" value="" style="group;rotation=-180;" parent="1" vertex="1" connectable="0">
                    <mxGeometry x="110" y="320" width="110" height="140" as="geometry"/>
                </mxCell>
                <mxCell id="w_HdbHzw66gUi9R2gKZH-47" value="" style="rounded=0;whiteSpace=wrap;html=1;rotation=-540;" parent="w_HdbHzw66gUi9R2gKZH-46" vertex="1">
                    <mxGeometry x="10" width="60" height="120" as="geometry"/>
                </mxCell>
                <mxCell id="w_HdbHzw66gUi9R2gKZH-48" value="" style="ellipse;whiteSpace=wrap;html=1;aspect=fixed;rotation=-360;" parent="w_HdbHzw66gUi9R2gKZH-46" vertex="1">
                    <mxGeometry y="110" width="30" height="30" as="geometry"/>
                </mxCell>
                <mxCell id="w_HdbHzw66gUi9R2gKZH-49" value="" style="ellipse;whiteSpace=wrap;html=1;aspect=fixed;rotation=-360;" parent="w_HdbHzw66gUi9R2gKZH-46" vertex="1">
                    <mxGeometry x="50" y="110" width="30" height="30" as="geometry"/>
                </mxCell>
                <mxCell id="w_HdbHzw66gUi9R2gKZH-50" value="" style="rounded=0;whiteSpace=wrap;html=1;rotation=-360;" parent="w_HdbHzw66gUi9R2gKZH-46" vertex="1">
                    <mxGeometry x="70" y="40" width="40" height="40" as="geometry"/>
                </mxCell>
                <mxCell id="w_HdbHzw66gUi9R2gKZH-51" value="" style="ellipse;whiteSpace=wrap;html=1;aspect=fixed;rotation=-360;" parent="w_HdbHzw66gUi9R2gKZH-46" vertex="1">
                    <mxGeometry x="5" y="115" width="20" height="20" as="geometry"/>
                </mxCell>
                <mxCell id="w_HdbHzw66gUi9R2gKZH-52" value="" style="ellipse;whiteSpace=wrap;html=1;aspect=fixed;rotation=-360;" parent="w_HdbHzw66gUi9R2gKZH-46" vertex="1">
                    <mxGeometry x="55" y="115" width="20" height="20" as="geometry"/>
                </mxCell>
                <mxCell id="w_HdbHzw66gUi9R2gKZH-53" value="" style="endArrow=none;html=1;rounded=0;exitX=0.25;exitY=1;exitDx=0;exitDy=0;" parent="w_HdbHzw66gUi9R2gKZH-46" source="w_HdbHzw66gUi9R2gKZH-50" edge="1">
                    <mxGeometry width="50" height="50" relative="1" as="geometry">
                        <mxPoint x="30" y="90" as="sourcePoint"/>
                        <mxPoint x="80" y="40" as="targetPoint"/>
                    </mxGeometry>
                </mxCell>
                <mxCell id="w_HdbHzw66gUi9R2gKZH-67" value="" style="rounded=0;whiteSpace=wrap;html=1;fillColor=#bac8d3;strokeColor=#23445d;" parent="w_HdbHzw66gUi9R2gKZH-46" vertex="1">
                    <mxGeometry y="40" width="10" height="40" as="geometry"/>
                </mxCell>
                <mxCell id="w_HdbHzw66gUi9R2gKZH-54" value="" style="group;rotation=-180;" parent="1" vertex="1" connectable="0">
                    <mxGeometry x="330" y="320" width="110" height="140" as="geometry"/>
                </mxCell>
                <mxCell id="w_HdbHzw66gUi9R2gKZH-55" value="" style="rounded=0;whiteSpace=wrap;html=1;rotation=-540;" parent="w_HdbHzw66gUi9R2gKZH-54" vertex="1">
                    <mxGeometry x="10" width="60" height="120" as="geometry"/>
                </mxCell>
                <mxCell id="w_HdbHzw66gUi9R2gKZH-56" value="" style="ellipse;whiteSpace=wrap;html=1;aspect=fixed;rotation=-360;" parent="w_HdbHzw66gUi9R2gKZH-54" vertex="1">
                    <mxGeometry y="110" width="30" height="30" as="geometry"/>
                </mxCell>
                <mxCell id="w_HdbHzw66gUi9R2gKZH-57" value="" style="ellipse;whiteSpace=wrap;html=1;aspect=fixed;rotation=-360;" parent="w_HdbHzw66gUi9R2gKZH-54" vertex="1">
                    <mxGeometry x="50" y="110" width="30" height="30" as="geometry"/>
                </mxCell>
                <mxCell id="w_HdbHzw66gUi9R2gKZH-58" value="" style="rounded=0;whiteSpace=wrap;html=1;rotation=-360;" parent="w_HdbHzw66gUi9R2gKZH-54" vertex="1">
                    <mxGeometry x="70" y="40" width="40" height="40" as="geometry"/>
                </mxCell>
                <mxCell id="w_HdbHzw66gUi9R2gKZH-59" value="" style="ellipse;whiteSpace=wrap;html=1;aspect=fixed;rotation=-360;" parent="w_HdbHzw66gUi9R2gKZH-54" vertex="1">
                    <mxGeometry x="5" y="115" width="20" height="20" as="geometry"/>
                </mxCell>
                <mxCell id="w_HdbHzw66gUi9R2gKZH-60" value="" style="ellipse;whiteSpace=wrap;html=1;aspect=fixed;rotation=-360;" parent="w_HdbHzw66gUi9R2gKZH-54" vertex="1">
                    <mxGeometry x="55" y="115" width="20" height="20" as="geometry"/>
                </mxCell>
                <mxCell id="w_HdbHzw66gUi9R2gKZH-61" value="" style="endArrow=none;html=1;rounded=0;exitX=0.25;exitY=1;exitDx=0;exitDy=0;" parent="w_HdbHzw66gUi9R2gKZH-54" source="w_HdbHzw66gUi9R2gKZH-58" edge="1">
                    <mxGeometry width="50" height="50" relative="1" as="geometry">
                        <mxPoint x="30" y="90" as="sourcePoint"/>
                        <mxPoint x="80" y="40" as="targetPoint"/>
                    </mxGeometry>
                </mxCell>
                <mxCell id="w_HdbHzw66gUi9R2gKZH-66" value="" style="rounded=0;whiteSpace=wrap;html=1;fillColor=#bac8d3;strokeColor=#23445d;" parent="w_HdbHzw66gUi9R2gKZH-54" vertex="1">
                    <mxGeometry y="40" width="10" height="40" as="geometry"/>
                </mxCell>
                <mxCell id="w_HdbHzw66gUi9R2gKZH-62" value="Rear-Left" style="text;html=1;strokeColor=none;fillColor=none;align=center;verticalAlign=middle;whiteSpace=wrap;rounded=0;" parent="1" vertex="1">
                    <mxGeometry x="110" y="480" width="80" height="30" as="geometry"/>
                </mxCell>
                <mxCell id="w_HdbHzw66gUi9R2gKZH-63" value="Rear-Right" style="text;html=1;strokeColor=none;fillColor=none;align=center;verticalAlign=middle;whiteSpace=wrap;rounded=0;" parent="1" vertex="1">
                    <mxGeometry x="330" y="480" width="80" height="30" as="geometry"/>
                </mxCell>
            </root>
        </mxGraphModel>
    </diagram>
</mxfile>